<?xml version="1.0" encoding="utf-8"?>
<!-- Generator: Adobe Illustrator 25.2.1, SVG Export Plug-In . SVG Version: 6.00 Build 0)  -->
<svg version="1.1" id="Layer_1" xmlns="http://www.w3.org/2000/svg" xmlns:xlink="http://www.w3.org/1999/xlink" x="0px" y="0px"
	 viewBox="0 0 208 295" style="background-color: #E1E7FF;" xml:space="preserve">
<style type="text/css">
	.st0{fill:#E1E7FF;}
	.st1{fill:#00165E;}
	.st2{fill:#EC4115;}
	.st3{enable-background:new    ;}
	.st4{opacity:0.18;fill:#2B6099;enable-background:new    ;}
	.st5{fill:#FFBB0C;}
	.st6{fill:#FFFFFF;}
	.st7{opacity:0.57;}
	.st8{fill:#257B99;}
	.st9{fill:#85C6C6;}
	.st10{fill:#E26060;}
	.st11{fill:#575756;}
	.st12{fill:#878787;}
	.st13{fill:#214357;}
	.st14{fill:#628799;}
	.st15{fill:#EFAD89;}
	.st16{fill:#EDEDED;}
	.st17{fill:#435291;}
	.st18{fill:#143D4F;}
	.st19{fill:#0A2A35;}
	.st20{fill:#54274B;}
	.st21{fill:#FFC4A4;}
	.st22{fill:#8E4514;}
	.st23{fill:#515FAF;}
	.st24{opacity:0.33;}
	.st25{fill:#3C8CD6;}
	.st26{fill:#303DC1;}
	.st27{fill:#12649B;}
	.st28{fill:#1D71B8;}
	.st29{opacity:0.37;fill:#303DC1;enable-background:new    ;}
	.st30{opacity:0.37;fill:#3080C1;enable-background:new    ;}
	.st31{opacity:0.37;fill:#1D71B8;enable-background:new    ;}
	.st32{opacity:0.37;fill:#3C8CD6;enable-background:new    ;}
	.st33{opacity:0.37;fill:#12649B;enable-background:new    ;}
	.st34{opacity:0.37;fill:#7D3DC1;enable-background:new    ;}
	.st35{opacity:0.37;fill:#3075C1;enable-background:new    ;}
	.st36{opacity:0.37;}
	.st37{fill:#9D9D9C;}
	.st38{opacity:0.41;fill:#9D9D9C;enable-background:new    ;}
	.st39{opacity:0.52;fill:#36A9E1;enable-background:new    ;}
	.st40{opacity:0.52;fill:#45C484;enable-background:new    ;}
	.st41{opacity:0.52;fill:#A3A9E1;enable-background:new    ;}
	.st42{opacity:0.52;fill:#36C9E1;enable-background:new    ;}
	.st43{opacity:0.38;fill:#941622;enable-background:new    ;}
	.st44{fill:#2B3B56;}
	.st45{fill:#56211C;}
	.st46{fill:#331C18;}
	.st47{fill:#FD962F;}
	.st48{fill:#174251;}
	.st49{fill:#1F5972;}
	.st50{fill:#FDC02F;}
	.st51{fill:#B2B2B2;}
	.st52{fill:#C7D9E5;}
	.st53{fill:#6CBABC;}
	.st54{fill:#E2A00C;}
	.st55{fill:#BFEDED;}
	.st56{opacity:0.23;fill:#1F6CD2;enable-background:new    ;}
	.st57{fill:#3685D3;}
</style>
<rect y="0" class="st0" width="208" height="295"/>
<g transform="translate(7596 2426.819)">
	<rect x="-7513.8" y="-2366.4" class="st1" width="4.4" height="14.2"/>
	<path class="st1" d="M-7494.4-2363.2h4.2v11h4.4v-11h4.2v-3.2h-12.8V-2363.2z"/>
	<path class="st1" d="M-7475.2-2357.8h5.9v-3.1h-5.9v-2.5h6.6v-3.1h-10.9v14.2h10.9v-3.1h-6.6L-7475.2-2357.8z"/>
	<path class="st1" d="M-7520.3-2366.4l-5.1,7.1l5.1,7.1h4.8l-5.1-7.1l5.1-7.1H-7520.3z"/>
	<path class="st1" d="M-7525.7-2366.4h-4.3v14.2h4.3V-2366.4z"/>
	<path class="st1" d="M-7461.2-2366.4h-5.4v14.2h4.3v-11.4h1.1c1.6,0,2,0.7,2,1.8c0,1.2-0.3,2-2,2h-1.1l1.5,2.9c5.6-0.1,6-3.5,6-5
		C-7454.8-2363.3-7455.5-2366.4-7461.2-2366.4z"/>
	<path class="st2" d="M-7530-2375v3.7c24.8-5.4,50.4-5.4,75.2,0v-3.7C-7479.6-2380.3-7505.2-2380.3-7530-2375z"/>
	<path class="st1" d="M-7499.8-2360.8c-2.1-0.7-2.9-1-2.9-1.7c0-0.6,0.7-1.1,2.1-1.1c1.5,0,3,0.2,4.4,0.8v-3.2
		c-1.4-0.5-2.9-0.8-4.3-0.7c-4.1,0-6.6,1.9-6.6,4.5c0,2.1,1.8,3.5,4.6,4.3c1.8,0.6,2.6,1,2.6,1.6c0,0.7-0.7,1.2-2.2,1.2
		c-1.6,0-3.3-0.3-4.8-0.9v3.2c1.5,0.4,3,0.7,4.5,0.8c4.8,0,6.9-2.1,6.9-4.5C-7495.6-2358.5-7496.9-2359.9-7499.8-2360.8z"/>
</g>
<g class="st3">
	<path d="M60.3,97.9c-0.5,0.9-1.3,1.7-2.3,2.2s-2.2,0.8-3.5,0.8c-1.4,0-2.5-0.3-3.5-0.8s-1.8-1.3-2.3-2.2s-0.8-2-0.8-3.2
		s0.3-2.3,0.8-3.2c0.5-0.9,1.3-1.7,2.3-2.2s2.2-0.8,3.5-0.8c1.3,0,2.5,0.3,3.5,0.8s1.8,1.3,2.3,2.2c0.5,0.9,0.8,2,0.8,3.2
		S60.8,96.9,60.3,97.9z M68.3,107.1v2.2H49.9v-7h2.5v4.8H68.3z M51.5,97.7c0.8,0.7,1.8,1.1,3,1.1c1.3,0,2.3-0.4,3-1.1
		c0.8-0.7,1.1-1.7,1.1-3c0-1.3-0.4-2.3-1.1-3c-0.8-0.7-1.8-1.1-3-1.1c-1.3,0-2.3,0.4-3,1.1c-0.8,0.7-1.1,1.7-1.1,3
		S50.7,96.9,51.5,97.7z M65.4,96.5v-3.5h-3.6l-0.1-2.2h3.8v-2.5h2.5v15.9h-2.5v-5.5h-3.8l0.1-2.2H65.4z"/>
	<path d="M78.8,98.7l6.8,8l-1.8,1.6l-5.7-6.9c-0.7,2-1.7,3.7-3,4.9s-2.7,1.9-4.3,2.1v-2.4c1.2-0.2,2.2-0.9,3.1-2
		c0.9-1.1,1.6-2.5,2.1-4.2c0.5-1.7,0.8-3.7,0.9-5.9h-5.7v-2.3h5.7V88h2.5v3.5h5.5v2.3h-5.5C79.3,95.6,79.1,97.2,78.8,98.7z
		 M92.9,99.3h-3v10.3h-2.5V88.3h2.5v8.7h3V99.3z"/>
	<path d="M114.7,106.3v2.3H93.3v-2.3h9.4v-4.8h-8V88.9h2.5v3.8h13.6v-3.8h2.5v12.6h-8v4.8H114.7z M97.2,99.2h13.6v-4.3H97.2V99.2z"
		/>
	<path d="M137.5,106.3v2.3h-21.3v-2.3h8v-9.5h2.5v9.5H137.5z M133.5,91.3h-16V89H136v14.1h-2.6V91.3z"/>
	<path d="M147.2,96.8l6.7,10.2l-2.1,1.3l-5.3-8.4c-0.7,2.6-1.7,4.5-3,6s-2.7,2.2-4.4,2.4v-2.5c1.3-0.2,2.5-1.1,3.4-2.6
		c0.9-1.6,1.6-3.6,2.1-6.1c0.5-2.5,0.7-5.3,0.7-8.3l2.5,0.1C147.9,91.7,147.7,94.4,147.2,96.8z M159,88.3v21.3h-2.5V98.3h-5.5V96
		h5.5v-7.7H159z"/>
</g>
<g class="st3">
	<path d="M68.8,109.8H49.4v-8h3.5v4.8h15.9V109.8z M50.4,108.8h17.4v-1.2H51.9v-4.8h-1.5V108.8z M68.4,104.6h-3.5v-5.5h-3.8l0.1-2.2
		c-0.1,0.4-0.3,0.8-0.5,1.1c-0.6,1-1.4,1.8-2.5,2.4c-1.1,0.6-2.3,0.9-3.7,0.9c-1.4,0-2.7-0.3-3.8-0.9c-1.1-0.6-1.9-1.4-2.5-2.4
		c-0.6-1-0.9-2.2-0.9-3.4s0.3-2.4,0.9-3.4c0.6-1,1.4-1.8,2.5-2.4c1.1-0.6,2.3-0.9,3.8-0.9c1.4,0,2.7,0.3,3.7,0.9
		c1.1,0.6,1.9,1.4,2.5,2.4c0.2,0.4,0.4,0.7,0.5,1.1l-0.1-2.1h3.8v-2.5h3.5V104.6z M65.9,103.6h1.5V88.8h-1.5v2.5h-3.7l0.1,1.2h3.7
		V97h-3.7l-0.1,1.2h3.7V103.6z M54.5,89c-1.3,0-2.4,0.2-3.3,0.7c-0.9,0.5-1.6,1.2-2.1,2c-0.5,0.9-0.7,1.8-0.7,3s0.2,2.1,0.7,3
		c0.5,0.8,1.2,1.5,2.1,2c0.9,0.5,2,0.7,3.3,0.7c1.2,0,2.3-0.2,3.3-0.7c0.9-0.5,1.6-1.2,2.1-2c0.5-0.9,0.7-1.8,0.7-3s-0.2-2.1-0.7-3
		c-0.5-0.8-1.2-1.5-2.1-2C56.8,89.2,55.7,89,54.5,89z M61.5,96h3.4v-2.5h-3.4c0.1,0.4,0.1,0.8,0.1,1.3C61.6,95.1,61.6,95.6,61.5,96z
		 M54.5,99.3c-1.4,0-2.5-0.4-3.4-1.2c-0.8-0.8-1.3-2-1.3-3.4c0-1.4,0.4-2.5,1.3-3.4c0.8-0.8,2-1.3,3.4-1.3c1.4,0,2.5,0.4,3.4,1.3
		c0.8,0.8,1.3,2,1.3,3.4c0,1.4-0.4,2.5-1.3,3.3C57,98.9,55.9,99.3,54.5,99.3z M54.5,91c-1.1,0-2,0.3-2.7,1c-0.7,0.7-1,1.5-1,2.7
		c0,1.1,0.3,2,1,2.6c0.7,0.6,1.5,1,2.7,1c1.1,0,2-0.3,2.6-1c0.7-0.6,1-1.5,1-2.6c0-1.1-0.3-2-1-2.7C56.5,91.4,55.6,91,54.5,91z"/>
	<path d="M90.4,110.1h-3.5V87.8h3.5v8.7h3v3.4h-3V110.1z M87.9,109.1h1.5V98.8h3v-1.4h-3v-8.7h-1.5V109.1z M83.7,109l-5.5-6.6
		c-0.7,1.7-1.7,3.2-2.8,4.2c-1.3,1.3-2.9,2-4.6,2.2l-0.6,0.1v-3.4l0.4-0.1c1.1-0.2,2-0.8,2.8-1.8c0.8-1,1.5-2.4,2-4.1
		c0.5-1.6,0.7-3.3,0.9-5.2h-5.7V91h5.7v-3.5h3.5V91h5.5v3.3h-5.5c-0.1,1.5-0.3,2.9-0.5,4.2l6.9,8.2L83.7,109z M71.3,106.3v1.4
		c1.3-0.3,2.4-0.9,3.4-1.8c1.2-1.1,2.1-2.7,2.8-4.7l0.3-0.8l6,7.2l1-0.9l-6.6-7.8l0.1-0.2c0.3-1.5,0.5-3.1,0.6-4.8l0-0.5h5.5V92
		h-5.5v-3.5h-1.5V92h-5.7v1.3h5.7l0,0.5c-0.1,2.2-0.4,4.2-0.9,6c-0.5,1.8-1.3,3.3-2.2,4.4C73.4,105.3,72.4,106,71.3,106.3z"/>
	<path d="M115.2,109.1H92.8v-3.3h9.4V102h-8V88.4h3.5v3.8h12.6v-3.8h3.5V102h-8v3.8h9.4V109.1z M93.8,108.1h20.3v-1.3h-9.4V101h8
		V89.4h-1.5v3.8H96.7v-3.8h-1.5V101h8v5.8h-9.4V108.1z M111.3,99.7H96.7v-5.3h14.6V99.7z M97.7,98.7h12.6v-3.3H97.7V98.7z"/>
	<path d="M138,109.1h-22.3v-3.3h8v-9.5h3.5v9.5H138V109.1z M116.6,108.1H137v-1.3h-10.8v-9.5h-1.5v9.5h-8V108.1z M136.5,103.6H133
		V91.8h-16v-3.3h19.6V103.6z M134,102.6h1.6V89.5h-17.6v1.3h16V102.6z"/>
	<path d="M159.5,110.1h-3.5V98.8h-5.5v-3.3h5.5v-7.7h3.5V110.1z M157.1,109.1h1.5V88.8h-1.5v7.7h-5.5v1.3h5.5V109.1z M151.7,109.1
		l-5-7.9c-0.7,2.1-1.7,3.9-2.8,5.1c-1.3,1.5-2.9,2.4-4.7,2.5l-0.5,0v-3.5l0.4-0.1c1.2-0.2,2.2-1,3-2.4c0.9-1.5,1.6-3.5,2-5.9
		c0.5-2.4,0.7-5.2,0.7-8.2l0-0.5l3.5,0.1v0.5c0,2.8-0.2,5.4-0.6,7.8l6.8,10.5L151.7,109.1z M139.6,106.2v1.6
		c1.3-0.2,2.5-0.9,3.5-2.1c1.2-1.4,2.2-3.3,2.9-5.8l0.3-1.1l5.6,8.9l1.2-0.8l-6.5-9.9l0-0.2c0.4-2.3,0.6-4.8,0.6-7.4l-1.5-0.1
		c0,2.9-0.3,5.5-0.7,7.9c-0.5,2.5-1.2,4.6-2.2,6.2C142,104.9,140.9,105.9,139.6,106.2z"/>
</g>
<path class="st4" d="M191.3,250.5H186c-1.2,0-2.4,0.3-3.4,1c-1.1-0.8-2-1.8-1-3c0.4-0.4,0.9-0.7,1.4-0.8h1c2.1,0,3.9-1.7,3.9-3.8
	c0-2.1-1.7-3.9-3.8-3.9c0,0-0.1,0-0.1,0h-18.5c-0.2-0.5-0.3-1-0.3-1.5c-0.4-4.2,4.9-1.9,5.8-5.4c0.1-0.4,0.1-0.8,0.1-1.2
	c0-2.1-1.7-3.8-3.9-3.8c0,0,0,0,0,0h-37c-2.1,0-3.8,1.7-3.8,3.8c0,2.1,1.7,3.8,3.8,3.8c0,0,0,0,0,0h0.3c1.2,0.3,2.4,0.4,3.6,0.3
	c3.9,0,7.7,0.2,11.5,0.4c2.5,0.1,6.8,0.3,8.5,2.4c0.3,0.3,0.5,0.7,0.7,1.1h-7.9c-2.1,0-3.9,1.7-3.9,3.8c0,0.3,0,0.5,0.1,0.7
	c-1,0-2.1,0.1-3.1,0.2c-4.4,0.4-8.9,0.4-13.4,0.4c-2.8,0-5.6,0-8.4,0c-1-0.7-2.2-1.1-3.4-1.1H77.7c-3.2,0-5.9,2.5-5.9,5.8
	c0,3.2,2.5,5.9,5.8,5.9c0.1,0,0.1,0,0.2,0h25.1c0,0.1,0,0.2,0,0.2h-8.4c-3.2,0-5.8,2.6-5.8,5.8c0,3.2,2.6,5.8,5.8,5.8h25.1
	c0,3.2,2.7,5.9,5.9,5.8c0,0,0,0,0,0h37.2c3.2,0,5.9-2.6,5.9-5.8c0,0,0,0,0,0c0-0.3,0-0.6-0.1-0.9c1.6,0.1,3.3,0.1,4.9,0.1h0.3
	c0,0.3-0.1,0.6-0.1,0.9c0,3.5,2.8,6.2,6.3,6.2h11.3L191.3,250.5z"/>
<g transform="translate(7547 2555.693)">
	<path class="st5" d="M-7483.8-2345.7c0.6-1.4,0.9-2.9,1.2-4.4c1.3-0.5,2.8-0.7,4.2-0.7v-0.1l0-5.2v-0.1c-1.4,0.1-2.9-0.1-4.2-0.6
		c-0.2-1.5-0.6-3-1.2-4.4c0.9-1.1,2-2,3.3-2.6l0-0.1l-2.7-4.5l0-0.1c-1.2,0.8-2.6,1.3-4,1.5c-1-1.2-2.1-2.3-3.3-3.2
		c0.2-1.4,0.7-2.7,1.5-3.9l-0.1,0l-4.6-2.6l-0.1,0c-0.6,1.3-1.6,2.4-2.7,3.3c-1.4-0.5-2.9-0.9-4.5-1.2c-0.5-1.3-0.7-2.7-0.7-4.2
		h-5.5c0.1,1.4-0.1,2.8-0.7,4.2c-1.6,0.2-3.1,0.6-4.6,1.2c-1.1-0.9-2-2-2.7-3.3l-0.1,0l-4.6,2.6l-0.1,0c0.8,1.2,1.3,2.5,1.5,3.9
		c-1.2,1-2.3,2.1-3.2,3.2c-1.4-0.2-2.8-0.7-4-1.5l0,0.1l-2.6,4.6l0,0.1c1.3,0.6,2.4,1.5,3.3,2.6c-0.6,1.4-0.9,2.9-1.2,4.4
		c-1.3,0.5-2.8,0.7-4.2,0.7v0.1l0,5.2v0.1c1.4-0.1,2.9,0.1,4.2,0.6c0.2,1.5,0.6,3,1.2,4.4c-0.9,1.1-2,2-3.3,2.6l0,0.1l2.7,4.5l0,0.1
		c1.2-0.8,2.6-1.3,4-1.5c1,1.2,2.1,2.3,3.3,3.2c-0.2,1.4-0.7,2.7-1.5,3.9l0.1,0l4.6,2.6l0.1,0c0.6-1.3,1.6-2.4,2.7-3.3
		c1.4,0.5,2.9,0.9,4.5,1.2c0.5,1.3,0.7,2.7,0.7,4.2h5.5c-0.1-1.4,0.1-2.8,0.7-4.2c1.6-0.2,3.1-0.6,4.6-1.2c1.1,0.9,2,2,2.7,3.3
		l0.1,0l4.6-2.6l0.1,0c-0.8-1.2-1.3-2.5-1.5-3.9c1.2-1,2.3-2.1,3.2-3.2c1.4,0.2,2.8,0.7,4,1.5l0-0.1l2.6-4.6l0-0.1
		C-7481.8-2343.7-7482.9-2344.6-7483.8-2345.7z M-7504.2-2337.6c-8.8-0.1-15.8-7.3-15.7-16s7.3-15.8,16-15.7
		c8.7,0.1,15.7,7.2,15.7,15.9C-7488.2-2344.6-7495.4-2337.5-7504.2-2337.6L-7504.2-2337.6z"/>
	<g transform="translate(10.899 10.787)">
		<path class="st5" d="M-7515.1-2349.5c-8.1-0.1-14.7-6.7-14.6-14.9s6.7-14.7,14.9-14.6c8.1,0.1,14.6,6.7,14.6,14.7
			C-7500.3-2356.1-7506.9-2349.5-7515.1-2349.5z M-7515.1-2375.9c-6.4,0.1-11.6,5.3-11.5,11.7c0.1,6.4,5.3,11.6,11.7,11.5
			c6.4-0.1,11.5-5.2,11.5-11.6C-7503.4-2370.7-7508.7-2375.9-7515.1-2375.9L-7515.1-2375.9z"/>
	</g>
</g>
<g transform="translate(7567.277 2533)">
	<path class="st6" d="M-7457.9-2372.9v-5c0-0.6-0.5-1.1-1.1-1.1s-1.1,0.5-1.1,1.1v5h-4.8v-5c-0.1-0.6-0.6-1.1-1.2-1
		c-0.5,0-0.9,0.5-1,1v5h-4.8v-5c0-0.6-0.5-1.1-1.1-1.1c-0.6,0-1.1,0.5-1.1,1.1c0,0,0,0,0,0v5h-4.8v-5c0-0.6-0.5-1.1-1.1-1.1
		c-0.6,0-1.1,0.5-1.1,1.1c0,0,0,0,0,0v5h-4.8v-5c-0.1-0.6-0.6-1-1.2-1c-0.5,0.1-0.9,0.5-1,1v5h-4.8v-5c-0.1-0.6-0.6-1.1-1.2-1
		c-0.5,0-0.9,0.5-1,1v5h-4.8v-5c0-0.6-0.5-1.1-1.1-1.1c-0.6,0-1.1,0.5-1.1,1.1c0,0,0,0,0,0v5h-4.8v-5c0-0.6-0.5-1.1-1.1-1.1
		c-0.6,0-1.1,0.5-1.1,1.1c0,0,0,0,0,0v5h-4.8v-5c0-0.6-0.5-1.1-1.1-1.1c-0.6,0-1.1,0.5-1.1,1.1c0,0,0,0,0,0v5h-4.8v-5
		c-0.1-0.6-0.6-1.1-1.2-1c-0.5,0-0.9,0.5-1,1v5h-6.9v75.9h78.4v-75.9H-7457.9z"/>
	<g class="st7">
		<rect x="-7530" y="-2372.9" class="st8" width="78.4" height="75.9"/>
		<rect x="-7528.1" y="-2371.1" class="st6" width="74.6" height="72.3"/>
		<path class="st8" d="M-7520.3-2366.3c0,1-0.8,1.7-1.7,1.7s-1.7-0.8-1.7-1.7c0-1,0.8-1.7,1.7-1.7c0,0,0,0,0,0
			C-7521.1-2368-7520.3-2367.2-7520.3-2366.3z"/>
		<path class="st9" d="M-7520.9-2366.5c0,0.6-0.5,1.1-1.1,1.1l0,0c-0.6,0-1.1-0.5-1.1-1.1c0,0,0,0,0,0v-11.4c0-0.6,0.5-1.1,1.1-1.1
			l0,0l0,0c0.6,0,1.1,0.5,1.1,1.1V-2366.5z"/>
		<path class="st8" d="M-7513.3-2366.3c0,1-0.8,1.7-1.7,1.7c-1,0-1.7-0.8-1.7-1.7c0-1,0.8-1.7,1.7-1.7
			C-7514.1-2368-7513.3-2367.2-7513.3-2366.3z"/>
		<path class="st9" d="M-7513.9-2366.5c0,0.6-0.5,1.1-1.1,1.1c0,0,0,0,0,0l0,0c-0.6,0-1.1-0.5-1.1-1.1c0,0,0,0,0,0v-11.4
			c0-0.6,0.5-1.1,1.1-1.1l0,0l0,0c0.6,0,1.1,0.5,1.1,1.1c0,0,0,0,0,0V-2366.5z"/>
		<path class="st8" d="M-7506.3-2366.3c0,1-0.8,1.7-1.7,1.7c-1,0-1.7-0.8-1.7-1.7c0-1,0.8-1.7,1.7-1.7
			C-7507.1-2368-7506.3-2367.2-7506.3-2366.3z"/>
		<path class="st9" d="M-7506.9-2366.5c0,0.6-0.5,1.1-1.1,1.1l0,0c-0.6,0-1.1-0.5-1.1-1.1v-11.4c0-0.6,0.5-1.1,1.1-1.1c0,0,0,0,0,0
			l0,0c0.6,0,1.1,0.5,1.1,1.1V-2366.5z"/>
		<path class="st8" d="M-7499.3-2366.3c0,1-0.8,1.7-1.7,1.7s-1.7-0.8-1.7-1.7c0-1,0.8-1.7,1.7-1.7
			C-7500.1-2368-7499.3-2367.2-7499.3-2366.3z"/>
		<path class="st9" d="M-7499.9-2366.5c0,0.6-0.5,1.1-1.1,1.1l0,0l0,0c-0.6,0-1.1-0.5-1.1-1.1c0,0,0,0,0,0v-11.4
			c0-0.6,0.5-1.1,1.1-1.1c0,0,0,0,0,0l0,0c0.6,0,1.1,0.5,1.1,1.1c0,0,0,0,0,0V-2366.5z"/>
		<path class="st8" d="M-7492.3-2366.3c0,1-0.8,1.7-1.7,1.7c-1,0-1.7-0.8-1.7-1.7c0-1,0.8-1.7,1.7-1.7
			C-7493-2368-7492.3-2367.2-7492.3-2366.3C-7492.3-2366.3-7492.3-2366.3-7492.3-2366.3z"/>
		<path class="st9" d="M-7492.9-2366.5c0,0.6-0.5,1.1-1.1,1.1l0,0l0,0c-0.6,0-1.1-0.5-1.1-1.1v-11.4c0-0.6,0.5-1.1,1.1-1.1l0,0
			c0.6,0,1.1,0.5,1.1,1.1c0,0,0,0,0,0V-2366.5z"/>
		<path class="st8" d="M-7485.3-2366.3c0,1-0.8,1.7-1.7,1.7c-1,0-1.7-0.8-1.7-1.7c0-1,0.8-1.7,1.7-1.7
			C-7486-2368-7485.3-2367.2-7485.3-2366.3z"/>
		<path class="st9" d="M-7485.9-2366.5c0,0.6-0.5,1.1-1.1,1.1l0,0l0,0c-0.6,0-1.1-0.5-1.1-1.1v-11.4c0-0.6,0.5-1.1,1.1-1.1l0,0
			c0.6,0,1.1,0.5,1.1,1.1c0,0,0,0,0,0V-2366.5z"/>
		<path class="st8" d="M-7478.3-2366.3c0,1-0.8,1.7-1.7,1.7c-1,0-1.7-0.8-1.7-1.7s0.8-1.7,1.7-1.7
			C-7479-2368-7478.3-2367.2-7478.3-2366.3C-7478.3-2366.3-7478.3-2366.3-7478.3-2366.3z"/>
		<path class="st9" d="M-7478.9-2366.5c0,0.6-0.5,1.1-1.1,1.1l0,0c-0.6,0-1.1-0.5-1.1-1.1v-11.4c0-0.6,0.5-1.1,1.1-1.1l0,0
			c0.6,0,1.1,0.5,1.1,1.1V-2366.5z"/>
		<path class="st8" d="M-7471.2-2366.3c0,1-0.8,1.7-1.7,1.7c-1,0-1.7-0.8-1.7-1.7c0-1,0.8-1.7,1.7-1.7
			C-7472-2368-7471.2-2367.2-7471.2-2366.3z"/>
		<path class="st9" d="M-7471.9-2366.5c0,0.6-0.5,1.1-1.1,1.1l0,0c-0.6,0-1.1-0.5-1.1-1.1c0,0,0,0,0,0v-11.4c0-0.6,0.5-1.1,1.1-1.1
			l0,0l0,0c0.6,0,1.1,0.5,1.1,1.1c0,0,0,0,0,0V-2366.5z"/>
		<path class="st8" d="M-7464.2-2366.3c0,1-0.8,1.7-1.7,1.7c-1,0-1.7-0.8-1.7-1.7c0-1,0.8-1.7,1.7-1.7
			C-7465-2368-7464.2-2367.2-7464.2-2366.3C-7464.2-2366.3-7464.2-2366.3-7464.2-2366.3z"/>
		<path class="st9" d="M-7464.9-2366.5c0,0.6-0.5,1.1-1.1,1.1l0,0l0,0c-0.6,0-1.1-0.5-1.1-1.1v-11.4c0-0.6,0.5-1.1,1.1-1.1l0,0
			c0.6,0,1.1,0.5,1.1,1.1c0,0,0,0,0,0V-2366.5z"/>
		<path class="st8" d="M-7457.2-2366.3c0,1-0.8,1.7-1.7,1.7s-1.7-0.8-1.7-1.7c0-1,0.8-1.7,1.7-1.7c0,0,0,0,0,0
			C-7458-2368-7457.2-2367.2-7457.2-2366.3z"/>
		<path class="st9" d="M-7457.9-2366.5c0,0.6-0.5,1.1-1.1,1.1c0,0,0,0,0,0l0,0c-0.6,0-1.1-0.5-1.1-1.1v-11.4c0-0.6,0.5-1.1,1.1-1.1
			c0,0,0,0,0,0l0,0c0.6,0,1.1,0.5,1.1,1.1c0,0,0,0,0,0V-2366.5z"/>
		<rect x="-7524.5" y="-2359.4" class="st10" width="68" height="4.8"/>
		<g transform="translate(8.47 27.354)">
			<g transform="translate(40.801)">
				<path class="st11" d="M-7530-2378.4l1.2-0.6h0.1v4.1c0,0.2,0,0.3,0,0.5c0,0.1,0.1,0.1,0.1,0.2c0.1,0,0.3,0.1,0.4,0.1v0.1h-1.8
					v-0.1c0.2,0,0.3,0,0.4-0.1c0.1,0,0.1-0.1,0.1-0.1c0-0.2,0-0.3,0-0.5v-2.6c0-0.2,0-0.5,0-0.7c0-0.1,0-0.1-0.1-0.2
					c0,0-0.1-0.1-0.2-0.1c-0.1,0-0.3,0-0.4,0.1L-7530-2378.4z"/>
				<path class="st11" d="M-7518.9-2375l-0.3,0.9h-2.9v-0.1c0.7-0.6,1.3-1.2,1.8-1.9c0.3-0.4,0.5-0.9,0.5-1.3c0-0.3-0.1-0.6-0.3-0.8
					c-0.2-0.2-0.4-0.3-0.7-0.3c-0.2,0-0.5,0.1-0.6,0.2c-0.2,0.2-0.3,0.4-0.4,0.6h-0.1c0-0.4,0.2-0.7,0.5-1c0.3-0.2,0.6-0.4,0.9-0.4
					c0.4,0,0.7,0.1,1,0.4c0.3,0.2,0.4,0.6,0.4,0.9c0,0.3-0.1,0.5-0.2,0.7c-0.2,0.5-0.5,0.9-0.9,1.2c-0.6,0.7-1,1-1.1,1.2h1.3
					c0.2,0,0.4,0,0.5,0c0.1,0,0.2-0.1,0.3-0.1c0.1-0.1,0.2-0.2,0.2-0.3L-7518.9-2375z"/>
				<path class="st11" d="M-7512.1-2378c0.1-0.3,0.3-0.6,0.5-0.8c0.2-0.2,0.5-0.3,0.8-0.3c0.3,0,0.7,0.1,0.9,0.4
					c0.1,0.2,0.2,0.4,0.2,0.6c-0.1,0.4-0.3,0.8-0.7,1.1c0.3,0.1,0.5,0.3,0.7,0.5c0.2,0.2,0.2,0.5,0.2,0.8c0,0.4-0.1,0.8-0.4,1.1
					c-0.4,0.4-0.9,0.6-1.5,0.6c-0.2,0-0.5,0-0.7-0.1c-0.1-0.1-0.2-0.2-0.2-0.3c0-0.1,0-0.1,0.1-0.2c0.1-0.1,0.1-0.1,0.2-0.1
					c0.1,0,0.1,0,0.2,0c0.1,0,0.2,0.1,0.3,0.1c0.1,0.1,0.2,0.1,0.3,0.1c0.1,0,0.2,0,0.3,0c0.2,0,0.5-0.1,0.6-0.3
					c0.2-0.2,0.3-0.4,0.3-0.7c0-0.2,0-0.4-0.1-0.6c0-0.1-0.1-0.2-0.2-0.3c-0.1-0.1-0.3-0.2-0.4-0.3c-0.2-0.1-0.4-0.1-0.5-0.1h-0.1
					v-0.1c0.2,0,0.4-0.1,0.6-0.2c0.3-0.2,0.6-0.5,0.5-0.9c0-0.2-0.1-0.4-0.2-0.6c-0.2-0.1-0.4-0.2-0.6-0.2c-0.4,0-0.8,0.2-0.9,0.6
					L-7512.1-2378z"/>
			</g>
			<path class="st10" d="M-7526.2-2364.9v0.5h-0.7v1.3h-0.6v-1.3h-2.1v-0.5l2.3-3.2h0.4v3.2H-7526.2z M-7527.5-2364.9v-2.4l-1.7,2.4
				H-7527.5z"/>
			<path class="st11" d="M-7517.2-2368l-0.3,0.6h-1.5l-0.3,0.7c0.6,0.1,1.1,0.3,1.5,0.7c0.3,0.3,0.5,0.7,0.5,1.1
				c0,0.2-0.1,0.5-0.2,0.7c-0.1,0.2-0.2,0.4-0.4,0.6c-0.2,0.2-0.3,0.3-0.5,0.4c-0.3,0.1-0.6,0.2-0.8,0.2c-0.2,0-0.4,0-0.6-0.1
				c-0.1-0.1-0.2-0.2-0.2-0.3c0-0.1,0-0.1,0.1-0.2c0.1-0.1,0.1-0.1,0.2-0.1c0.1,0,0.1,0,0.2,0c0.1,0,0.2,0.1,0.2,0.1
				c0.2,0.1,0.3,0.2,0.5,0.2c0.3,0,0.5-0.1,0.7-0.3c0.2-0.2,0.3-0.5,0.3-0.8c0-0.3-0.1-0.6-0.3-0.8c-0.2-0.3-0.5-0.5-0.8-0.6
				c-0.3-0.1-0.7-0.2-1.1-0.2l0.9-1.9L-7517.2-2368z"/>
			<path class="st11" d="M-7508-2368.1v0.1c-0.3,0-0.5,0.1-0.8,0.2c-0.2,0.1-0.4,0.3-0.6,0.4c-0.2,0.2-0.4,0.4-0.5,0.6
				c-0.1,0.3-0.2,0.6-0.3,0.8c0.3-0.2,0.7-0.3,1-0.4c0.3,0,0.6,0.1,0.9,0.4c0.3,0.3,0.4,0.7,0.4,1c0,0.4-0.1,0.8-0.4,1.1
				c-0.3,0.4-0.7,0.6-1.2,0.6c-0.3,0-0.6-0.1-0.8-0.3c-0.5-0.4-0.7-1-0.7-1.7c0-0.4,0.1-0.9,0.3-1.2c0.2-0.4,0.4-0.8,0.7-1
				c0.3-0.3,0.6-0.5,0.9-0.6c0.3-0.1,0.5-0.2,0.8-0.2L-7508-2368.1z M-7510.2-2365.6c0,0.3-0.1,0.5-0.1,0.8c0,0.3,0,0.5,0.1,0.7
				c0.1,0.2,0.2,0.5,0.4,0.6c0.1,0.1,0.3,0.2,0.4,0.2c0.2,0,0.4-0.1,0.6-0.3c0.2-0.2,0.3-0.5,0.2-0.8c0-0.4-0.1-0.7-0.2-1.1
				c-0.1-0.3-0.4-0.4-0.7-0.4c-0.1,0-0.2,0-0.3,0.1C-7509.9-2365.8-7510-2365.7-7510.2-2365.6L-7510.2-2365.6z"/>
			<path class="st11" d="M-7500.7-2368h2.6v0.1l-1.6,4.8h-0.4l1.5-4.4h-1.3c-0.2,0-0.4,0-0.6,0.1c-0.2,0.1-0.4,0.3-0.5,0.5l-0.1,0
				L-7500.7-2368z"/>
			<path class="st11" d="M-7490.8-2365.6c-0.3-0.2-0.5-0.5-0.7-0.8c-0.1-0.2-0.2-0.4-0.2-0.6c0-0.3,0.1-0.6,0.4-0.8
				c0.3-0.2,0.6-0.4,1-0.3c0.3,0,0.7,0.1,0.9,0.3c0.2,0.2,0.4,0.4,0.4,0.7c0,0.2-0.1,0.4-0.2,0.6c-0.2,0.3-0.5,0.5-0.8,0.7
				c0.3,0.2,0.6,0.5,0.8,0.8c0.2,0.2,0.3,0.5,0.3,0.8c0,0.3-0.1,0.7-0.4,0.9c-0.3,0.3-0.6,0.4-1,0.4c-0.4,0-0.8-0.1-1.1-0.4
				c-0.4-0.4-0.4-1-0.1-1.4C-7491.4-2365.2-7491.1-2365.4-7490.8-2365.6z M-7490.7-2365.5c-0.2,0.1-0.3,0.3-0.4,0.5
				c-0.1,0.2-0.1,0.4-0.1,0.6c0,0.3,0.1,0.5,0.3,0.7c0.2,0.2,0.4,0.3,0.6,0.3c0.2,0,0.5-0.1,0.6-0.2c0.2-0.1,0.2-0.3,0.2-0.5
				c0-0.2,0-0.3-0.1-0.5C-7489.9-2364.8-7490.3-2365.2-7490.7-2365.5z M-7490.3-2366c0.2-0.2,0.4-0.4,0.5-0.6
				c0.1-0.2,0.1-0.3,0.1-0.5c0-0.2-0.1-0.4-0.2-0.6c-0.2-0.1-0.4-0.2-0.6-0.2c-0.2,0-0.4,0.1-0.6,0.2c-0.1,0.1-0.2,0.3-0.2,0.5
				c0,0.1,0,0.3,0.1,0.4c0.1,0.1,0.2,0.3,0.3,0.4L-7490.3-2366z"/>
			<path class="st11" d="M-7482.7-2363v-0.1c0.3,0,0.6-0.1,0.9-0.2c0.3-0.2,0.6-0.4,0.8-0.7c0.2-0.3,0.4-0.7,0.5-1.2
				c-0.3,0.2-0.7,0.3-1,0.4c-0.3,0-0.7-0.1-0.9-0.4c-0.3-0.3-0.4-0.7-0.4-1.1c0-0.4,0.1-0.8,0.4-1.1c0.3-0.4,0.7-0.6,1.2-0.6
				c0.4,0,0.8,0.2,1,0.5c0.4,0.4,0.5,1,0.5,1.5c0,0.5-0.1,1.1-0.4,1.5c-0.3,0.5-0.7,0.9-1.1,1.2c-0.4,0.2-0.8,0.4-1.3,0.4
				L-7482.7-2363z M-7480.4-2365.5c0-0.2,0.1-0.5,0.1-0.7c0-0.3,0-0.5-0.1-0.8c-0.1-0.2-0.2-0.4-0.3-0.6c-0.1-0.1-0.3-0.2-0.5-0.2
				c-0.2,0-0.4,0.1-0.6,0.3c-0.2,0.2-0.3,0.6-0.2,0.9c0,0.4,0.1,0.8,0.3,1.2c0.1,0.2,0.3,0.3,0.6,0.3c0.1,0,0.3,0,0.4-0.1
				C-7480.7-2365.4-7480.6-2365.4-7480.4-2365.5L-7480.4-2365.5z"/>
			<path class="st11" d="M-7474.8-2367.5l1.2-0.6h0.1v4.1c0,0.2,0,0.3,0,0.5c0,0.1,0.1,0.1,0.1,0.2c0.1,0,0.3,0.1,0.4,0.1v0.1h-1.8
				v-0.1c0.2,0,0.3,0,0.4-0.1c0.1,0,0.1-0.1,0.1-0.1c0-0.2,0.1-0.3,0-0.5v-2.6c0-0.2,0-0.5,0-0.7c0-0.1,0-0.1-0.1-0.2
				c0,0-0.1-0.1-0.2-0.1c-0.1,0-0.3,0-0.4,0.1L-7474.8-2367.5z"/>
			<path class="st11" d="M-7471.8-2365.6c0-0.5,0.1-1,0.3-1.4c0.1-0.4,0.4-0.7,0.7-0.9c0.2-0.1,0.4-0.2,0.7-0.2c0.4,0,0.8,0.2,1,0.6
				c0.4,0.6,0.6,1.2,0.6,1.9c0,0.5-0.1,1-0.2,1.4c-0.1,0.3-0.3,0.6-0.6,0.9c-0.2,0.2-0.5,0.3-0.7,0.3c-0.5,0-1-0.3-1.2-0.8
				C-7471.6-2364.4-7471.8-2365-7471.8-2365.6z M-7471.1-2365.5c0,0.6,0.1,1.1,0.2,1.6c0.1,0.4,0.3,0.5,0.6,0.5
				c0.1,0,0.3-0.1,0.4-0.2c0.2-0.2,0.3-0.4,0.3-0.6c0.1-0.6,0.2-1.2,0.2-1.7c0-0.5,0-0.9-0.2-1.4c-0.1-0.2-0.2-0.4-0.3-0.6
				c-0.1-0.1-0.2-0.1-0.4-0.1c-0.2,0-0.3,0.1-0.4,0.2c-0.2,0.3-0.3,0.6-0.4,0.9C-7471-2366.3-7471.1-2365.9-7471.1-2365.5
				L-7471.1-2365.5z"/>
			<path class="st10" d="M-7529.7-2356.5l1.2-0.6h0.1v4.1c0,0.2,0,0.3,0,0.5c0,0.1,0.1,0.1,0.1,0.2c0.1,0,0.3,0.1,0.4,0.1v0.1h-1.8
				v-0.1c0.2,0,0.3,0,0.4-0.1c0.1,0,0.1-0.1,0.1-0.1c0-0.2,0.1-0.3,0-0.5v-2.6c0-0.2,0-0.5,0-0.7c0-0.1,0-0.1-0.1-0.2
				c0,0-0.1-0.1-0.2-0.1c-0.1,0-0.3,0.1-0.4,0.1L-7529.7-2356.5z"/>
			<path class="st10" d="M-7526.3-2356.5l1.2-0.6h0.1v4.1c0,0.2,0,0.3,0,0.5c0,0.1,0.1,0.1,0.1,0.2c0.1,0,0.3,0.1,0.4,0.1v0.1h-1.8
				v-0.1c0.2,0,0.3,0,0.4-0.1c0.1,0,0.1-0.1,0.1-0.1c0-0.2,0.1-0.3,0-0.5v-2.6c0-0.2,0-0.5,0-0.7c0-0.1,0-0.1-0.1-0.2
				c0,0-0.1-0.1-0.2-0.1c-0.1,0-0.3,0.1-0.4,0.1L-7526.3-2356.5z"/>
			<path class="st11" d="M-7520.7-2356.5l1.2-0.6h0.1v4.1c0,0.2,0,0.3,0,0.5c0,0.1,0.1,0.1,0.1,0.2c0.1,0,0.3,0.1,0.4,0.1v0.1h-1.8
				v-0.1c0.2,0,0.3,0,0.4-0.1c0.1,0,0.1-0.1,0.1-0.1c0-0.2,0-0.3,0-0.5v-2.6c0-0.2,0-0.5,0-0.7c0-0.1,0-0.1-0.1-0.2
				c0,0-0.1-0.1-0.2-0.1c-0.1,0-0.3,0.1-0.4,0.1L-7520.7-2356.5z"/>
			<path class="st11" d="M-7514.6-2353l-0.3,0.9h-2.9v-0.1c0.7-0.6,1.3-1.2,1.8-1.9c0.3-0.4,0.5-0.9,0.5-1.3c0-0.3-0.1-0.6-0.3-0.8
				c-0.2-0.2-0.4-0.3-0.7-0.3c-0.2,0-0.5,0.1-0.6,0.2c-0.2,0.2-0.3,0.4-0.4,0.6h-0.1c0-0.4,0.2-0.7,0.5-1c0.2-0.2,0.6-0.4,0.9-0.4
				c0.4,0,0.7,0.1,1,0.4c0.3,0.2,0.4,0.6,0.4,0.9c0,0.3-0.1,0.5-0.2,0.7c-0.2,0.5-0.5,0.9-0.9,1.2c-0.6,0.7-1,1-1.1,1.2h1.3
				c0.2,0,0.4,0,0.5,0c0.1,0,0.2-0.1,0.3-0.1c0.1-0.1,0.2-0.2,0.2-0.2H-7514.6z"/>
			<path class="st11" d="M-7511.5-2356.5l1.2-0.6h0.1v4.1c0,0.2,0,0.3,0,0.5c0,0.1,0.1,0.1,0.1,0.2c0.1,0,0.3,0.1,0.4,0.1v0.1h-1.8
				v-0.1c0.2,0,0.3,0,0.4-0.1c0.1,0,0.1-0.1,0.1-0.1c0-0.2,0.1-0.3,0-0.5v-2.6c0-0.2,0-0.5,0-0.7c0-0.1,0-0.1-0.1-0.2
				c0,0-0.1-0.1-0.2-0.1c-0.1,0-0.3,0.1-0.4,0.1L-7511.5-2356.5z"/>
			<path class="st11" d="M-7508.4-2356.1c0.1-0.3,0.3-0.6,0.5-0.8c0.2-0.2,0.5-0.3,0.8-0.3c0.3,0,0.7,0.1,0.9,0.4
				c0.1,0.2,0.2,0.4,0.2,0.6c-0.1,0.4-0.3,0.8-0.7,1.1c0.3,0.1,0.5,0.3,0.7,0.5c0.2,0.2,0.2,0.5,0.2,0.8c0,0.4-0.1,0.8-0.4,1.1
				c-0.4,0.4-0.9,0.6-1.5,0.6c-0.2,0-0.5,0-0.7-0.1c-0.1-0.1-0.2-0.2-0.2-0.3c0-0.1,0-0.1,0.1-0.2c0.1-0.1,0.1-0.1,0.2-0.1
				c0.1,0,0.1,0,0.2,0c0.1,0,0.2,0.1,0.3,0.1c0.1,0.1,0.2,0.1,0.3,0.1c0.1,0,0.2,0,0.3,0c0.2,0,0.5-0.1,0.6-0.3
				c0.2-0.2,0.3-0.4,0.3-0.7c0-0.2,0-0.4-0.1-0.6c0-0.1-0.1-0.2-0.2-0.3c-0.1-0.1-0.3-0.2-0.4-0.3c-0.2-0.1-0.4-0.1-0.5-0.1h-0.1
				v-0.1c0.2,0,0.4-0.1,0.6-0.2c0.3-0.2,0.6-0.5,0.5-0.9c0-0.2-0.1-0.4-0.2-0.6c-0.2-0.2-0.4-0.2-0.6-0.2c-0.4,0-0.8,0.2-0.9,0.6
				L-7508.4-2356.1z"/>
			<path class="st11" d="M-7502.4-2356.5l1.2-0.6h0.1v4.1c0,0.2,0,0.3,0,0.5c0,0.1,0.1,0.1,0.1,0.2c0.1,0,0.3,0.1,0.4,0.1v0.1h-1.8
				v-0.1c0.2,0,0.3,0,0.4-0.1c0.1,0,0.1-0.1,0.1-0.1c0-0.2,0.1-0.3,0-0.5v-2.6c0-0.2,0-0.5,0-0.7c0-0.1,0-0.1-0.1-0.2
				c0,0-0.1-0.1-0.2-0.1c-0.1,0-0.3,0.1-0.4,0.1L-7502.4-2356.5z"/>
			<path class="st11" d="M-7496.1-2353.9v0.5h-0.7v1.3h-0.6v-1.3h-2.1v-0.5l2.3-3.2h0.4v3.2H-7496.1z M-7497.4-2353.9v-2.4l-1.7,2.4
				H-7497.4z"/>
			<path class="st11" d="M-7493.2-2356.5l1.2-0.6h0.1v4.1c0,0.2,0,0.3,0,0.5c0,0.1,0.1,0.1,0.1,0.2c0.1,0,0.3,0.1,0.4,0.1v0.1h-1.8
				v-0.1c0.2,0,0.3,0,0.4-0.1c0.1,0,0.1-0.1,0.1-0.1c0-0.2,0.1-0.3,0-0.5v-2.6c0-0.2,0-0.5,0-0.7c0-0.1,0-0.1-0.1-0.2
				c0,0-0.1-0.1-0.2-0.1c-0.1,0-0.3,0.1-0.4,0.1L-7493.2-2356.5z"/>
			<path class="st11" d="M-7487.2-2357l-0.3,0.6h-1.5l-0.3,0.7c0.6,0.1,1.1,0.3,1.5,0.7c0.3,0.3,0.5,0.7,0.5,1.1
				c0,0.2-0.1,0.5-0.2,0.7c-0.1,0.2-0.2,0.4-0.4,0.6c-0.2,0.2-0.3,0.3-0.5,0.4c-0.3,0.1-0.6,0.2-0.8,0.2c-0.2,0-0.4,0-0.6-0.1
				c-0.1-0.1-0.2-0.2-0.2-0.3c0-0.1,0-0.1,0.1-0.2c0.1-0.1,0.1-0.1,0.2-0.1c0.1,0,0.1,0,0.2,0c0.1,0,0.2,0.1,0.2,0.1
				c0.2,0.1,0.3,0.2,0.5,0.2c0.3,0,0.5-0.1,0.7-0.3c0.2-0.2,0.3-0.5,0.3-0.8c0-0.3-0.1-0.6-0.3-0.8c-0.2-0.3-0.5-0.5-0.8-0.6
				c-0.3-0.1-0.7-0.2-1.1-0.2l0.9-1.9L-7487.2-2357z"/>
			<path class="st11" d="M-7484-2356.5l1.2-0.6h0.1v4.1c0,0.2,0,0.3,0,0.5c0,0.1,0.1,0.1,0.1,0.2c0.1,0,0.3,0.1,0.4,0.1v0.1h-1.8
				v-0.1c0.2,0,0.3,0,0.4-0.1c0.1,0,0.1-0.1,0.1-0.1c0-0.2,0.1-0.3,0-0.5v-2.6c0-0.2,0-0.5,0-0.7c0-0.1,0-0.1-0.1-0.2
				c0,0-0.1-0.1-0.2-0.1c-0.1,0-0.3,0-0.4,0.1L-7484-2356.5z"/>
			<path class="st11" d="M-7477.9-2357.1v0.1c-0.3,0-0.5,0.1-0.8,0.2c-0.2,0.1-0.4,0.3-0.6,0.4c-0.2,0.2-0.4,0.4-0.5,0.6
				c-0.1,0.3-0.2,0.6-0.3,0.8c0.3-0.2,0.7-0.3,1-0.4c0.3,0,0.6,0.1,0.9,0.4c0.3,0.3,0.4,0.7,0.4,1c0,0.4-0.1,0.8-0.4,1.1
				c-0.3,0.4-0.7,0.6-1.2,0.6c-0.3,0-0.6-0.1-0.8-0.3c-0.5-0.4-0.7-1-0.7-1.7c0-0.4,0.1-0.9,0.3-1.2c0.2-0.4,0.4-0.8,0.7-1
				c0.3-0.3,0.6-0.5,0.9-0.6c0.3-0.1,0.5-0.2,0.8-0.2L-7477.9-2357.1z M-7480.1-2354.6c0,0.3-0.1,0.5-0.1,0.8c0,0.3,0,0.5,0.1,0.7
				c0.1,0.2,0.2,0.5,0.4,0.6c0.1,0.1,0.3,0.2,0.4,0.2c0.2,0,0.4-0.1,0.6-0.3c0.2-0.2,0.3-0.5,0.2-0.8c0-0.4-0.1-0.7-0.2-1.1
				c-0.1-0.3-0.4-0.4-0.7-0.4c-0.1,0-0.2,0-0.3,0.1C-7479.8-2354.7-7479.9-2354.7-7480.1-2354.6L-7480.1-2354.6z"/>
			<path class="st11" d="M-7474.8-2356.5l1.2-0.6h0.1v4.1c0,0.2,0,0.3,0,0.5c0,0.1,0.1,0.1,0.1,0.2c0.1,0,0.3,0.1,0.4,0.1v0.1h-1.8
				v-0.1c0.2,0,0.3,0,0.4-0.1c0.1,0,0.1-0.1,0.1-0.1c0-0.2,0.1-0.3,0-0.5v-2.6c0-0.2,0-0.5,0-0.7c0-0.1,0-0.1-0.1-0.2
				c0,0-0.1-0.1-0.2-0.1c-0.1,0-0.3,0.1-0.4,0.1L-7474.8-2356.5z"/>
			<path class="st11" d="M-7471.2-2357h2.6v0.1l-1.6,4.8h-0.4l1.5-4.4h-1.3c-0.2,0-0.4,0-0.6,0.1c-0.2,0.1-0.4,0.3-0.5,0.5l-0.1,0
				L-7471.2-2357z"/>
			<path class="st10" d="M-7530-2345.6l1.2-0.6h0.1v4.1c0,0.2,0,0.3,0,0.5c0,0.1,0.1,0.1,0.1,0.2c0.1,0,0.3,0.1,0.4,0.1v0.1h-1.8
				v-0.1c0.2,0,0.3,0,0.4-0.1c0.1,0,0.1-0.1,0.1-0.1c0-0.2,0.1-0.3,0-0.5v-2.6c0-0.2,0-0.5,0-0.7c0-0.1,0-0.1-0.1-0.2
				c0,0-0.1-0.1-0.2-0.1c-0.1,0-0.3,0.1-0.4,0.1L-7530-2345.6z"/>
			<path class="st10" d="M-7525.8-2343.7c-0.3-0.2-0.5-0.5-0.7-0.8c-0.1-0.2-0.2-0.4-0.2-0.6c0-0.3,0.1-0.6,0.4-0.8
				c0.6-0.4,1.4-0.5,1.9,0c0.2,0.2,0.4,0.4,0.4,0.7c0,0.2-0.1,0.4-0.2,0.6c-0.2,0.3-0.5,0.5-0.8,0.7c0.3,0.2,0.6,0.5,0.8,0.8
				c0.2,0.2,0.3,0.5,0.3,0.8c0,0.3-0.1,0.7-0.4,0.9c-0.3,0.3-0.7,0.4-1,0.4c-0.4,0-0.8-0.1-1.1-0.4c-0.2-0.2-0.3-0.5-0.3-0.8
				c0-0.2,0.1-0.5,0.2-0.6C-7526.3-2343.3-7526.1-2343.5-7525.8-2343.7z M-7525.6-2343.5c-0.2,0.1-0.3,0.3-0.4,0.5
				c-0.1,0.2-0.1,0.4-0.1,0.6c0,0.3,0.1,0.5,0.3,0.7c0.2,0.2,0.4,0.3,0.6,0.3c0.2,0,0.5-0.1,0.6-0.2c0.2-0.1,0.2-0.3,0.2-0.5
				c0-0.2,0-0.3-0.1-0.5C-7524.9-2342.9-7525.2-2343.3-7525.6-2343.5L-7525.6-2343.5z M-7525.2-2344.1c0.2-0.2,0.4-0.4,0.5-0.6
				c0.1-0.2,0.1-0.3,0.1-0.5c0-0.2-0.1-0.4-0.2-0.6c-0.2-0.1-0.4-0.2-0.6-0.2c-0.2,0-0.4,0.1-0.6,0.2c-0.1,0.1-0.2,0.3-0.2,0.5
				c0,0.1,0,0.3,0.1,0.4c0.1,0.1,0.2,0.3,0.3,0.4L-7525.2-2344.1z"/>
			<path class="st11" d="M-7520.8-2345.6l1.2-0.6h0.1v4.1c0,0.2,0,0.3,0,0.5c0,0.1,0.1,0.1,0.1,0.2c0.1,0,0.3,0.1,0.4,0.1v0.1h-1.8
				v-0.1c0.2,0,0.3,0,0.4-0.1c0.1,0,0.1-0.1,0.1-0.1c0-0.2,0.1-0.3,0-0.5v-2.6c0-0.2,0-0.5,0-0.7c0-0.1,0-0.1-0.1-0.2
				c0,0-0.1-0.1-0.2-0.1c-0.1,0-0.3,0-0.4,0.1L-7520.8-2345.6z"/>
			<path class="st11" d="M-7517.6-2341.1v-0.1c0.3,0,0.6-0.1,0.9-0.2c0.3-0.2,0.6-0.4,0.8-0.7c0.2-0.3,0.4-0.7,0.5-1.2
				c-0.3,0.2-0.7,0.3-1,0.4c-0.3,0-0.7-0.1-0.9-0.4c-0.3-0.3-0.4-0.7-0.4-1.1c0-0.4,0.1-0.8,0.4-1.1c0.3-0.4,0.7-0.6,1.2-0.6
				c0.4,0,0.8,0.2,1,0.5c0.4,0.4,0.5,1,0.5,1.5c0,0.5-0.1,1.1-0.4,1.5c-0.3,0.5-0.7,0.9-1.1,1.2c-0.4,0.2-0.8,0.4-1.3,0.4
				L-7517.6-2341.1z M-7515.4-2343.6c0-0.2,0.1-0.5,0.1-0.7c0-0.3,0-0.5-0.1-0.8c-0.1-0.2-0.2-0.4-0.3-0.6c-0.1-0.1-0.3-0.2-0.5-0.2
				c-0.2,0-0.4,0.1-0.6,0.3c-0.2,0.2-0.3,0.6-0.2,0.9c0,0.4,0.1,0.8,0.3,1.2c0.1,0.2,0.3,0.3,0.6,0.3c0.1,0,0.3,0,0.4-0.1
				C-7515.6-2343.5-7515.5-2343.5-7515.4-2343.6L-7515.4-2343.6z"/>
			<path class="st11" d="M-7509.1-2342.2l-0.3,0.9h-2.9v-0.1c0.7-0.6,1.3-1.2,1.8-1.9c0.3-0.4,0.5-0.9,0.5-1.3
				c0-0.3-0.1-0.6-0.3-0.8c-0.2-0.2-0.4-0.3-0.7-0.3c-0.2,0-0.5,0.1-0.6,0.2c-0.2,0.2-0.3,0.4-0.4,0.6h-0.1c0-0.4,0.2-0.7,0.5-1
				c0.2-0.2,0.6-0.4,0.9-0.4c0.4,0,0.7,0.1,1,0.4c0.3,0.2,0.4,0.6,0.4,0.9c0,0.3-0.1,0.5-0.2,0.7c-0.2,0.5-0.5,0.9-0.9,1.2
				c-0.6,0.7-1,1-1.1,1.2h1.3c0.2,0,0.4,0,0.5,0c0.1,0,0.2-0.1,0.3-0.1c0.1-0.1,0.2-0.2,0.2-0.2L-7509.1-2342.2z"/>
			<path class="st11" d="M-7508.5-2343.6c0-0.5,0.1-1,0.3-1.4c0.1-0.4,0.4-0.7,0.7-0.9c0.2-0.1,0.4-0.2,0.7-0.2c0.4,0,0.8,0.2,1,0.6
				c0.4,0.6,0.6,1.2,0.6,1.9c0,0.5-0.1,1-0.2,1.4c-0.1,0.3-0.3,0.6-0.6,0.9c-0.2,0.2-0.5,0.3-0.7,0.3c-0.5,0-1-0.3-1.2-0.8
				C-7508.4-2342.5-7508.6-2343.1-7508.5-2343.6z M-7507.8-2343.5c0,0.6,0.1,1.1,0.2,1.6c0.1,0.4,0.3,0.5,0.6,0.5
				c0.1,0,0.3-0.1,0.4-0.2c0.2-0.2,0.3-0.4,0.3-0.6c0.1-0.6,0.2-1.2,0.2-1.7c0-0.5,0-0.9-0.2-1.4c-0.1-0.2-0.2-0.4-0.3-0.6
				c-0.1-0.1-0.2-0.1-0.4-0.1c-0.2,0-0.3,0.1-0.4,0.2c-0.2,0.3-0.3,0.6-0.4,0.9C-7507.8-2344.4-7507.8-2344-7507.8-2343.5
				L-7507.8-2343.5z"/>
			<path class="st11" d="M-7499.9-2342.2l-0.3,0.9h-2.9v-0.1c0.7-0.6,1.3-1.2,1.8-1.9c0.3-0.4,0.5-0.9,0.5-1.3
				c0-0.3-0.1-0.6-0.3-0.8c-0.2-0.2-0.4-0.3-0.7-0.3c-0.2,0-0.5,0.1-0.6,0.2c-0.2,0.2-0.3,0.4-0.4,0.6h-0.1c0-0.4,0.2-0.7,0.5-1
				c0.2-0.2,0.6-0.4,0.9-0.4c0.4,0,0.7,0.1,1,0.4c0.3,0.2,0.4,0.6,0.4,0.9c0,0.3-0.1,0.5-0.2,0.7c-0.2,0.5-0.5,0.9-0.9,1.2
				c-0.6,0.7-1,1-1.1,1.2h1.3c0.2,0,0.4,0,0.5,0c0.1,0,0.2-0.1,0.3-0.1c0.1-0.1,0.2-0.2,0.2-0.2L-7499.9-2342.2z"/>
			<path class="st11" d="M-7498.7-2345.6l1.2-0.6h0.1v4.1c0,0.2,0,0.3,0,0.5c0,0.1,0.1,0.1,0.1,0.2c0.1,0,0.3,0.1,0.4,0.1v0.1h-1.8
				v-0.1c0.2,0,0.3,0,0.4-0.1c0.1,0,0.1-0.1,0.1-0.1c0-0.2,0.1-0.3,0-0.5v-2.6c0-0.2,0-0.5,0-0.7c0-0.1,0-0.1-0.1-0.2
				c0,0-0.1-0.1-0.2-0.1c-0.1,0-0.3,0-0.4,0.1L-7498.7-2345.6z"/>
			<path class="st11" d="M-7490.7-2342.2l-0.3,0.9h-2.9v-0.1c0.7-0.6,1.3-1.2,1.8-1.9c0.3-0.4,0.5-0.9,0.5-1.3
				c0-0.3-0.1-0.6-0.3-0.8c-0.2-0.2-0.4-0.3-0.7-0.3c-0.2,0-0.5,0.1-0.6,0.2c-0.2,0.2-0.3,0.4-0.4,0.6h-0.1c0-0.4,0.2-0.7,0.5-1
				c0.2-0.2,0.6-0.4,0.9-0.4c0.4,0,0.7,0.1,1,0.4c0.3,0.2,0.4,0.6,0.4,0.9c0,0.3-0.1,0.5-0.2,0.7c-0.2,0.5-0.5,0.9-0.9,1.2
				c-0.6,0.7-1,1-1.1,1.2h1.3c0.2,0,0.4,0,0.5,0c0.1,0,0.2-0.1,0.3-0.1c0.1-0.1,0.2-0.2,0.2-0.2L-7490.7-2342.2z"/>
			<path class="st11" d="M-7487-2342.2l-0.3,0.9h-2.9v-0.1c0.7-0.6,1.3-1.2,1.8-1.9c0.3-0.4,0.5-0.9,0.5-1.3c0-0.3-0.1-0.6-0.3-0.8
				c-0.2-0.2-0.4-0.3-0.7-0.3c-0.2,0-0.5,0.1-0.6,0.2c-0.2,0.2-0.3,0.4-0.4,0.6h-0.1c0-0.4,0.2-0.7,0.5-1c0.2-0.2,0.6-0.4,0.9-0.4
				c0.4,0,0.7,0.1,1,0.4c0.3,0.2,0.4,0.6,0.4,0.9c0,0.3-0.1,0.5-0.2,0.7c-0.2,0.5-0.5,0.9-0.9,1.2c-0.6,0.7-1,1-1.1,1.2h1.3
				c0.2,0,0.4,0,0.5,0c0.1,0,0.2-0.1,0.3-0.1c0.1-0.1,0.2-0.2,0.2-0.2L-7487-2342.2z"/>
			<path class="st11" d="M-7481.5-2342.2l-0.3,0.9h-2.9v-0.1c0.7-0.6,1.3-1.2,1.8-1.9c0.3-0.4,0.5-0.9,0.5-1.3
				c0-0.3-0.1-0.6-0.3-0.8c-0.2-0.2-0.4-0.3-0.7-0.3c-0.2,0-0.5,0.1-0.6,0.2c-0.2,0.2-0.3,0.4-0.4,0.6h-0.1c0-0.4,0.2-0.7,0.5-1
				c0.2-0.2,0.6-0.4,0.9-0.4c0.4,0,0.7,0.1,1,0.4c0.3,0.2,0.4,0.6,0.4,0.9c0,0.3-0.1,0.5-0.2,0.7c-0.2,0.5-0.5,0.9-0.9,1.2
				c-0.6,0.7-1,1-1.1,1.2h1.3c0.2,0,0.4,0,0.5,0c0.1,0,0.2-0.1,0.3-0.1c0.1-0.1,0.2-0.2,0.2-0.2L-7481.5-2342.2z"/>
			<path class="st11" d="M-7480.9-2345.2c0.1-0.3,0.3-0.6,0.5-0.8c0.2-0.2,0.5-0.3,0.8-0.3c0.3,0,0.7,0.1,0.9,0.4
				c0.2,0.2,0.2,0.4,0.2,0.6c-0.1,0.4-0.3,0.8-0.7,1.1c0.3,0.1,0.5,0.3,0.7,0.5c0.2,0.2,0.2,0.5,0.2,0.8c0,0.4-0.1,0.8-0.4,1.1
				c-0.4,0.4-0.9,0.6-1.5,0.6c-0.2,0-0.5,0-0.7-0.1c-0.1-0.1-0.2-0.2-0.2-0.3c0-0.1,0-0.1,0.1-0.2c0.1-0.1,0.1-0.1,0.2-0.1
				c0.1,0,0.1,0,0.2,0c0.1,0,0.2,0.1,0.3,0.1c0.1,0.1,0.2,0.1,0.3,0.1c0.1,0,0.2,0,0.3,0c0.2,0,0.5-0.1,0.6-0.3
				c0.2-0.2,0.3-0.4,0.3-0.7c0-0.2,0-0.4-0.1-0.6c0-0.1-0.1-0.2-0.2-0.3c-0.1-0.1-0.3-0.2-0.4-0.3c-0.2-0.1-0.4-0.1-0.5-0.1h-0.1
				v-0.1c0.2,0,0.4-0.1,0.6-0.2c0.2-0.1,0.3-0.2,0.4-0.4c0.1-0.2,0.1-0.3,0.1-0.5c0-0.2-0.1-0.4-0.2-0.6c-0.2-0.2-0.4-0.2-0.6-0.2
				c-0.4,0-0.8,0.2-0.9,0.6L-7480.9-2345.2z"/>
			<path class="st11" d="M-7472.3-2342.2l-0.3,0.9h-2.9v-0.1c0.7-0.6,1.3-1.2,1.8-1.9c0.3-0.4,0.5-0.9,0.5-1.3
				c0-0.3-0.1-0.6-0.3-0.8c-0.2-0.2-0.4-0.3-0.7-0.3c-0.2,0-0.5,0.1-0.6,0.2c-0.2,0.2-0.3,0.4-0.4,0.6h-0.1c0-0.4,0.2-0.7,0.5-1
				c0.2-0.2,0.6-0.4,0.9-0.4c0.4,0,0.7,0.1,1,0.4c0.3,0.2,0.4,0.6,0.4,0.9c0,0.3-0.1,0.5-0.2,0.7c-0.2,0.5-0.5,0.9-0.9,1.2
				c-0.6,0.7-1,1-1.1,1.2h1.3c0.2,0,0.4,0,0.5,0c0.1,0,0.2-0.1,0.3-0.1c0.1-0.1,0.2-0.2,0.2-0.2L-7472.3-2342.2z"/>
			<path class="st11" d="M-7468.6-2343v0.5h-0.7v1.3h-0.6v-1.3h-2.1v-0.5l2.3-3.2h0.4v3.2H-7468.6z M-7469.9-2343v-2.4l-1.7,2.4
				H-7469.9z"/>
			<path class="st10" d="M-7526.8-2331.4l-0.3,0.9h-2.9v-0.1c0.7-0.6,1.3-1.2,1.8-1.9c0.3-0.4,0.5-0.9,0.5-1.3
				c0-0.3-0.1-0.6-0.3-0.8c-0.2-0.2-0.4-0.3-0.7-0.3c-0.2,0-0.5,0.1-0.6,0.2c-0.2,0.2-0.4,0.4-0.4,0.6h-0.1c0-0.4,0.2-0.7,0.5-1
				c0.2-0.2,0.6-0.4,0.9-0.4c0.4,0,0.7,0.1,1,0.4c0.3,0.2,0.4,0.6,0.4,0.9c0,0.3-0.1,0.5-0.2,0.7c-0.2,0.5-0.5,0.9-0.9,1.2
				c-0.6,0.7-1,1-1.1,1.2h1.3c0.2,0,0.4,0,0.5,0c0.1,0,0.2-0.1,0.3-0.1c0.1-0.1,0.2-0.2,0.2-0.3H-7526.8z"/>
			<path class="st10" d="M-7523.3-2335.3l-0.3,0.6h-1.5l-0.3,0.7c0.6,0.1,1.1,0.3,1.5,0.7c0.3,0.3,0.5,0.7,0.5,1.1
				c0,0.2-0.1,0.5-0.2,0.7c-0.1,0.2-0.2,0.4-0.4,0.6c-0.2,0.2-0.3,0.3-0.5,0.4c-0.3,0.1-0.6,0.2-0.8,0.2c-0.2,0-0.4,0-0.6-0.1
				c-0.1-0.1-0.2-0.2-0.2-0.3c0-0.1,0-0.1,0.1-0.2c0.1-0.1,0.1-0.1,0.2-0.1c0.1,0,0.1,0,0.2,0c0.1,0,0.2,0.1,0.2,0.1
				c0.2,0.1,0.3,0.2,0.5,0.2c0.3,0,0.5-0.1,0.7-0.3c0.2-0.2,0.3-0.5,0.3-0.8c0-0.3-0.1-0.6-0.3-0.8c-0.2-0.3-0.5-0.5-0.8-0.6
				c-0.3-0.1-0.7-0.2-1.1-0.2l0.9-1.9L-7523.3-2335.3z"/>
			<path class="st11" d="M-7517.6-2331.4l-0.3,0.9h-2.9v-0.1c0.7-0.6,1.3-1.2,1.8-1.9c0.3-0.4,0.5-0.9,0.5-1.3
				c0-0.3-0.1-0.6-0.3-0.8c-0.2-0.2-0.4-0.3-0.7-0.3c-0.2,0-0.5,0.1-0.6,0.2c-0.2,0.2-0.3,0.4-0.4,0.6h-0.1c0-0.4,0.2-0.7,0.5-1
				c0.3-0.2,0.6-0.4,0.9-0.4c0.4,0,0.7,0.1,1,0.4c0.3,0.2,0.4,0.6,0.4,0.9c0,0.3-0.1,0.5-0.2,0.7c-0.2,0.5-0.5,0.9-0.9,1.2
				c-0.6,0.7-1,1-1.1,1.2h1.3c0.2,0,0.4,0,0.5,0c0.1,0,0.2-0.1,0.3-0.1c0.1-0.1,0.2-0.2,0.2-0.3H-7517.6z"/>
			<path class="st11" d="M-7514-2335.4v0.1c-0.3,0-0.5,0.1-0.8,0.2c-0.2,0.1-0.4,0.3-0.6,0.4c-0.2,0.2-0.4,0.4-0.5,0.6
				c-0.1,0.3-0.2,0.6-0.3,0.8c0.3-0.2,0.7-0.3,1-0.4c0.3,0,0.6,0.1,0.9,0.4c0.2,0.3,0.4,0.7,0.4,1c0,0.4-0.1,0.8-0.4,1.1
				c-0.3,0.4-0.7,0.6-1.2,0.6c-0.3,0-0.6-0.1-0.8-0.3c-0.5-0.4-0.7-1-0.7-1.7c0-0.4,0.1-0.9,0.3-1.2c0.2-0.4,0.4-0.8,0.7-1
				c0.3-0.3,0.6-0.5,0.9-0.6c0.3-0.1,0.5-0.2,0.8-0.2L-7514-2335.4z M-7516.2-2332.9c0,0.3-0.1,0.5-0.1,0.8c0,0.3,0,0.5,0.1,0.7
				c0.1,0.2,0.2,0.5,0.4,0.6c0.1,0.1,0.3,0.2,0.4,0.2c0.2,0,0.4-0.1,0.6-0.3c0.2-0.2,0.3-0.5,0.2-0.8c0-0.4-0.1-0.7-0.2-1.1
				c-0.1-0.3-0.4-0.4-0.7-0.4c-0.1,0-0.2,0-0.3,0.1C-7515.9-2333.1-7516.1-2333-7516.2-2332.9z"/>
			<path class="st11" d="M-7508.4-2331.4l-0.3,0.9h-2.9v-0.1c0.7-0.6,1.3-1.2,1.8-1.9c0.3-0.4,0.5-0.9,0.5-1.3
				c0-0.3-0.1-0.6-0.3-0.8c-0.2-0.2-0.4-0.3-0.7-0.3c-0.2,0-0.5,0.1-0.6,0.2c-0.2,0.2-0.3,0.4-0.4,0.6h-0.1c0-0.4,0.2-0.7,0.5-1
				c0.2-0.2,0.6-0.4,0.9-0.4c0.4,0,0.7,0.1,1,0.4c0.3,0.2,0.4,0.6,0.4,0.9c0,0.3-0.1,0.5-0.2,0.7c-0.2,0.5-0.5,0.9-0.9,1.2
				c-0.6,0.7-1,1-1.1,1.2h1.3c0.2,0,0.4,0,0.5,0c0.1,0,0.2-0.1,0.3-0.1c0.1-0.1,0.2-0.2,0.2-0.3H-7508.4z"/>
			<path class="st11" d="M-7507.4-2335.3h2.6v0.1l-1.6,4.8h-0.4l1.5-4.4h-1.3c-0.2,0-0.4,0-0.6,0.1c-0.2,0.1-0.4,0.3-0.5,0.5l-0.1,0
				L-7507.4-2335.3z"/>
			<path class="st11" d="M-7499.2-2331.4l-0.3,0.9h-2.9v-0.1c0.7-0.6,1.3-1.2,1.8-1.9c0.3-0.4,0.5-0.8,0.5-1.3
				c0-0.3-0.1-0.6-0.3-0.8c-0.2-0.2-0.4-0.3-0.7-0.3c-0.2,0-0.5,0.1-0.6,0.2c-0.2,0.2-0.3,0.4-0.4,0.6h-0.1c0-0.4,0.2-0.7,0.5-1
				c0.2-0.2,0.6-0.4,0.9-0.4c0.4,0,0.7,0.1,1,0.4c0.3,0.2,0.4,0.6,0.4,0.9c0,0.3-0.1,0.5-0.2,0.7c-0.2,0.5-0.5,0.9-0.9,1.2
				c-0.6,0.7-1,1-1.1,1.2h1.3c0.2,0,0.4,0,0.5,0c0.1,0,0.2-0.1,0.3-0.1c0.1-0.1,0.2-0.2,0.2-0.3H-7499.2z"/>
			<path class="st11" d="M-7497.5-2332.9c-0.3-0.2-0.5-0.5-0.7-0.8c-0.1-0.2-0.2-0.4-0.2-0.6c0-0.3,0.1-0.6,0.4-0.8
				c0.6-0.4,1.4-0.5,1.9,0c0.2,0.2,0.4,0.4,0.4,0.7c0,0.2-0.1,0.4-0.2,0.6c-0.2,0.3-0.5,0.5-0.8,0.7c0.3,0.2,0.6,0.5,0.8,0.8
				c0.2,0.2,0.3,0.5,0.3,0.8c0,0.3-0.1,0.7-0.4,0.9c-0.3,0.3-0.7,0.4-1,0.4c-0.4,0-0.8-0.1-1.1-0.4c-0.4-0.4-0.4-1-0.1-1.4
				C-7498-2332.4-7497.8-2332.7-7497.5-2332.9z M-7497.3-2332.7c-0.2,0.1-0.3,0.3-0.4,0.5c-0.1,0.2-0.1,0.4-0.1,0.6
				c0,0.3,0.1,0.5,0.3,0.7c0.2,0.2,0.4,0.3,0.6,0.3c0.2,0,0.5-0.1,0.6-0.2c0.2-0.1,0.2-0.3,0.2-0.5c0-0.2,0-0.3-0.1-0.5
				C-7496.6-2332.1-7496.9-2332.4-7497.3-2332.7z M-7496.9-2333.3c0.2-0.2,0.4-0.4,0.5-0.6c0.1-0.2,0.1-0.3,0.1-0.5
				c0-0.2-0.1-0.4-0.2-0.6c-0.2-0.1-0.4-0.2-0.6-0.2c-0.2,0-0.4,0.1-0.6,0.2c-0.1,0.1-0.2,0.3-0.2,0.5c0,0.1,0,0.3,0.1,0.4
				c0.1,0.1,0.2,0.3,0.3,0.4L-7496.9-2333.3z"/>
			<path class="st11" d="M-7490-2331.4l-0.3,0.9h-2.9v-0.1c0.7-0.6,1.3-1.2,1.8-1.9c0.3-0.4,0.5-0.9,0.5-1.3c0-0.3-0.1-0.6-0.3-0.8
				c-0.2-0.2-0.4-0.3-0.7-0.3c-0.2,0-0.5,0.1-0.6,0.2c-0.2,0.2-0.3,0.4-0.4,0.6h-0.1c0-0.4,0.2-0.7,0.5-1c0.2-0.2,0.6-0.4,0.9-0.4
				c0.4,0,0.7,0.1,1,0.4c0.3,0.2,0.4,0.6,0.4,0.9c0,0.3-0.1,0.5-0.2,0.7c-0.2,0.5-0.5,0.9-0.9,1.2c-0.6,0.7-1,1-1.1,1.2h1.3
				c0.2,0,0.4,0,0.5,0c0.1,0,0.2-0.1,0.3-0.1c0.1-0.1,0.2-0.2,0.2-0.3H-7490z"/>
			<path class="st11" d="M-7489.3-2330.3v-0.1c0.3,0,0.6-0.1,0.9-0.2c0.3-0.2,0.6-0.4,0.8-0.7c0.2-0.3,0.4-0.7,0.5-1.2
				c-0.3,0.2-0.7,0.3-1,0.4c-0.3,0-0.7-0.1-0.9-0.4c-0.3-0.3-0.4-0.7-0.4-1.1c0-0.4,0.1-0.8,0.4-1.1c0.3-0.4,0.7-0.6,1.2-0.6
				c0.4,0,0.8,0.2,1,0.5c0.4,0.4,0.5,1,0.5,1.5c0,0.5-0.1,1.1-0.4,1.5c-0.3,0.5-0.6,0.9-1.1,1.2c-0.4,0.3-0.8,0.4-1.3,0.4
				L-7489.3-2330.3z M-7487.1-2332.8c0-0.2,0.1-0.5,0.1-0.7c0-0.3,0-0.5-0.1-0.8c-0.1-0.2-0.2-0.4-0.3-0.6c-0.1-0.1-0.3-0.2-0.5-0.2
				c-0.2,0-0.4,0.1-0.6,0.3c-0.2,0.2-0.3,0.6-0.2,0.9c0,0.4,0.1,0.8,0.3,1.2c0.1,0.2,0.3,0.3,0.6,0.3c0.1,0,0.3,0,0.4-0.1
				C-7487.4-2332.6-7487.2-2332.7-7487.1-2332.8L-7487.1-2332.8z"/>
			<path class="st11" d="M-7483.8-2334.4c0.1-0.3,0.3-0.6,0.5-0.8c0.2-0.2,0.5-0.3,0.8-0.3c0.3,0,0.7,0.1,0.9,0.4
				c0.1,0.2,0.2,0.4,0.2,0.6c-0.1,0.4-0.3,0.8-0.7,1.1c0.3,0.1,0.5,0.3,0.7,0.5c0.2,0.2,0.2,0.5,0.2,0.8c0,0.4-0.1,0.8-0.4,1.1
				c-0.4,0.4-0.9,0.6-1.5,0.6c-0.2,0-0.5,0-0.7-0.1c-0.1-0.1-0.2-0.2-0.2-0.3c0-0.1,0-0.1,0.1-0.2c0.1-0.1,0.1-0.1,0.2-0.1
				c0.1,0,0.1,0,0.2,0c0.1,0,0.2,0.1,0.3,0.1c0.1,0.1,0.2,0.1,0.3,0.1c0.1,0,0.2,0,0.3,0c0.2,0,0.5-0.1,0.6-0.3
				c0.2-0.2,0.3-0.4,0.3-0.7c0-0.2,0-0.4-0.1-0.6c0-0.1-0.1-0.2-0.2-0.3c-0.1-0.1-0.3-0.2-0.4-0.3c-0.2-0.1-0.4-0.1-0.5-0.1h-0.1
				v-0.1c0.2,0,0.4-0.1,0.6-0.2c0.2-0.1,0.3-0.2,0.4-0.4c0.1-0.2,0.1-0.3,0.1-0.5c0-0.2-0.1-0.4-0.2-0.6c-0.2-0.2-0.4-0.2-0.6-0.2
				c-0.4,0-0.8,0.2-0.9,0.6L-7483.8-2334.4z"/>
			<path class="st11" d="M-7480.3-2332.8c0-0.5,0.1-1,0.3-1.4c0.1-0.4,0.4-0.7,0.7-0.9c0.2-0.1,0.4-0.2,0.7-0.2c0.4,0,0.8,0.2,1,0.6
				c0.4,0.6,0.6,1.2,0.6,1.9c0,0.5-0.1,1-0.2,1.4c-0.1,0.3-0.3,0.6-0.6,0.9c-0.2,0.2-0.5,0.3-0.7,0.3c-0.5,0-1-0.3-1.2-0.8
				C-7480.1-2331.7-7480.3-2332.2-7480.3-2332.8z M-7479.6-2332.7c0,0.6,0.1,1.1,0.2,1.6c0.1,0.4,0.3,0.5,0.6,0.5
				c0.1,0,0.3-0.1,0.4-0.2c0.2-0.2,0.3-0.4,0.3-0.6c0.1-0.6,0.2-1.2,0.2-1.7c0-0.5,0-0.9-0.2-1.4c-0.1-0.2-0.2-0.4-0.3-0.6
				c-0.1-0.1-0.2-0.1-0.4-0.1c-0.2,0-0.3,0.1-0.4,0.2c-0.2,0.3-0.3,0.6-0.4,0.9C-7479.5-2333.6-7479.6-2333.2-7479.6-2332.7
				L-7479.6-2332.7z"/>
			<rect x="-7529.5" y="-2372.1" class="st12" width="61.6" height="0.4"/>
			<rect x="-7529.5" y="-2360.7" class="st12" width="61.6" height="0.4"/>
			<rect x="-7529.5" y="-2349.3" class="st12" width="61.6" height="0.4"/>
			<rect x="-7529.5" y="-2337.8" class="st12" width="61.6" height="0.4"/>
		</g>
	</g>
</g>
<path class="st13" d="M133.2,241.1h1.1l-2-27.2h0.2l-2.7-36.5h-23.1l2.7,36.5h0.6l2,27.2h1.1l-2-27.2h20.1L133.2,241.1z"/>
<path class="st14" d="M129.6,177.4h-23.1l-2.7,36.5h0.4l-2.3,31h1.1l2.3-31h20.1l-2.3,31h1.1l2.3-31h0.5L129.6,177.4z"/>
<path class="st6" d="M77.5,216.9l-1.8,1.7l1.1,1.3l0.6-0.6C77.5,218.4,77.5,217.7,77.5,216.9z"/>
<path class="st15" d="M93.6,195.9c1.2,3.6,4.8,5.9,7.7,8.2c0.1-1.9-0.7-3.3-1.5-4.9c-1-2.2-2.3-4.2-4-5.9c-0.7-0.6-1.3-1.3-1.8-2.1
	c-0.5-0.8-0.8-1.6-1.3-2.4c-0.3-0.6-0.7-1.1-1.3-1.5c-0.7-0.3-1.4-0.4-2.1-0.3c-0.5,0-1-0.2-1.4,0.2c-0.3,0.4-0.4,0.8-0.4,1.3
	c0.1,0.7,1.2,1.6,1.8,1.9c0.4,0.2,0.9,0.4,1.4,0.3c0.9,0.1,1.6,0.7,2,1.5c0.3,0.7,0.5,1.5,0.6,2.3C93.4,195,93.5,195.4,93.6,195.9z"
	/>
<path class="st16" d="M95.4,192.2c0.2,0.1,0.4,0.1,0.6,0.2c-0.1-0.5-0.3-0.9-0.4-1.3c-0.2-0.4-0.6-0.6-1-0.7
	c-0.8-0.2-2.7-0.4-3.1,0.7c-0.2,0.5,0.5,1,0.7,1.5C93.3,192.2,94.3,192.1,95.4,192.2z"/>
<path class="st17" d="M101.4,202c-0.3-1-0.7-1.9-1.2-2.8c-0.3-0.6-0.7-1.2-1.1-1.9c-0.8-1.1-1.4-2.3-2-3.5c-0.2-0.5-0.3-1.2-0.6-1.7
	c-0.2-0.4-0.7-0.7-1.1-0.8c-1-0.3-3.2-0.5-3.6,0.8c-0.2,0.6,0.6,1.2,0.9,1.7c0.3,0.6,0.6,1.3,0.8,1.9c0.3,0.8,0.6,1.7,1,2.5h0
	c0.9,0.5,1.5,1.4,2.4,1.9c0.9,0.4,1.7,0.9,2.5,1.5c0.4,0.4,0.8,0.8,1.2,1.1c0.4,0.3,0.7,0.7,1,1.1c0.1,0.2,0.2,0.4,0.2,0.6
	c0.1-0.2,0.1-0.4,0.1-0.7C101.8,203.3,101.6,202.6,101.4,202z"/>
<path class="st18" d="M75.4,265.9c-0.5-0.1-1-0.3-1.4-0.6c-0.4-0.3-0.4-0.8-0.4-1.3c0-0.5,0.2-1,0.5-1.4c0.6-0.9,1.4-1.6,2.2-2.2
	c0.3-0.3,0.6-0.4,1-0.3c0.6,0.1,1.2,0.2,1.8,0.2c0.9,0,1.8-0.2,2.7-0.6c0.3-0.2,0.6-0.3,1-0.2c0.3,0.1,0.6,0.2,0.9,0.4
	c0.6,0.4,0.4,1.2-0.1,1.7c-0.4,0.5-0.9,0.9-1.4,1.2c-0.5,0.4-1.1,0.7-1.7,0.9c-0.3,0.1-0.6,0-1,0.1c-0.4,0.1-0.4,0.3-0.5,0.6
	c-0.1,0.3-0.5,0.5-0.7,0.6c-0.2,0.1-0.4,0.2-0.6,0.3c-0.6,0.4-1.2,0.6-1.9,0.6C75.6,265.9,75.5,265.9,75.4,265.9z"/>
<path class="st19" d="M83.8,260c0,0.4-0.1,0.9-0.4,1.2c-0.4,0.4-0.9,0.8-1.4,1.2c-0.5,0.4-1.1,0.6-1.8,0.8c-0.3,0.1-0.6-0.1-1,0.1
	c-0.4,0.1-0.4,0.3-0.5,0.6c-0.1,0.3-0.5,0.4-0.7,0.6c-0.2,0.1-0.4,0.2-0.6,0.3c-0.6,0.4-1.3,0.6-1.9,0.6c-0.1,0-0.3,0-0.4-0.1
	c-0.5-0.1-1-0.4-1.4-0.6c0,0-0.1,0-0.1-0.1c0,0.3,0.2,0.5,0.4,0.7c0.4,0.3,0.9,0.5,1.4,0.6c0.1,0,0.2,0.1,0.4,0.1
	c0.7,0,1.4-0.2,1.9-0.6c0.2-0.1,0.4-0.2,0.6-0.3c0.2-0.2,0.6-0.3,0.7-0.6c0.1-0.3,0.1-0.5,0.5-0.6c0.3-0.1,0.7,0,1-0.1
	c0.6-0.2,1.2-0.5,1.7-0.9c0.5-0.4,1-0.8,1.4-1.2C84,261.1,84.1,260.5,83.8,260z"/>
<path class="st18" d="M87.5,267.7c-0.5-0.1-1-0.3-1.4-0.6c-0.4-0.3-0.4-0.8-0.4-1.3c0-0.5,0.2-1,0.5-1.4c0.6-0.9,1.4-1.6,2.2-2.2
	c0.3-0.3,0.6-0.4,1-0.3c0.6,0.1,1.2,0.2,1.8,0.2c0.9,0,1.8-0.3,2.7-0.6c0.3-0.2,0.6-0.3,1-0.2c0.3,0.1,0.6,0.2,0.9,0.4
	c0.6,0.4,0.4,1.2-0.1,1.7c-0.4,0.5-0.9,0.9-1.4,1.2c-0.5,0.4-1.1,0.7-1.7,0.9c-0.3,0.1-0.6,0-1,0.1c-0.4,0.1-0.4,0.3-0.5,0.6
	c-0.1,0.3-0.5,0.5-0.7,0.6c-0.2,0.1-0.4,0.2-0.6,0.3c-0.6,0.4-1.2,0.6-1.9,0.6C87.7,267.8,87.6,267.7,87.5,267.7z"/>
<path class="st19" d="M95.8,261.8c0,0.4-0.1,0.9-0.4,1.2c-0.4,0.4-0.9,0.8-1.4,1.2c-0.5,0.4-1.1,0.6-1.8,0.8c-0.3,0.1-0.6-0.1-1,0.1
	c-0.4,0.1-0.4,0.3-0.5,0.6c-0.1,0.3-0.5,0.4-0.7,0.6c-0.2,0.1-0.4,0.2-0.6,0.3c-0.6,0.4-1.3,0.6-1.9,0.6c-0.1,0-0.3,0-0.4-0.1
	c-0.5-0.1-1-0.4-1.4-0.6c0,0-0.1,0-0.1-0.1c0,0.3,0.2,0.5,0.4,0.7c0.4,0.3,0.9,0.5,1.4,0.6c0.1,0,0.2,0,0.4,0.1
	c0.7,0,1.4-0.2,1.9-0.6c0.2-0.1,0.4-0.2,0.6-0.3c0.2-0.2,0.6-0.3,0.7-0.6c0.1-0.3,0.1-0.5,0.5-0.6c0.3-0.1,0.7,0,1-0.1
	c0.6-0.2,1.2-0.5,1.7-0.9c0.5-0.4,1-0.8,1.4-1.2C96,262.9,96.2,262.2,95.8,261.8z"/>
<path class="st17" d="M77.7,213.5c-0.8-1-1.7-1.9-2.6-2.8c-0.8-0.8-1.6-1.7-2.3-2.7c-0.4-0.5-0.8-1.1-1.2-1.6
	c0.1-0.1,0.2-0.2,0.3-0.3c0.4-0.4,1.1-1,1.2-1.1c0.6-0.5,2-2,2.8-1.3c0.2,0.2,0.4,0.4,0.6,0.6c0.3,0.4,0.6,0.8,0.9,1.2
	c0.1,0.1,0.2,0.3,0.2,0.4c-0.1-0.5-0.2-1.1-0.4-1.6c-0.3-1-0.5-2.1-0.9-3.1c-0.6-1.6-1.4-3.5-2.8-4.5c-0.5,0.2-1,0.6-1.3,1
	c-0.9,0.9-1.6,1.8-2.4,2.7c-1.3,1.4-2.3,3-3.4,4.4c-0.7,0.9-0.3,1.7,0.3,2.4c0.7,0.9,1.3,1.9,2,2.8c1.5,2,2.9,4,4.4,6
	c0.5,0.7,1.1,1.4,1.6,2.1c0.2,0.3,0.6,0.6,0.8,0.9c0.5-0.6,1.1-1.2,1.7-1.7c0.1-0.1,0.3-0.3,0.4-0.4c0.1-0.1,0.2-0.1,0.2-0.2
	c0-0.2,0-0.4,0-0.7c0-0.3,0-0.6,0-1C77.8,214.7,77.8,214.1,77.7,213.5z"/>
<path class="st15" d="M81.6,193c0,0.9-0.6,1.2-1.3,1.5c0,0,0,0,0,0.1c0.6,0.8,1,1.9,1.6,2.6c0.8,0.7,2,0.9,3,0.4
	c1.2-0.7,2.3-1.7,3-2.9c0.1-0.1,0.1-0.2,0.2-0.3c-0.2,0-0.3-0.1-0.5-0.1c-0.9-0.4-1.1-1.1-1.3-2c-0.1-1.1-0.1-2.2-0.1-3.3
	c0-0.6,0-2.2,0.4-2.5c0,0,0-0.1,0-0.1c-0.6,0-1.2,0.1-1.8,0.3c-0.5,0.1-0.9,0.4-1.3,0.7c-0.8,0.8-1.7,1.5-2.6,2.2
	C81.5,190.5,81.6,191.8,81.6,193z"/>
<path class="st20" d="M91.3,224.8c-1.7-0.1-3.3-0.1-5-0.1c-3-0.2-6,0-9,0.5c-0.1,0.7-0.2,1.4-0.3,2.1c-0.1,1.2-0.2,2.4-0.2,3.6
	c0,0.3,0,0.5,0,0.8c0,1.3-0.2,2.7-0.3,4c-0.5,6.2-1.4,12.4-2.3,18.6c-0.2,1.6-0.3,3.2-0.4,4.8c-0.1,1.3-0.3,2.5-0.3,3.8
	c0,0.7,0,1.5,0.7,1.9c1.6,0.9,3.7-0.3,4.9-1.3c0.9-0.6,1.4-1.7,1.3-2.8c-0.3-2.4-0.3-4.8,0.1-7.1c0.4-1.8,0.9-3.5,1.3-5.3
	c0.4-1.7,0.4-3.5,0.9-5.2c0.4-1.3,0.4-2.7,0.7-4.1c0.1-0.5,0.3-0.9,0.4-1.4c0.1-0.2,0.1-0.4,0.1-0.7c0-0.2,0.1-0.4,0.2-0.6
	c0.1,0.2,0.1,0.3,0.2,0.5c0.1,0.2,0.1,0.4,0.2,0.6c0.8,3.1,0.8,6.2,1.3,9.4c0.2,1.5,1,3.6,0.7,5.1c-0.6,3.4-0.6,6.8-1,10.3
	c-0.2,1.4-0.9,3.6,0.7,4.4c1.7,0.9,4.5-0.7,5.5-2.1c0.6-0.8,0.3-1.9,0.1-2.8c-0.9-4.3,0.2-8.5,0.8-12.7c0.2-1.9,0.2-3.7,0-5.6
	C92.1,237.2,92.2,230.8,91.3,224.8z"/>
<path class="st21" d="M88.4,183.4c0.2,1.6,0.1,3.2-0.3,4.8c-0.1,0.7-0.3,1.3-0.7,1.9c-0.2,0.2-0.7,0.8-1.1,0.6
	c-0.2-0.1-0.1-1-0.1-1.2c0-0.7,0.1-1.8-0.6-2.1c-0.4-0.2-0.7,0.1-1.1,0.1c-0.8,0-1.6-0.3-2.3-0.7c-0.7-0.3-1.1-1-1.3-1.7
	c-0.3-0.9-0.5-1.7-0.6-2.6c0-0.9,0.6-1.7,1.3-2.2c1.5-1.1,3.5-1.4,5.2-0.8c0.5,0.6,0.9,1.3,1.1,2.1c0.2,0.5,0.3,0.9,0.4,1.4
	C88.3,183.2,88.4,183.3,88.4,183.4z"/>
<path class="st22" d="M85.8,184.2c-0.2-0.3-0.6-0.5-0.9-0.1c-0.4,0.7-0.4,1.5-0.2,2.3c0,0.4,0.1,0.7,0.3,1c0.2,0.5,0.5,0.1,0.8-0.1
	c0,0,0,0,0,0c-0.3,0.8-0.7,1.6-1.2,2.3c-0.3,0.6-0.9,1.1-1.5,1.3c-0.8,0.2-1.6,0-2.3-0.4c-0.4-0.4-0.8-0.9-1.1-1.4
	c-1.4-2-3-4.9-1.8-7.4c0.3-0.9,1.3-1.3,2.2-1c-1-0.7,0-1.6,0.8-1.9c0.5-0.2,1-0.3,1.4-0.4c1.8-0.4,4.3-0.6,5.7,1
	c1,1.2,1.1,2.8,0.3,4.1c-0.1-0.5-0.4-1.1-0.7-1.5c0.1,0.1,0,0.5,0,0.6c0,0.2,0,0.3,0,0.5c-0.1,0.4-0.2,0.8-0.2,1.2
	c0,0.2,0,0.5,0,0.7c0,0.2,0.1,0.4,0.2,0.6c-0.3,0.2-0.7,0.3-0.9,0.6c-0.1-0.3-0.1-0.6-0.2-0.9C86.2,184.9,86,184.5,85.8,184.2z"/>
<path class="st23" d="M100.9,202.9c-0.6-0.7-1.3-1.4-2-2c-0.7-0.6-1.4-1-2.2-1.5c-0.5-0.3-0.9-0.6-1.3-0.9c-0.4-0.3-0.7-0.6-1.1-0.9
	c-0.4-0.3-0.7-0.6-1-0.9c-0.4-0.5-0.4-0.7-0.3-1.2c0.1-0.7-0.5-0.8-1.1-0.9c-0.6-0.2-1.2-0.3-1.8-0.4c-0.6-0.1-1.1-0.2-1.7-0.4
	c-0.6-0.3-1.3-0.1-1.6,0.5c-0.8,0.9-2,1.4-3.2,1.5c-0.6,0.1-1.1-0.1-1.6-0.4c-0.3-0.2-0.9-1.2-1.1-1.3c-0.3-0.1-0.7-0.1-1.1-0.1
	c-0.8,0.2-1.6,0.5-2.4,0.9c-0.9,0.4-1.8,0.8-2.7,1.1c-0.4,0.1-0.8,0.3-1.2,0.5c-0.8,0.4,0.7,2.3,1,2.6c0.9,1.2,1.6,2.6,1.9,4.1
	c0.2,1,0.4,2.1,0.4,3.2c0.2,2.2,0.4,4.4,0.4,6.6c-0.1,2.4,0.1,4.9,0,7.4c-0.1,1.9-0.4,3.6-0.5,5.5c-0.1,1-0.2,2.2-0.3,3.2
	c1.3,0.6,2.6,1.1,4,1.3c0.5-1.6,0.8-3.2,0.9-4.8c0.3,1.6,0.3,3.3,0.2,5c3.8,0.5,7.7-0.3,11.1-2.1c-0.1-0.7-0.1-1.3-0.1-1.9
	c-0.1-3-1-5.8-0.9-8.8c0-1,0-1.9-0.1-2.9c-0.1-1.5-0.1-3,0-4.5c0.1-0.9-0.2-2.8,0.5-3.6c1.2-1.5,3.3,0.1,4.8,0.3
	c1.1,0.1,2.1-0.1,3.1-0.5c0.8-0.4,1.4-1.2,1.7-2.1C101.8,203.8,101.3,203.4,100.9,202.9z"/>
<path class="st17" d="M95.8,206.1c-1.7-0.6-3.2-1.6-4.6-2.7l0,0c-0.7,1.4-1.2,2.9-1.3,4.5c-0.1,1.4,0,2.8,0.1,4.2
	c0.2,1.5,0.7,2.9,1,4.4c0.4,1.9,0.7,3.7,1,5.6c-0.3-1.4-0.4-2.8-0.3-4.3c0-1,0-1.9-0.1-2.9c-0.1-1.5-0.1-3,0-4.5
	c0.1-0.9-0.2-2.8,0.5-3.6c1.2-1.5,3.3,0.1,4.8,0.3c0.8,0.1,1.5,0,2.2-0.2C98,206.8,96.9,206.5,95.8,206.1z"/>
<path class="st16" d="M84.7,195.3c0.2-0.1,0.5-0.1,0.7-0.2c0.3-0.1,0.6-0.2,0.9-0.4c0.1-0.1,0.3-0.2,0.4-0.3c0,0,0.1,0,0.1-0.1
	c0.1-0.1,0.1-0.1,0.1-0.2c0-0.1,0.1-0.2,0.1-0.3c0.1-0.1,0.1-0.1,0.2-0.2c0-0.1,0.2-0.1,0.2-0.2s-0.1-0.2-0.1-0.2
	c-0.1-0.1-0.1-0.1-0.2-0.2c-0.1-0.1-0.2-0.1-0.3-0.2c-0.1,0-0.2-0.1-0.3-0.1s-0.1,0.1-0.2,0.2c-0.1,0.2-0.3,0.3-0.5,0.4
	c-0.5,0.4-1.1,0.6-1.7,0.6c-0.6,0.1-1.2,0-1.8-0.2c-0.1,0-0.2-0.1-0.3-0.2c-0.1-0.1-0.2-0.1-0.4-0.2c-0.1-0.1-0.2-0.1-0.2-0.3
	c0-0.1,0-0.1-0.1-0.1c-0.1,0-0.2,0.1-0.3,0.2c-0.3,0.1-0.6,0.3-0.8,0.5c-0.1,0.1-0.1,0.1-0.1,0.2c0.1,0.2,0.2,0.4,0.3,0.5
	c0.1,0.1,0.2,0.1,0.2,0.2c0.1,0.1,0.2,0.2,0.3,0.2c0.4,0.3,0.9,0.9,1.5,0.9C83.4,195.6,84.1,195.5,84.7,195.3z"/>
<path class="st17" d="M81,193.8c-0.2-0.1-0.3-0.3-0.5-0.4c-0.1-0.1-0.1-0.1-0.2-0.1c-0.1,0-0.2,0.1-0.3,0.2
	c-0.2,0.1-0.3,0.2-0.5,0.3c-0.1,0.1-0.3,0.2-0.4,0.2c-0.2,0.1,0.2,0.4,0.3,0.5c0.2,0.2,0.4,0.3,0.5,0.5c0.3,0.3,0.7,0.5,1,0.8
	c1.7,1.1,3.8,1,5.4-0.3c0.7-0.5,1.3-1.4,2.2-1.5c0.1,0,0.8,0.2,0.9,0.1c0.1-0.4-1.2-0.8-1.4-0.9c-0.1-0.1-0.3-0.3-0.4-0.2
	s-0.3,0.2-0.4,0.3c-0.3,0.2-0.5,0.4-0.8,0.6c-0.6,0.4-1.3,0.6-2,0.7c-0.8,0.2-1.7,0.1-2.4-0.2C81.6,194.2,81.3,194,81,193.8z"/>
<g transform="translate(7634.951 2557.495)">
	<path class="st6" d="M-7527.4-2379h20.8l-2.8,34h-20.6L-7527.4-2379z"/>
	<g transform="translate(3.513 2.133)" class="st24">
		<path class="st25" d="M-7524.1-2378.4c-0.1,0.3-0.2,0.6-0.3,0.9c-0.1,0.3-0.2,0.6-0.3,0.9c-0.2,0.6-0.3,1.2-0.5,1.8
			c0,0.1-0.1,0.3-0.2,0.4l0,0l-0.4,4.6c2.4,0,4.3-1.8,4.4-4.2v0h0c0.2-1.9-0.9-3.8-2.6-4.6C-7524-2378.6-7524-2378.5-7524.1-2378.4z
			"/>
		<path class="st26" d="M-7525.7-2374.3l-4-0.3l0,0.1c-0.3,2.3,1.3,4.5,3.6,4.8L-7525.7-2374.3z"/>
		<path class="st27" d="M-7530-2375L-7530-2375l4.1,0.3l-2.5-3.6C-7529.4-2377.4-7529.9-2376.2-7530-2375z"/>
		<path class="st28" d="M-7525.4-2374.5l4,0.3v0c0.3-2.4-1.4-4.5-3.7-4.8c-1.1-0.1-2.1,0.3-2.9,1L-7525.4-2374.5z"/>
	</g>
	<g transform="translate(1.741 22.196)">
		<path class="st29" d="M-7527.1-2373.4l-0.4,5h1.5l0.4-5H-7527.1z"/>
		<path class="st30" d="M-7529.8-2370.4l-0.2,2h1.5l0.2-2H-7529.8z"/>
		<path class="st31" d="M-7524.4-2375.6l-0.6,7.2h1.5l0.6-7.2H-7524.4z"/>
		<path class="st32" d="M-7522.2-2371.9l-0.3,3.5h1.5l0.3-3.5H-7522.2z"/>
		<path class="st33" d="M-7519.4-2375.1l-0.6,6.7h1.5l0.5-6.7H-7519.4z"/>
		<path class="st34" d="M-7516.5-2379l-0.9,10.6h1.5l0.8-10.6H-7516.5z"/>
		<path class="st35" d="M-7514.1-2376.9l-0.7,8.5h1.5l0.7-8.5H-7514.1z"/>
	</g>
	<g transform="translate(11.7 2.505)" class="st36">
		<path class="st37" d="M-7520.3-2378.6l0-0.4h-9.1l0,0.4H-7520.3z"/>
		<path class="st37" d="M-7529.5-2377.4l0,0.4h9.1l0-0.4H-7529.5z"/>
		<path class="st37" d="M-7529.6-2375.3h9.1l0-0.4h-9.1L-7529.6-2375.3z"/>
		<path class="st37" d="M-7529.8-2373.7h9.1l0-0.4h-9.1L-7529.8-2373.7z"/>
		<path class="st37" d="M-7529.9-2372h9.1l0-0.4h-9.1L-7529.9-2372z"/>
		<path class="st37" d="M-7530-2370.8l0,0.4h9.1l0-0.4H-7530z"/>
	</g>
	<path class="st38" d="M-7510.7-2364.3v-0.2h-0.3l0-0.6h0.3v-0.2h-0.3l0-0.3l-0.2,0l0,0.3h-0.6l0-0.3l-0.2,0l0,0.3h-0.6l0-0.3
		l-0.2,0l0,0.3h-0.6l0-0.3l-0.2,0l0,0.3h-0.6l0-0.3l-0.2,0l0,0.3h-0.6l0-0.3l-0.2,0l0,0.3h-0.4l0,0.2h0.4l0,0.6h-0.4l0,0.2h0.4
		l0,0.6h-0.4l0,0.2h0.4l0,0.6h-0.4l0,0.2h0.4l0,0.6h-0.4l0,0.2h0.4l0,0.6h-0.4l0,0.2h0.4l0,0.3h0.2l0-0.3h0.6l0,0.3h0.2l0-0.3h0.6
		l0,0.3h0.2l0-0.3h0.6l0,0.3h0.2l0-0.3h0.6l0,0.3h0.2l0-0.3h0.6l0,0.3h0.2l0-0.3h0.3v-0.2h-0.3l0-0.6h0.3v-0.2h-0.3l0-0.6h0.3v-0.2
		h-0.3l0-0.6h0.3v-0.2h-0.3l0-0.6L-7510.7-2364.3z M-7511.1-2365l0,0.6h-0.6l0-0.6H-7511.1z M-7511.9-2365l0,0.6h-0.6l0-0.6H-7511.9
		z M-7513.3-2363.7l0-0.6h0.6l0,0.6H-7513.3z M-7512.8-2363.5l0,0.6h-0.6l0-0.6H-7512.8z M-7513.5-2363.7h-0.6l0-0.6h0.6
		L-7513.5-2363.7z M-7513.5-2363.5l0,0.6h-0.6l0-0.6H-7513.5z M-7513.6-2362.8l0,0.6h-0.6l0-0.6H-7513.6z M-7513.4-2362.8h0.6l0,0.6
		h-0.6L-7513.4-2362.8z M-7512.7-2362.8h0.6l0,0.6h-0.6L-7512.7-2362.8z M-7512.6-2362.9l0-0.6h0.6l0,0.6L-7512.6-2362.9z
		 M-7512.6-2363.7l0-0.6h0.6l0,0.6H-7512.6z M-7512.6-2365l0,0.6h-0.6l0-0.6H-7512.6z M-7513.4-2365l0,0.6h-0.6l0-0.6H-7513.4z
		 M-7514.7-2365h0.6l0,0.6h-0.6L-7514.7-2365z M-7514.8-2364.3h0.6l0,0.6h-0.6L-7514.8-2364.3z M-7514.8-2363.5h0.6l0,0.6h-0.6
		L-7514.8-2363.5z M-7514.9-2362.8h0.6l0,0.6h-0.6L-7514.9-2362.8z M-7515-2361.4l0-0.6h0.6l0,0.6H-7515z M-7514.3-2361.4l0-0.6h0.6
		l0,0.6H-7514.3z M-7513.5-2361.4l0-0.6h0.6l0,0.6H-7513.5z M-7512.8-2361.4l0-0.6h0.6l0,0.6H-7512.8z M-7511.4-2361.4h-0.6l0-0.6
		h0.6L-7511.4-2361.4z M-7511.4-2362.2h-0.6l0-0.6h0.6L-7511.4-2362.2z M-7511.3-2362.9h-0.6l0-0.6h0.6L-7511.3-2362.9z
		 M-7511.3-2363.7h-0.6l0-0.6h0.6L-7511.3-2363.7z"/>
	<g transform="translate(2.682 13.781)">
		<path class="st39" d="M-7521.4-2378.2l0.1-0.8h-8.3l-0.1,0.8H-7521.4z"/>
		<path class="st40" d="M-7523-2377l0.1-0.8h-6.7l-0.1,0.8H-7523z"/>
		<path class="st41" d="M-7525.3-2376.6h-4.5l-0.1,0.8h4.5L-7525.3-2376.6z"/>
		<path class="st42" d="M-7529.8-2375.3l-0.1,0.8h7.1l0.1-0.8H-7529.8z"/>
		<path class="st39" d="M-7524.5-2373.3l0.1-0.8h-5.5l-0.1,0.8H-7524.5z"/>
	</g>
	<path class="st43" d="M-7510.7-2357.7l-0.7-0.7l-0.1,0.2l-3.2-0.8l-5.4,4.9l-1.4-3l-6.4,5c0,0.2-0.1,0.3-0.1,0.5l6.3-4.9l1.4,3
		l5.6-5.1l3,0.8l-0.1,0.2L-7510.7-2357.7z"/>
</g>
<path class="st44" d="M153.1,173.9c-0.1,0.6-0.3,1.2-0.5,1.8c-0.7,1.5-1.7,2.8-3,3.8c0,0-1.2-1.1-1.3-1.2c-0.5-0.3-1.1-0.7-1.6-0.9
	c-0.4-0.3-0.8-0.7-1.2-1c-0.6-0.5-1.2-1.2-1.8-1.7c-0.7-0.5-1.4-1.1-2-1.8c1,0.1,1.8-2,2.2-2.7c0.7-1,1.7-1.8,2.9-2
	c1.7-0.3,2.7,0.2,3.2,1.8c0.8,0,1.3-0.4,2,0.2c0.5,0.4,0.8,1,0.9,1.6C153.2,172.4,153.2,173.1,153.1,173.9z"/>
<path class="st21" d="M138.7,189c-0.2,0.4-0.4,0.8-0.6,1.2c-0.7,1.4-1.5,2.7-2.3,4c-0.2,0.4-0.3,0.7-0.7,0.9c-0.8,0.5-1.7,1-2.6,1.5
	c-1,0.6-1.9,1.3-2.7,2.1c-0.8,0.7-1.9,1.8-3.1,1.3c-0.4-0.1-0.8-0.1-1.1,0c-0.4,0.1-0.8,0-1.2,0c-0.4,0-0.8-0.1-1.1-0.3
	c-0.3-0.2-0.5-0.5-1-0.3c0,0.6,0.4,1.1,1,1.2c0.3,0.1,0.6,0.1,0.9,0.2c0.2,0.1,0.4,0.2,0.5,0.3c-0.4,0.2-0.7,0.3-1.1,0.5
	s-0.7,0.4-1,0.6c-0.3,0.1-0.6,0.3-0.8,0.4c-0.1,0.1-0.3,0.1-0.4,0.2c-0.1,0.1-0.6,0.3-0.5,0.5c0.2,0.3,0.9-0.1,1.1-0.2
	c0.3-0.1,0.7-0.2,1-0.4c0.4-0.2,0.9-0.4,1.3-0.6c0,0,0,0,0,0.1c-0.2,0.1-0.3,0.1-0.5,0.2c-0.3,0.2-0.7,0.4-1,0.6
	c-0.3,0.1-0.6,0.3-0.8,0.4c-0.1,0.1-0.3,0.1-0.4,0.2c-0.1,0.1-0.6,0.3-0.5,0.5c0.2,0.3,0.9-0.1,1.1-0.2c0.3-0.1,0.7-0.2,1-0.4
	c0.5-0.2,1.1-0.5,1.6-0.7c0,0,0,0,0.1,0.1c-0.3,0.2-0.7,0.4-1,0.5c-0.3,0.1-0.6,0.3-0.8,0.4c-0.1,0.1-0.3,0.1-0.4,0.2
	c-0.1,0.1-0.6,0.3-0.5,0.5c0.2,0.3,0.9-0.1,1.1-0.2c0.3-0.1,0.7-0.2,1-0.4c0.4-0.2,0.8-0.3,1.2-0.5c0,0,0.1,0,0.1,0.1
	c-0.1,0.1-0.3,0.2-0.4,0.3c-0.3,0.2-0.5,0.3-0.8,0.5c-0.1,0.1-0.2,0.2-0.3,0.2c-0.1,0.1-0.6,0.4-0.4,0.6c0.2,0.3,0.9-0.2,1.1-0.3
	c0.3-0.2,0.6-0.3,0.9-0.5c0.3-0.2,0.7-0.4,1-0.6c0.2-0.1,0.3-0.2,0.5-0.4c0.2-0.1,0.3-0.2,0.5-0.3c0.2-0.1,0.4-0.3,0.6-0.4
	c0.3-0.4,0.6-0.8,0.9-1.2c0,0,0,0,0,0c0.2-0.1,0.4-0.2,0.6-0.2c2-0.2,3.9-0.8,5.6-1.8c1.3-0.8,2.4-1.9,3.3-3.1
	c0.3-0.4,0.5-0.8,0.8-1.2c0.6-0.7,1.1-1.5,1.5-2.4c0.2-0.4,0.4-0.9,0.6-1.3C140.7,190.5,139.7,189.7,138.7,189z"/>
<path class="st15" d="M146.4,181.2c0,0.8-0.6,1.1-1.2,1.3c0,0,0,0,0,0.1c0.5,0.7,0.8,1.7,1.4,2.4c0.7,0.7,1.8,0.9,2.7,0.4
	c1.1-0.6,2.1-1.5,2.8-2.5c0.1-0.1,0.1-0.2,0.2-0.2c-0.2,0-0.3-0.1-0.5-0.1c-0.8-0.3-1-1-1.1-1.8c-0.1-1-0.1-2,0-2.9
	c0-0.5,0-1.9,0.4-2.2c0,0,0-0.1,0-0.1c-0.6,0-1.1,0.1-1.7,0.2c-0.4,0.1-0.8,0.3-1.2,0.6c-0.7,0.7-1.5,1.3-2.4,1.9
	C146.4,179,146.5,180.1,146.4,181.2z"/>
<path class="st21" d="M165.3,200.6c-0.6-0.9-1.3-2-1.9-2.9c-0.7-0.8-1.3-1.6-1.8-2.5c-0.6-1.5-0.9-3.1-1.5-4.7
	c0-0.1-0.1-0.2-0.1-0.3c-0.3,0.2-0.6,0.4-0.8,0.6c-0.8,0.6-1.4,1.4-2.2,1.9c0.2,0.2,0.3,0.4,0.5,0.7c0.3,0.4,0.5,0.9,0.8,1.3
	c0.3,0.5,0.6,1,0.9,1.5c0.4,1.2,1,2.4,1.6,3.5c1,1.4,2.1,2.8,3.4,3.9c0.7,0.7,2.5,1.2,2.9-0.2C167,202.7,165.7,201.2,165.3,200.6z"
	/>
<path class="st45" d="M146.8,244.2c-0.8,0.2-1.6,0.3-2.5,0.3c-0.5,0-1,0-1.5-0.1c-0.2,0.5-0.4,1-0.6,1.4c-0.3,0.7-0.9,1.3-1.6,1.6
	c-0.4,0.1-0.8,0.2-1.3,0.4c-0.3,0.1-1,0.3-1.2,0.6c0,0,0,0.1-0.1,0.1c0.1,0.1,0.2,0.1,0.2,0.2c0.3,0.3,0.8,0.5,1.2,0.6
	c0.5,0.1,1.1,0.1,1.6,0.1c0.6,0,1.1-0.1,1.6-0.2c0.2-0.1,0.4-0.2,0.5-0.2c0.1-0.1,0.2-0.1,0.3-0.2c0.6-0.6,1.4-1,2.2-1.2
	c0.5,0,0.9-0.2,1.3-0.4c0.2-0.1,0.3-0.2,0.5-0.3c0-0.6-0.1-1.2-0.3-1.7C147.1,244.8,147,244.5,146.8,244.2z"/>
<path class="st46" d="M145.3,247.7L145.3,247.7c0,0.2,0.1,0.4,0.1,0.5c0.8-0.1,1.5-0.4,2.1-0.9c0-0.2,0-0.4,0-0.6
	c-0.4,0.4-0.9,0.6-1.4,0.7c-0.5,0-1,0.2-1.5,0.4c-0.4,0.2-0.7,0.5-1,0.7c-1.1,0.6-2.4,0.8-3.6,0.6c-0.6-0.1-1.3-0.3-1.8-0.7
	c0,0,0,0,0,0.1c-0.5,0.8,1.4,1.2,1.8,1.3c1.2,0.2,2.5,0,3.6-0.6c0.2-0.2,0.4-0.3,0.5-0.6c0.2-0.3,0.5-0.5,0.8-0.7
	c0.1-0.1,0.2-0.1,0.2-0.2C145.1,247.7,145.2,247.6,145.3,247.7z"/>
<path class="st45" d="M155.5,245.6c-1.5,0.1-3,0-4.5-0.2c0,0.4,0,0.7-0.1,1.1c-0.2,0.5-0.6,0.8-0.8,1.3c-0.2,0.5-0.5,1-0.7,1.4
	c-0.4,0.4-0.8,0.8-1.2,1.2c-0.2,0.2-0.4,0.4-0.4,0.7c-0.1,0.3,0.2,0.5,0.4,0.7c0.2,0.1,0.3,0.2,0.5,0.2c0.4,0.1,0.8,0.1,1.2,0.1
	c0.4,0,0.7-0.1,1.1-0.3c0.4-0.1,0.7-0.3,1-0.5c0.2-0.2,0.4-0.3,0.6-0.5c0.1-0.1,0.3-0.3,0.4-0.4c0.2-0.2,0.4-0.5,0.6-0.8
	c0.1-0.2,0.2-0.4,0.3-0.6c0.2-0.3,0.4-0.6,0.8-0.7c0.2-0.1,0.4-0.2,0.6-0.3c0.2-0.1,0.3-0.2,0.5-0.3c0.1-0.1,0.2-0.1,0.2-0.2
	c0,0,0.1-0.1,0.1-0.1c0,0,0-0.1,0-0.1c0,0,0-0.1,0-0.1c0-0.1,0-0.1,0-0.2c0-0.2-0.1-0.4-0.1-0.6c0-0.1,0-0.2-0.1-0.3
	c0-0.1,0-0.1-0.1-0.2C155.6,245.7,155.6,245.7,155.5,245.6C155.5,245.6,155.5,245.6,155.5,245.6z"/>
<path class="st46" d="M155.9,247.3c0,0,0-0.3,0-0.3c-0.1,0-0.1,0.1-0.2,0.2s-0.1,0.1-0.1,0.1c-0.1,0.1-0.2,0.2-0.4,0.3
	c-0.2,0.2-0.5,0.4-0.8,0.6c-0.2,0.1-0.5,0.2-0.6,0.5c-0.2,0.3-0.3,0.7-0.6,1c-0.2,0.3-0.5,0.6-0.7,0.8c-0.9,1-2.3,1.5-3.6,1.2
	c-0.4-0.1-1.1-0.3-1.2-0.7l0,0c-0.1,0.2-0.1,0.4,0,0.5c0.2,0.4,0.9,0.6,1.3,0.7c1.3,0.3,2.7-0.2,3.6-1.2c0.4-0.4,0.8-0.8,1-1.4
	c0.1-0.5,0.3-0.9,0.7-1.2c0,0,0.3,0.2,0.3,0.3C155.1,248.3,155.5,247.8,155.9,247.3C155.9,247.3,155.9,247.3,155.9,247.3z"/>
<path class="st47" d="M155.2,218.2c0-1.8,0-3.7,0-5.5c0-0.9,0.1-1.9,0-2.8c-0.2-0.6-0.3-1.3-0.3-2c0.1-0.5,0.1-1.1,0.1-1.6
	c-0.1-0.9-1.1-1.4-1.9-1.6c-1.8-0.5-3.8,0-5.6,0.1c-0.7,0-4-0.3-4.3,0.2c-0.9,1.3-0.5,3-0.8,4.5c-0.9,5.3-0.8,10.9-1.2,16.3
	c-0.2,1.6-0.2,3.2,0,4.8c0.3,2.4,0.6,4.9,0.7,7.3s0,5,0.2,7.5c1.4-0.1,3.1,0.5,4.5,0.3c1-0.2,0.7-0.8,0.7-1.7c0-0.8,0-1.5-0.1-2.3
	c-0.1-2.9-0.3-5.8-0.8-8.7c-0.2-1.3,0.4-3.1,0.6-4.3c0.3-1.9,0.4-3.8,0.6-5.7c0.2-1.3,0.4-2.6,0.6-4c0.8,4.1-0.1,8.4,0.6,12.5
	c0.4,2.4,0.8,4.8,1.1,7.3s0.3,5,0.5,7.4c1.1-0.1,5.3,1,5.6-0.8c0-0.5,0-1,0-1.5c0-1-0.1-2-0.1-3c-0.1-1.6-0.4-3.3-0.9-4.8
	c-0.3-1.2-0.4-2.4-0.4-3.7c-0.2-2.6-0.1-5.3,0.3-7.9C155.1,222.4,155.2,220.3,155.2,218.2z"/>
<path class="st48" d="M149.8,211.1c1.8-0.1,3.6-0.4,5.4-1.1c0-0.1,0-0.1,0-0.2c-0.2-0.6-0.3-1.3-0.3-2c0.1-0.5,0.1-1.1,0.1-1.6
	c-0.1-0.9-1.1-1.4-1.9-1.6c-1.8-0.5-3.8,0-5.6,0.1c-0.7,0-4-0.3-4.3,0.2c-0.9,1.3-0.5,3-0.8,4.5c0,0.3-0.1,0.5-0.1,0.8
	C144.7,211,147.3,211.3,149.8,211.1z"/>
<path class="st49" d="M159.3,188.9c-0.3-0.7-0.5-1.4-0.8-2s-0.7-1.3-1-1.9c-0.3-0.8-1-1.5-1.8-1.8c-1.1-0.2-2.1-0.4-3.1-0.7
	c-0.5-0.2-1-0.4-1.5-0.5c0,0-0.3,0.3-0.3,0.4c-0.1,0.1-0.2,0.2-0.3,0.3c-0.2,0.2-0.5,0.4-0.7,0.6c-0.5,0.4-1.1,0.7-1.7,0.8
	c-0.4,0-0.8,0-1.1-0.2c0,0,0,0,0.1,0c-0.8-0.2-1.4-0.8-1.7-1.6c-0.8,0.4-1.7,0.7-2.6,0.9c-0.8,0.2-1.6,0.6-2.3,1
	c-0.7,0.5-0.8,1.2-1.1,2c-0.4,1.3-1,2.5-1.7,3.6c-0.2,0.4-0.4,0.8-0.7,1.2c0.8,0.4,1.6,0.9,2.3,1.4c0.3,0.4,0.7,0.7,1,0.9
	c0.2,0.1,0.5,0.3,0.7,0.5c0.1-0.3,0.2-0.6,0.4-0.9c0.2-0.4,0.4-0.9,0.7-1.3c0,0.5,0.1,1,0.1,1.5c0.2,2,0.2,3.9,0.1,5.9
	c-0.2,2.2,0,4.4-0.2,6.6c0,0.5-0.1,1-0.1,1.4c0,0.4-0.1,0.8-0.1,1.2c0,0.3,0.1,0.7,0.4,0.9c0.4,0.2,0.8,0.3,1.2,0.4
	c1.8,0.4,3.6,0.5,5.4,0.5c1.2,0,2.3-0.1,3.5-0.4c0.5-0.1,1-0.2,1.5-0.4c0.4-0.1,0.7-0.2,1-0.5c0.1-0.2,0.2-0.4,0.2-0.6
	c0-0.3,0-0.6,0-1c0-1.2-0.1-2.5,0-3.7c0.1-0.8,0-1.7,0-2.6c0-1.4,0.1-2.8,0.2-4.1c0-0.7,0-1.4,0-2.1c-0.1-0.7,0-1.4,0.2-2.1
	c0.1,0.5,0.4,0.9,0.7,1.3c0.4-0.5,0.9-0.9,1.4-1.2c0.4-0.3,0.9-0.6,1.3-1c0.3-0.3,0.8-0.7,1.2-0.7
	C160,190.3,159.7,189.6,159.3,188.9z"/>
<path class="st50" d="M147.1,185l-1.4,14.7l1.3,3.5l1.4-3.8l-0.5-14.5L147.1,185z"/>
<path class="st21" d="M150.6,174.6c0.2-0.5,0.5-0.8,1-0.4c0.3,0.3,0.3,0.9,0.2,1.3c-0.1,0.5-0.7,2.1-1.3,1.2
	c-0.1,0.4-0.2,0.9-0.3,1.3c-0.2,0.5-0.4,1-0.7,1.4c-0.5,0.7-1.3,1.2-2.2,1.3c-2,0.1-3.6-2.3-3.7-5.3c0-0.6-0.1-1.4,0.4-1.8
	c0.6-0.4,1.2-0.7,1.8-0.9c0.6-0.2,1.2-0.4,1.8-0.8c0.2-0.1,0.4-0.2,0.5-0.3c0,0.3,0,0.5,0,0.8c0.1,0.7,0.4,1.3,0.8,1.8
	c0.4,0.5,0.9,0.9,1.3,1.4C150.4,175.2,150.4,174.9,150.6,174.6z"/>
<path class="st51" d="M145.4,210.9l0.1-1c0-0.1,0.1-0.1,0.1-0.1c0,0,0,0,0,0l2.2,0.1c0.1,0,0.1,0.1,0.1,0.2l-0.1,1
	c0,0.1-0.1,0.1-0.1,0.1c0,0,0,0,0,0l-2.2-0.1C145.4,211.1,145.4,211,145.4,210.9C145.4,210.9,145.4,210.9,145.4,210.9z"/>
<rect x="160.6" y="200.4" transform="matrix(0.538 -0.843 0.843 0.538 -95.4823 235.151)" class="st52" width="12.4" height="8.5"/>
<rect x="169.7" y="197.4" transform="matrix(0.5387 -0.8425 0.8425 0.5387 -89.7126 235.3224)" class="st49" width="0.8" height="4.3"/>
<rect x="138.2" y="189.6" transform="matrix(0.5931 -0.8051 0.8051 0.5931 -98.2996 190.032)" class="st53" width="1.3" height="5.3"/>
<rect x="156.2" y="192" transform="matrix(0.8081 -0.589 0.589 0.8081 -82.9873 130.4988)" class="st53" width="5.3" height="1.3"/>
<path class="st21" d="M172,205.3c0-0.1,0-0.2-0.1-0.3c-0.1-0.1-0.4-0.1-0.6-0.1c-0.2,0-0.6,0.1-0.4,0.4c0.2,0.2,0.5,0.3,0.7,0.3
	c0.1,0,0.2-0.1,0.2-0.2C171.9,205.3,171.9,205.3,172,205.3z"/>
<path class="st21" d="M171.7,206.2c0-0.2-0.3-0.2-0.5-0.2c-0.2,0-0.4,0-0.6,0c-0.3-0.1-0.5-0.1-0.8-0.1c-0.2,0-0.5,0.1-0.3,0.3
	c0.2,0.2,0.5,0.3,0.8,0.3c0.1,0,0.1,0,0.2,0c-0.1,0-0.1,0-0.2,0c-0.3-0.1-0.6-0.1-0.8-0.1c-0.2,0-0.6,0.1-0.4,0.4
	c0.2,0.3,0.6,0.3,0.8,0.4l0.1,0c-0.1,0-0.2,0-0.2,0c-0.3-0.1-0.5-0.1-0.8-0.1c-0.2,0-0.5,0.1-0.3,0.3c0.2,0.2,0.5,0.3,0.8,0.3
	c0.1,0,0.1,0,0.2,0.1c-0.1,0-0.2,0-0.3,0c-0.3-0.1-0.5-0.1-0.8-0.1c-0.2,0-0.5,0.1-0.3,0.3c0.2,0.2,0.5,0.3,0.8,0.3
	c0.3,0.1,0.6,0.2,0.9,0.1c0,0,0.1,0,0.1-0.1c0.2-0.1,0.4-0.3,0.4-0.4c0-0.1,0-0.1-0.1-0.1l0,0c0,0,0.1,0,0.1-0.1
	c0.2-0.1,0.4-0.3,0.4-0.4c0,0,0-0.1,0-0.1c0,0,0.1,0,0.1,0c0,0,0.1,0,0.1-0.1c0.2-0.1,0.4-0.3,0.4-0.5c0-0.1-0.1-0.2-0.2-0.2
	c0,0,0.1,0,0.1,0C171.5,206.5,171.7,206.3,171.7,206.2z"/>
<path class="st54" d="M148.3,184.6c-0.2-0.2-0.3-0.4-0.4-0.6c0,0,0,0,0,0l-0.1,0c-0.1,0-0.1,0-0.2,0c0,0-0.1,0-0.1,0
	c-0.1,0.1-0.2,0.2-0.4,0.3c-0.1,0-0.1,0.1-0.2,0.1c0,0.1-0.1,0.1-0.1,0.2c0,0.2,0.1,0.5,0.2,0.7c0.1,0.2,0.2,0.4,0.4,0.5
	c0.1,0,0.1,0,0.2,0c0.2,0,0.3-0.1,0.4-0.2c0.2-0.2,0.3-0.5,0.4-0.7C148.4,184.7,148.4,184.7,148.3,184.6
	C148.3,184.7,148.3,184.6,148.3,184.6z"/>
<path class="st53" d="M152.2,182.1c-0.1-0.1-0.3-0.2-0.4-0.3c-0.1-0.1-0.1-0.2-0.2-0.3c-0.1-0.2-0.3-0.4-0.5-0.4
	c-0.1,0.1-0.1,0.2-0.1,0.4c-0.3,0.4-0.6,0.8-1,1.1c-0.4,0.4-0.8,0.7-1.3,1c-0.3,0.3-0.7,0.4-1.2,0.4c-0.2-0.4-0.5-0.8-0.8-1.1
	c-0.2-0.3-0.3-0.6-0.4-1c0-0.2-0.1-0.4-0.1-0.5c0-0.1,0-0.2-0.2-0.2c-0.1,0-0.2,0.1-0.3,0.2c-0.2,0.2-0.3,0.3-0.4,0.5
	c-0.2,0.2-0.4,0.5-0.6,0.8c0.4,0.8,0.6,1.8,1.1,2.6c0.6-0.4,1.2-0.7,1.7-1l0,0c0.2,0.2,0.5,0.4,0.7,0.6c0.3,0.2,0.5,0.5,0.7,0.8h0
	c0.7-0.3,1.4-0.7,1.9-1.2c0.3-0.3,0.6-0.6,0.9-0.9c0.3-0.3,0.5-0.6,0.7-0.9C152.6,182.3,152.2,182.1,152.2,182.1z"/>
<path class="st55" d="M137.4,174.5l-3.8-7.7c0-0.2,0.1-0.5,0.1-0.7v-6.6c0-1.9-1.5-3.5-3.5-3.5h-25.6c-1.9,0-3.5,1.5-3.5,3.5v6.6
	c0,1.9,1.5,3.5,3.5,3.5h24.7L137.4,174.5z"/>
<path class="st56" d="M110.9,162.9c0,1.3-1,2.3-2.3,2.3c-1.3,0-2.3-1-2.3-2.3s1-2.3,2.3-2.3S110.9,161.6,110.9,162.9
	C110.9,162.9,110.9,162.9,110.9,162.9z"/>
<path class="st56" d="M119.4,162.9c0,1.3-1,2.3-2.3,2.3c-1.3,0-2.3-1-2.3-2.3s1-2.3,2.3-2.3S119.4,161.6,119.4,162.9
	C119.4,162.9,119.4,162.9,119.4,162.9z"/>
<path class="st56" d="M128,162.9c0,1.3-1,2.3-2.3,2.3c-1.3,0-2.3-1-2.3-2.3s1-2.3,2.3-2.3S128,161.6,128,162.9
	C128,162.9,128,162.9,128,162.9z"/>
<path class="st57" d="M59.8,227.3c-0.1-5.9-4.9-10.6-10.8-10.6c0,0-0.1,0-0.1,0c-6,0-10.8,4.9-10.8,10.8c0.1,5.6,4.5,10.3,10.1,10.5
	l0,2.6c-1,0.3-1.7,1.3-1.7,2.4l0.1,11.6c0,1.4,1.2,2.5,2.5,2.5c0,0,0,0,0,0c1.4,0,2.5-1.1,2.5-2.5l-0.1-11.6c0-1.1-0.7-2.1-1.8-2.4
	l0-2.6C55.4,237.7,59.8,233,59.8,227.3z M41.5,227.6c0-4.1,3.3-7.4,7.4-7.4c4.1-0.1,7.4,3.1,7.5,7.2c0,0,0,0,0,0.1
	c0,4.1-3.3,7.4-7.4,7.4C45,234.9,41.6,231.7,41.5,227.6C41.5,227.6,41.5,227.6,41.5,227.6L41.5,227.6z"/>
<path class="st10" d="M50.2,240.7L50.2,240.7c-0.3,0-0.5,0-0.8,0c-0.3,0-0.5,0-0.8,0v0c-1,0.3-1.7,1.3-1.7,2.4l0.1,11.6
	c0,1.4,1.2,2.5,2.5,2.5c0,0,0,0,0,0c1.4,0,2.5-1.1,2.5-2.5L52,243.1C51.9,242,51.2,241,50.2,240.7z"/>
</svg>
