<?xml version="1.0" encoding="utf-8"?>
<!-- Generator: Adobe Illustrator 25.2.1, SVG Export Plug-In . SVG Version: 6.00 Build 0)  -->
<svg version="1.1" id="Layer_1" xmlns="http://www.w3.org/2000/svg" xmlns:xlink="http://www.w3.org/1999/xlink" x="0px" y="0px"
	 viewBox="0 0 208 295" style="enable-background:new 0 0 208 295;" xml:space="preserve">
<style type="text/css">
	.st0{fill:#FFFFFF;}
	.st1{fill:#00165E;}
	.st2{fill:#EC4115;}
	.st3{enable-background:new    ;}
	.st4{fill:#694E24;}
	.st5{fill:#FCC75E;}
	.st6{fill:#FCBD5E;}
	.st7{fill:#C6C6C6;}
	.st8{fill:#B2B2B2;}
	.st9{fill:#9D9D9C;}
	.st10{fill:#BFDBED;}
	.st11{fill:#CAE2EF;}
	.st12{fill:#CEE1EA;}
	.st13{fill:#DFECF4;}
	.st14{fill:#C5C0D8;}
	.st15{fill:#D4D3E2;}
	.st16{fill:#257B99;}
	.st17{opacity:0.11;fill:#1D1D1B;enable-background:new    ;}
	.st18{fill:#ABBFED;}
	.st19{opacity:0.61;fill:#36A9E1;enable-background:new    ;}
	.st20{fill:#C9D8F7;}
	.st21{fill:#936037;}
	.st22{fill:#CEE7F4;}
	.st23{fill:#B36037;}
	.st24{fill:#DBD5F7;}
	.st25{fill:#938A37;}
	.st26{fill:#E3E1F4;}
	.st27{fill:#936082;}
	.st28{fill:#F4B295;}
	.st29{fill:#103A51;}
	.st30{fill:#085CB7;}
	.st31{fill:#FFC4A4;}
	.st32{fill:#194866;}
	.st33{fill:#843C00;}
	.st34{fill:#36A1E1;}
	.st35{fill:#1F6CD2;}
	.st36{fill:#C6A6C6;}
	.st37{fill:#398DEA;}
	.st38{fill:#CC7650;}
	.st39{fill:#94A9D3;}
	.st40{opacity:0.38;fill:#FFFFFF;enable-background:new    ;}
	.st41{opacity:0.33;fill:#94A9D3;enable-background:new    ;}
	.st42{fill:#0C90AF;}
	.st43{fill:#D6D1ED;}
	.st44{fill:#2E5563;}
	.st45{fill:#476E7F;}
	.st46{fill:#BAC6C6;}
	.st47{fill:#DCB8DD;}
	.st48{fill:#575756;}
	.st49{fill:#1EA8D3;}
	.st50{fill:#E8CAEA;}
	.st51{fill:#423C28;}
	.st52{fill:#EDD6ED;}
	.st53{fill:#3C3C3B;}
	.st54{fill:#4CBCD6;}
	.st55{fill:#9E3057;}
	.st56{fill:#203F47;}
	.st57{fill:#C94366;}
	.st58{fill:#FFC328;}
	.st59{fill:#E2A110;}
	.st60{fill:#878787;}
	.st61{fill:none;}
	.st62{opacity:0.24;fill:#936082;enable-background:new    ;}
</style>
<g transform="translate(-7278 -2725)">
	<rect x="7278" y="2725" class="st0" width="208" height="295"/>
	<g transform="translate(7308 2799.717)">
		<g transform="translate(0 0)">
			<rect x="14.1" y="13.2" class="st1" width="3.6" height="11.6"/>
			<path class="st1" d="M31.1,15.8h3.4v9h3.6v-9h3.5v-2.6H31.1V15.8z"/>
			<path class="st1" d="M47.6,20.3h4.8v-2.5h-4.8v-2h5.4v-2.6H44v11.6h8.9v-2.6h-5.4L47.6,20.3z"/>
			<path class="st1" d="M7.9,13.2L3.8,19l4.1,5.8h3.9L7.7,19l4.1-5.8H7.9z"/>
			<path class="st1" d="M3.5,13.2H0v11.6h3.5V13.2z"/>
			<path class="st1" d="M59.7,13.2h-4.4v11.6h3.5v-9.3h0.9c1.3,0,1.7,0.6,1.7,1.4c0,1-0.3,1.6-1.7,1.6h-0.9l1.3,2.4
				c4.5-0.1,4.9-2.8,4.9-4C65,15.7,64.5,13.2,59.7,13.2z"/>
			<path class="st2" d="M0,3.3v3.1C21.4,2,43.6,2,65,6.3V3.3C43.6-1.1,21.4-1.1,0,3.3z"/>
			<path class="st1" d="M25.9,17.8c-1.7-0.6-2.4-0.8-2.4-1.4c0-0.5,0.6-0.9,1.7-0.9c1.2,0,2.4,0.2,3.6,0.7v-2.6
				c-1.1-0.4-2.3-0.6-3.5-0.6c-3.4,0-5.4,1.6-5.4,3.6c0,1.7,1.5,2.8,3.8,3.5c1.5,0.4,2.1,0.8,2.1,1.3c0,0.6-0.6,1-1.8,1
				c-1.3,0-2.7-0.2-3.9-0.7v2.6c1.2,0.4,2.4,0.6,3.7,0.6c3.9,0,5.7-1.7,5.7-3.7C29.4,19.7,28.3,18.5,25.9,17.8z"/>
		</g>
	</g>
	<g class="st3">
		<path d="M7310.4,2832.5h11.1v17.8h-11.1V2832.5z M7319.2,2848.1v-13.5h-6.6v13.5H7319.2z M7325.3,2831.8h2.3v19.6h-2.3V2831.8z"/>
		<path d="M7334.5,2848.2c2.4,0,4.3-0.3,5.7-0.9v2.1c-1.3,0.6-3.2,0.9-5.7,0.9h-3.6v-10.1h5.8v-5.7h-5.8v-2h8v9.7h-5.8v6H7334.5z
			 M7349.1,2831.8v19.6h-2.2v-9.6h-3.2v9.3h-2.2v-19.2h2.2v7.8h3.2v-7.9H7349.1z"/>
		<path d="M7363.3,2831.9h2.1v19.2h-2.1v-5.3h-3.1c-0.3,1.6-0.8,2.8-1.5,3.6s-1.6,1.2-2.7,1.2c-1.5,0-2.6-0.7-3.4-2.2
			c-0.8-1.5-1.1-3.8-1.1-6.9s0.4-5.4,1.1-6.9c0.8-1.5,1.9-2.2,3.4-2.2c2.1,0,3.4,1.4,4,4.1h3.3V2831.9z M7357.8,2846.7
			c0.4-1.1,0.6-2.9,0.6-5.3s-0.2-4.2-0.6-5.3c-0.4-1.1-1-1.7-1.8-1.7s-1.4,0.6-1.8,1.7c-0.4,1.2-0.6,2.9-0.6,5.3s0.2,4.2,0.6,5.3
			c0.4,1.2,1,1.7,1.8,1.7S7357.4,2847.8,7357.8,2846.7z M7363.3,2843.6v-5.2h-2.9c0.1,0.9,0.1,1.9,0.1,2.9c0,0.8,0,1.6-0.1,2.3
			H7363.3z M7370.1,2831.8v19.6h-2.1v-19.6H7370.1z"/>
		<path d="M7391.8,2841.8v1.9h-19.6v-1.9H7391.8z M7381.5,2837.7c-1,0.8-2.3,1.4-3.8,1.9c-1.5,0.5-3.1,0.7-4.8,0.7v-1.8
			c1.1,0,2.3-0.2,3.4-0.5s2.1-0.7,3-1.2c0.8-0.5,1.4-1.2,1.7-1.9h-7.7v-1.8h7.5v-2.1h2.3v2.1h7.5v1.8h-7.2c-0.1,0.5-0.3,0.9-0.6,1.3
			l8.3,2.4l-0.6,1.8L7381.5,2837.7z M7373.4,2845.7h17v5.7h-2.3v-3.8h-14.7V2845.7z"/>
	</g>
	<g class="st3">
		<path d="M7328.1,2851.9h-3.3v-20.6h3.3V2851.9z M7325.8,2850.9h1.3v-18.6h-1.3V2850.9z M7322,2850.7h-12.1V2832h12.1V2850.7z
			 M7310.9,2849.7h10.1V2833h-10.1V2849.7z M7319.7,2848.6h-7.6v-14.5h7.6V2848.6z M7313.2,2847.6h5.6v-12.5h-5.6V2847.6z"/>
		<path d="M7349.6,2851.9h-3.2v-9.6h-2.2v9.3h-3.2v-20.2h3.2v7.8h2.2v-7.9h3.2V2851.9z M7347.5,2850.9h1.2v-18.6h-1.2v7.9h-4.2v-7.8
			h-1.2v18.2h1.2v-9.3h4.2V2850.9z M7334.4,2850.7h-4.1v-11.1h5.8v-4.7h-5.8v-3h9v10.7h-5.8v5h1c2.3,0,4.1-0.3,5.5-0.9l0.7-0.3v3.2
			l-0.3,0.1C7339,2850.4,7337.1,2850.7,7334.4,2850.7z M7331.3,2849.7h3.1c2.2,0,4-0.2,5.2-0.7v-1c-1.4,0.5-3.1,0.7-5.2,0.7h-2v-7
			h5.8v-8.7h-7v1h5.8v6.7h-5.8V2849.7z"/>
		<path d="M7370.6,2851.9h-3.1v-20.6h3.1V2851.9z M7368.5,2850.9h1.1v-18.6h-1.1V2850.9z M7365.9,2851.5h-3.1v-5.3h-2.2
			c-0.3,1.5-0.8,2.6-1.5,3.4c-0.8,0.9-1.8,1.3-3.1,1.3c-1.7,0-3-0.8-3.8-2.5c-0.8-1.6-1.2-3.9-1.2-7.1c0-3.2,0.4-5.6,1.2-7.1
			c0.8-1.7,2.1-2.5,3.8-2.5c2.2,0,3.7,1.4,4.4,4.1h2.4v-4.4h3.1V2851.5z M7363.8,2850.5h1.1v-18.2h-1.1v4.4h-4.2l-0.1-0.4
			c-0.6-2.5-1.7-3.7-3.5-3.7c-1.3,0-2.3,0.6-2.9,1.9c-0.7,1.4-1.1,3.6-1.1,6.7c0,3,0.4,5.3,1.1,6.7c0.7,1.3,1.6,1.9,2.9,1.9
			c0.9,0,1.7-0.3,2.3-1c0.6-0.7,1.1-1.8,1.4-3.3l0.1-0.4h4V2850.5z M7356,2848.9c-0.7,0-1.7-0.4-2.3-2.1c-0.4-1.2-0.6-3-0.6-5.5
			c0-2.5,0.2-4.3,0.6-5.5c0.6-1.7,1.6-2.1,2.3-2.1c0.7,0,1.7,0.4,2.3,2.1c0.4,1.2,0.6,3,0.6,5.5c0,2.5-0.2,4.3-0.6,5.5
			C7357.7,2848.5,7356.7,2848.9,7356,2848.9z M7356,2834.8c-0.2,0-0.9,0-1.3,1.4c-0.4,1.1-0.6,2.8-0.6,5.2c0,2.3,0.2,4.1,0.6,5.2
			c0.5,1.4,1.1,1.4,1.3,1.4c0.2,0,0.9,0,1.3-1.4l0,0c0.4-1.1,0.5-2.8,0.5-5.2c0-2.4-0.2-4.1-0.5-5.2
			C7356.9,2834.8,7356.2,2834.8,7356,2834.8z M7363.8,2844.1h-3.9l0-0.5c0-0.7,0.1-1.4,0.1-2.2c0-1.1,0-2-0.1-2.9l-0.1-0.6h4V2844.1
			z M7361,2843.1h1.8v-4.2h-1.9c0.1,0.7,0.1,1.6,0.1,2.4C7361,2842,7361,2842.6,7361,2843.1z"/>
		<path d="M7390.9,2851.9h-3.3v-3.8h-14.7v-2.9h18V2851.9z M7388.6,2850.9h1.3v-4.7h-16v0.9h14.7V2850.9z M7392.3,2844.2h-20.6v-2.9
			h20.6V2844.2z M7372.7,2843.2h18.6v-0.9h-18.6V2843.2z M7390.8,2840.9l-9.2-2.7c-1,0.8-2.3,1.4-3.8,1.8c-1.6,0.5-3.2,0.7-4.9,0.8
			l-0.5,0v-2.8l0.5,0c1.1,0,2.2-0.2,3.3-0.5c1.1-0.3,2-0.7,2.8-1.2c0.5-0.3,0.8-0.6,1.1-1h-7.3v-2.8h7.5v-2.1h3.3v2.1h7.5v2.8h-7.3
			c-0.1,0.2-0.1,0.4-0.2,0.5l8.2,2.3L7390.8,2840.9z M7373.5,2838.9v0.8c1.4-0.1,2.8-0.3,4.1-0.7c1.5-0.4,2.7-1.1,3.6-1.8l0.2-0.2
			l8.8,2.6l0.3-0.8l-8.4-2.4l0.4-0.6c0.2-0.4,0.4-0.7,0.5-1.2l0.1-0.4h7.1v-0.8h-7.5v-2.1h-1.3v2.1h-7.5v0.8h7.9l-0.3,0.7
			c-0.3,0.8-1,1.6-1.9,2.1c-0.9,0.6-1.9,1-3.1,1.3C7375.5,2838.7,7374.5,2838.9,7373.5,2838.9z"/>
	</g>
	<g transform="translate(5198.251 2250.111)">
		<path class="st4" d="M2109,736.4c-0.7,0.5-1.2,1.3-1.2,2.1v0.8c0,0.9,0.5,1.7,1.2,2.1V736.4z"/>
		<path class="st5" d="M2230.2,667.7c0.4-0.9,0.6-1.9,0.8-2.9c0.8-0.3,1.8-0.5,2.7-0.4v0l0-3.4v0c-0.9,0.1-1.8-0.1-2.7-0.4
			c-0.2-1-0.4-1.9-0.8-2.9c0.6-0.7,1.3-1.3,2.1-1.7l0,0l-1.7-3l0,0c-0.8,0.5-1.6,0.8-2.5,1c-0.6-0.8-1.3-1.5-2.1-2.1
			c0.1-0.9,0.5-1.8,1-2.6l0,0l-2.9-1.7l0,0c-0.4,0.8-1,1.5-1.7,2.1c-0.9-0.4-1.9-0.6-2.8-0.8c-0.3-0.9-0.5-1.8-0.4-2.7h-3.5
			c0.1,0.9-0.1,1.8-0.4,2.7c-1,0.2-2,0.4-2.9,0.8c-0.7-0.6-1.3-1.3-1.7-2.1l0,0l-2.9,1.7l0,0c0.5,0.8,0.8,1.6,1,2.6
			c-0.8,0.6-1.4,1.3-2.1,2.1c-0.9-0.1-1.8-0.5-2.5-1l0,0l-1.7,3l0,0c0.8,0.4,1.5,1,2.1,1.7c-0.3,0.9-0.6,1.9-0.8,2.9
			c-0.8,0.3-1.8,0.5-2.7,0.4v0l0,3.4v0.1c0.9-0.1,1.8,0.1,2.7,0.4c0.2,1,0.4,1.9,0.8,2.9c-0.6,0.7-1.3,1.3-2.1,1.7l0,0l1.7,3l0,0
			c0.8-0.5,1.6-0.8,2.5-1c0.6,0.8,1.3,1.5,2.1,2.1c-0.1,0.9-0.5,1.8-1,2.6l0,0l2.9,1.7l0,0c0.4-0.8,1-1.5,1.7-2.1
			c0.9,0.4,1.9,0.6,2.8,0.8c0.3,0.9,0.5,1.8,0.4,2.7h3.5c-0.1-0.9,0.1-1.8,0.4-2.7c1-0.2,2-0.4,2.9-0.8c0.7,0.6,1.3,1.3,1.7,2.1l0,0
			l2.9-1.7l0,0c-0.5-0.8-0.8-1.6-1-2.6c0.8-0.6,1.5-1.3,2.1-2.1c0.9,0.1,1.8,0.5,2.5,1l0,0l1.7-3l0,0
			C2231.5,669,2230.7,668.4,2230.2,667.7z M2217.2,673c-5.7,0.1-10.4-4.5-10.5-10.2c-0.1-5.7,4.5-10.4,10.2-10.5
			c5.7-0.1,10.4,4.5,10.5,10.2c0,0.1,0,0.1,0,0.2C2227.4,668.3,2222.9,673,2217.2,673z"/>
		<path class="st6" d="M2217.2,672.3c-5.3,0.1-9.7-4.1-9.8-9.4s4.1-9.7,9.4-9.8s9.7,4.1,9.8,9.4c0,0.1,0,0.1,0,0.2
			C2226.7,667.9,2222.5,672.2,2217.2,672.3z M2217.2,655.1c-4.2-0.1-7.6,3.3-7.7,7.4s3.3,7.6,7.4,7.7c4.2,0.1,7.6-3.3,7.7-7.4
			c0,0,0-0.1,0-0.1C2224.7,658.5,2221.4,655.2,2217.2,655.1L2217.2,655.1z"/>
		<path class="st7" d="M2199.1,650.7c0.2-0.6,0.4-1.3,0.5-1.9c0.6-0.2,1.2-0.3,1.8-0.3v0v-2.3v0c-0.6,0-1.2-0.1-1.8-0.3
			c-0.1-0.7-0.3-1.3-0.5-1.9c0.4-0.5,0.9-0.9,1.4-1.2l0,0l-1.1-2l0,0c-0.5,0.3-1.1,0.6-1.7,0.7c-0.4-0.5-0.9-1-1.4-1.4
			c0.1-0.6,0.3-1.2,0.7-1.7l0,0l-2-1.1l0,0c-0.3,0.6-0.7,1-1.1,1.4c-0.6-0.2-1.3-0.4-1.9-0.5c-0.2-0.6-0.3-1.2-0.3-1.8h-2.3
			c0,0.6-0.1,1.2-0.3,1.8c-0.7,0.1-1.3,0.3-1.9,0.5c-0.5-0.4-0.9-0.9-1.1-1.4l0,0l-2,1.2l0,0c0.3,0.5,0.6,1.1,0.7,1.7
			c-0.5,0.4-1,0.9-1.4,1.4c-0.6-0.1-1.2-0.3-1.7-0.7l0,0l-1.1,2l0,0c0.5,0.3,1,0.7,1.4,1.2c-0.2,0.6-0.4,1.3-0.5,1.9
			c-0.6,0.2-1.2,0.3-1.8,0.3v0l0,2.3v0c0.6,0,1.2,0.1,1.8,0.3c0.1,0.7,0.3,1.3,0.5,1.9c-0.4,0.5-0.9,0.9-1.4,1.2l0,0l1.1,2l0,0
			c0.5-0.3,1.1-0.6,1.7-0.7c0.4,0.5,0.9,1,1.4,1.4c-0.1,0.6-0.3,1.2-0.7,1.7l0,0l2,1.1l0,0c0.3-0.6,0.7-1,1.1-1.4
			c0.6,0.2,1.3,0.4,1.9,0.5c0.2,0.6,0.3,1.2,0.3,1.8h2.3c0-0.6,0.1-1.2,0.3-1.8c0.7-0.1,1.3-0.3,1.9-0.5c0.5,0.4,0.9,0.9,1.1,1.4
			l0,0l2-1.2l0,0c-0.3-0.5-0.6-1.1-0.7-1.7c0.5-0.4,1-0.9,1.4-1.4c0.6,0.1,1.2,0.3,1.7,0.7l0,0l1.1-2l0,0
			C2200,651.6,2199.5,651.2,2199.1,650.7z M2190.4,654.3c-3.8,0.1-7-3-7.1-6.9s3-7,6.9-7.1c3.8-0.1,7,3,7.1,6.9c0,0,0,0.1,0,0.1
			C2197.3,651.1,2194.2,654.3,2190.4,654.3L2190.4,654.3z"/>
		<path class="st8" d="M2190.4,653.8c-3.6,0.1-6.5-2.8-6.6-6.4s2.8-6.5,6.4-6.6c3.6-0.1,6.5,2.8,6.6,6.4c0,0,0,0.1,0,0.1
			C2196.8,650.9,2194,653.8,2190.4,653.8z M2190.4,642.2c-2.8,0-5.1,2.2-5.2,5c0,2.8,2.2,5.1,5,5.2c2.8,0,5.1-2.2,5.2-5
			c0,0,0-0.1,0-0.1C2195.5,644.5,2193.2,642.3,2190.4,642.2L2190.4,642.2z"/>
		<path class="st9" d="M2137.4,655.6v3c0,0.5,0.3,0.9,0.8,1.1v0c0.1,0,0.2,0,0.3,0h1.9c0.1,0,0.2,0,0.3,0v0c0.5-0.1,0.8-0.6,0.8-1.1
			v-3L2137.4,655.6L2137.4,655.6z"/>
		<path class="st5" d="M2139.5,641.5h-0.2c-3.5,0-6.3,2.8-6.2,6.3c0,1.1,0.3,2.1,0.8,3c0.5,0.9,1.2,1.6,2,2.3
			c0.6,0.5,1.1,1.1,1.4,1.8c0.1,0.1,0.1,0.2,0.1,0.4h0.8v-2.5c0,0,0,0,0,0c-0.2-0.2-0.4-0.3-0.6-0.5c-0.2-0.2-0.5-0.4-0.5-0.7
			c0-0.3,0-0.7,0-1v-3.2c0-0.1,0.1-0.3,0.3-0.3c0.1,0,0.3,0.1,0.3,0.3v3.5c-0.1,0.4,0.2,0.9,0.6,1c0.1,0,0.3,0,0.4,0
			c0.4-0.4,1.1-0.4,1.5,0c0,0,0,0,0,0c0.3,0,0.6-0.1,0.8-0.2c0.2-0.2,0.2-0.5,0.2-0.7v-3.5c0-0.1,0.1-0.3,0.3-0.3
			c0.1,0,0.3,0.1,0.3,0.3v3.2c0,0.3,0,0.7,0,1c-0.1,0.3-0.3,0.5-0.5,0.7c-0.2,0.2-0.4,0.4-0.6,0.5c0,0,0,0,0,0v2.5h0.8
			c0-0.1,0.1-0.2,0.1-0.4c0.3-0.7,0.8-1.3,1.4-1.8c0.8-0.6,1.5-1.4,2-2.3c0.5-0.9,0.8-2,0.8-3C2145.7,644.4,2143,641.5,2139.5,641.5
			C2139.5,641.5,2139.5,641.5,2139.5,641.5z"/>
		<path class="st9" d="M2138.4,659.9c-0.1,0-0.2,0-0.3,0v0c0,0.4,0.3,0.6,0.6,0.6h1.1c0.4,0,0.6-0.3,0.6-0.6v0c-0.1,0-0.2,0-0.3,0
			H2138.4z"/>
		<path class="st5" d="M2128.4,646.9l3.6,0.6c0-0.3,0.1-0.6,0.1-0.9l-3.6-0.6L2128.4,646.9z"/>
		<path class="st5" d="M2129.4,643.6l3.2,1.6c0.1-0.3,0.2-0.5,0.4-0.8l-3.2-1.6L2129.4,643.6z"/>
		<path class="st5" d="M2134.4,642.6l-2.5-2.5l-0.6,0.6l2.5,2.5C2134,643,2134.2,642.8,2134.4,642.6z"/>
		<path class="st5" d="M2136.4,641.3l-1.6-3.1l-0.8,0.4l1.6,3.1C2135.8,641.6,2136.1,641.4,2136.4,641.3z"/>
		<path class="st5" d="M2138.6,640.7l-0.6-3.5l-0.9,0.2l0.6,3.4C2138.1,640.8,2138.3,640.8,2138.6,640.7z"/>
		<path class="st5" d="M2141.4,637.4l-0.9-0.1l-0.5,3.5c0.3,0,0.6,0.1,0.9,0.1L2141.4,637.4z"/>
		<path class="st5" d="M2144.6,638.5l-0.8-0.4l-1.5,3.2c0.3,0.1,0.5,0.2,0.8,0.4L2144.6,638.5z"/>
		<path class="st5" d="M2145,643.2l2.4-2.6l-0.6-0.6l-2.4,2.6C2144.6,642.8,2144.8,643,2145,643.2z"/>
		<path class="st5" d="M2148.9,642.7l-3.1,1.7c0.1,0.3,0.3,0.5,0.4,0.8l3.1-1.8L2148.9,642.7z"/>
		<path class="st5" d="M2150.2,645.9l-3.5,0.7c0.1,0.3,0.1,0.6,0.1,0.9l3.6-0.7L2150.2,645.9z"/>
		<path class="st10" d="M2162.8,652.7c-7,0-12.8-5.7-12.7-12.8c0-7,5.7-12.8,12.8-12.7c7,0,12.7,5.7,12.7,12.8
			C2175.6,647,2169.8,652.7,2162.8,652.7z M2162.8,629.3c-5.9,0-10.6,4.8-10.6,10.7c0,5.9,4.8,10.6,10.7,10.6
			c5.9,0,10.6-4.8,10.6-10.6C2173.4,634.1,2168.7,629.3,2162.8,629.3L2162.8,629.3z"/>
		<path class="st10" d="M2166.3,642.4c-0.5-1.2-1.4-2.3-2.5-2.9v-5c0.1,0,0.2,0.1,0.4,0.1c0.4,0.2,0.4,0.7,0.4,1.7v0.2h2.1
			c0-0.1,0-0.1,0-0.2c0-1.1,0-2.8-1.6-3.6c-0.4-0.2-0.9-0.3-1.3-0.4v-1.6h-1.1v1.6c-0.6,0-1.1,0.2-1.6,0.4c-0.8,0.4-1.4,1.2-1.7,2.1
			c-0.4,1.3-0.2,2.7,0.4,3.8c0.6,1,1.5,1.8,2.4,2.4c0.2,0.1,0.3,0.2,0.4,0.3v5c-0.3,0-0.5-0.1-0.7-0.2c-0.6-0.2-1-1.4-1-3l-2.1,0.1
			c0.1,1.4,0.4,4,2.3,4.8c0.5,0.2,1.1,0.3,1.6,0.4v0.8h1.1v-0.8c0.7-0.1,1.3-0.4,1.8-0.8C2166.5,646.8,2167.3,645.3,2166.3,642.4z
			 M2161.7,637.6c-0.3-0.7-0.4-1.4-0.2-2.2c0.1-0.3,0.3-0.6,0.6-0.8c0.2-0.1,0.4-0.2,0.7-0.2v4.3
			C2162.3,638.4,2162,638,2161.7,637.6z M2164.2,645.9c-0.1,0.1-0.3,0.2-0.4,0.2v-3.9c0.2,0.2,0.4,0.5,0.5,0.8
			C2164.6,644.1,2164.9,645.4,2164.2,645.9L2164.2,645.9z"/>
		<rect x="2103.5" y="697.6" class="st11" width="5.7" height="13.9"/>
		<rect x="2110.8" y="689.3" class="st11" width="5.7" height="22.2"/>
		<rect x="2118" y="683.7" class="st11" width="5.7" height="27.8"/>
		<rect x="2125.2" y="679.1" class="st11" width="5.7" height="32.4"/>
		<rect x="2132.5" y="671.8" class="st11" width="5.7" height="39.7"/>
		<path class="st12" d="M2262.4,720.6c0-1.3-20.7-2.4-46.3-2.4s-46.3,1.1-46.3,2.4c0,0.5,3.2,1,8.7,1.4c-22.2,0.2-39.3,1.2-39.3,2.4
			c0,1.3,20.7,2.4,46.3,2.4s46.3-1.1,46.3-2.4c0-0.5-3.2-1-8.7-1.4C2245.3,722.8,2262.4,721.8,2262.4,720.6z"/>
		<path class="st13" d="M2235.6,733.8c7.3-0.7,11.9-1.6,11.9-2.6c0-2-17.9-3.7-40-3.7s-40,1.7-40,3.7c0,0.4,0.7,0.8,1.9,1.1
			c-34.7,0.2-61.5,1.8-61.5,3.7c0,2,31.6,3.7,70.6,3.7s70.6-1.7,70.6-3.7C2249,735.2,2244,734.4,2235.6,733.8z"/>
		<rect x="2203.2" y="703.5" class="st5" width="57.2" height="6.4"/>
		<rect x="2203.2" y="694.2" class="st14" width="40.5" height="6.4"/>
		<rect x="2203.2" y="684.8" class="st10" width="21.4" height="6.4"/>
		<path class="st15" d="M2153.2,713.4l-1.2-14.5l-23.3,0.5l0,0c-0.5,0-0.9,0-1.4,0c-4.9,0-8.9,1.6-8.9,3.6c0,0.6,0.4,1.2,0.8,1.5
			c-0.1,0-0.1,0-0.2,0c-4.9,0-8.9,1.6-8.9,3.6c0,0.6,0.3,1.1,0.7,1.4h-0.3c-7.9,0-14.4,1.6-14.4,3.6c0,0.1,0,0.2,0.1,0.3
			L2153.2,713.4z"/>
		<path class="st16" d="M2215.9,685.5c0,22.3-18,40.3-40.3,40.3s-40.3-18-40.3-40.3c0-22.3,18-40.3,40.3-40.3
			C2197.8,645.2,2215.9,663.2,2215.9,685.5z"/>
		<path class="st0" d="M2214,685.5c0,21.2-17.2,38.4-38.4,38.4c-21.2,0-38.4-17.2-38.4-38.4c0-21.2,17.2-38.4,38.4-38.4
			C2196.8,647.1,2214,664.3,2214,685.5z"/>
		<path class="st17" d="M2175.6,647.1c-21.2,0-38.4,17.2-38.4,38.4c0,21.2,17.2,38.4,38.4,38.4c21.2,0,38.4-17.2,38.4-38.4
			C2214,664.3,2196.8,647.1,2175.6,647.1C2175.6,647.1,2175.6,647.1,2175.6,647.1z M2175.6,722.7c-20,0-36.1-16.7-36.1-37.2
			s16.2-37.2,36.1-37.2s36.1,16.7,36.1,37.2S2195.6,722.7,2175.6,722.7L2175.6,722.7z"/>
		<path class="st18" d="M2172.5,652.3l1.5-0.8h0.2v5.4c0,0.2,0,0.4,0,0.7c0,0.1,0.1,0.2,0.2,0.2c0.2,0.1,0.4,0.1,0.6,0.1v0.2h-2.4
			v-0.2c0.2,0,0.4,0,0.6-0.1c0.1,0,0.1-0.1,0.2-0.2c0-0.2,0.1-0.5,0.1-0.7v-3.4c0-0.3,0-0.6,0-0.9c0-0.1-0.1-0.2-0.1-0.2
			c-0.1,0-0.1-0.1-0.2-0.1c-0.2,0-0.3,0.1-0.5,0.1L2172.5,652.3z"/>
		<path class="st18" d="M2180.5,656.8l-0.4,1.2h-3.7v-0.2c0.6-0.5,1-1,1.4-1.4c0.3-0.3,0.6-0.7,0.9-1.1c0.2-0.3,0.4-0.6,0.5-0.9
			c0.1-0.3,0.2-0.5,0.2-0.8c0-0.2,0-0.4-0.1-0.6c-0.1-0.2-0.2-0.3-0.3-0.4c-0.1-0.1-0.2-0.2-0.4-0.3c-0.2-0.1-0.3-0.1-0.5-0.1
			c-0.3,0-0.6,0.1-0.8,0.3c-0.3,0.2-0.5,0.5-0.6,0.8h-0.2c0-0.3,0.1-0.5,0.2-0.8c0.1-0.2,0.2-0.4,0.4-0.6c0.2-0.2,0.3-0.3,0.5-0.3
			c0.4-0.2,0.9-0.2,1.4,0c0.2,0.1,0.4,0.2,0.6,0.4c0.2,0.2,0.3,0.3,0.4,0.5c0.1,0.2,0.1,0.4,0.1,0.6c0,0.4-0.1,0.9-0.4,1.2
			c-0.3,0.5-0.6,0.9-1,1.3c-0.4,0.4-0.7,0.8-0.9,1c-0.2,0.3-0.4,0.4-0.5,0.5h1.7c0.2,0,0.4,0,0.5,0c0.1,0,0.2,0,0.4-0.1
			c0.1,0,0.2-0.1,0.3-0.2c0.1-0.1,0.2-0.2,0.2-0.3L2180.5,656.8z"/>
		<path class="st18" d="M2190.4,656.5l1.5-0.8h0.2v5.4c0,0.2,0,0.4,0,0.7c0,0.1,0.1,0.2,0.2,0.2c0.2,0.1,0.4,0.1,0.6,0.1v0.2h-2.4
			V662c0.2,0,0.4,0,0.6-0.1c0.1,0,0.1-0.1,0.2-0.2c0-0.2,0.1-0.5,0.1-0.7v-3.4c0-0.3,0-0.6,0-0.9c0-0.1-0.1-0.2-0.1-0.2
			c-0.1,0-0.1-0.1-0.2-0.1c-0.2,0-0.3,0.1-0.5,0.1L2190.4,656.5z"/>
		<path class="st18" d="M2205,671.8l-0.4,1.2h-3.7v-0.2c0.6-0.5,1-1,1.4-1.4c0.3-0.3,0.6-0.7,0.9-1.1c0.2-0.3,0.4-0.6,0.5-0.9
			c0.1-0.3,0.2-0.5,0.2-0.8c0-0.2,0-0.4-0.1-0.6c-0.1-0.2-0.2-0.3-0.3-0.4c-0.1-0.1-0.2-0.2-0.4-0.3c-0.2-0.1-0.3-0.1-0.5-0.1
			c-0.3,0-0.6,0.1-0.8,0.3c-0.3,0.2-0.5,0.5-0.6,0.8h-0.2c0-0.3,0.1-0.5,0.2-0.8c0.1-0.2,0.2-0.4,0.4-0.6c0.2-0.2,0.3-0.3,0.5-0.3
			c0.2-0.1,0.4-0.1,0.7-0.1c0.2,0,0.5,0,0.7,0.1c0.2,0.1,0.4,0.2,0.6,0.4c0.2,0.2,0.3,0.3,0.4,0.5c0.1,0.2,0.1,0.4,0.1,0.6
			c0,0.4-0.1,0.9-0.4,1.2c-0.3,0.5-0.6,0.9-1,1.3c-0.4,0.4-0.7,0.8-0.9,1c-0.2,0.3-0.4,0.4-0.5,0.5h1.7c0.2,0,0.4,0,0.5,0
			c0.1,0,0.2,0,0.4-0.1c0.1,0,0.2-0.1,0.3-0.2c0.1-0.1,0.2-0.2,0.2-0.3H2205z"/>
		<path class="st18" d="M2205.5,684.1c0.1-0.4,0.4-0.7,0.7-1c0.3-0.2,0.7-0.4,1-0.4c0.2,0,0.4,0,0.6,0.1c0.2,0.1,0.3,0.2,0.5,0.3
			c0.1,0.1,0.2,0.3,0.3,0.4c0.1,0.2,0.1,0.3,0.1,0.5c-0.1,0.6-0.4,1.1-0.9,1.4c0.4,0.1,0.7,0.4,0.9,0.7c0.2,0.3,0.3,0.6,0.3,1
			c0,0.3-0.1,0.6-0.2,0.9c-0.1,0.3-0.3,0.5-0.5,0.7c-0.2,0.2-0.5,0.4-0.8,0.5c-0.3,0.1-0.7,0.2-1,0.2c-0.2,0-0.4,0-0.5,0
			c-0.1,0-0.2-0.1-0.3-0.1c-0.1,0-0.1-0.1-0.2-0.2c0-0.1-0.1-0.1-0.1-0.2c0-0.1,0-0.2,0.1-0.2c0.1-0.1,0.2-0.1,0.3-0.1
			c0,0,0.1,0,0.1,0c0,0,0.1,0,0.1,0c0.1,0,0.1,0,0.2,0.1l0.2,0.1c0.1,0.1,0.2,0.1,0.3,0.1c0.1,0,0.1,0,0.2,0.1c0,0,0.1,0,0.1,0
			c0.1,0,0.1,0,0.2,0c0.2,0,0.3,0,0.5-0.1c0.1-0.1,0.3-0.2,0.4-0.3c0.1-0.1,0.2-0.3,0.3-0.4c0.1-0.1,0.1-0.3,0.1-0.5
			c0-0.1,0-0.2,0-0.3c0-0.1-0.1-0.2-0.1-0.3c0-0.1-0.1-0.2-0.1-0.3c0-0.1-0.1-0.1-0.2-0.2c-0.1-0.1-0.2-0.1-0.2-0.2
			c-0.1-0.1-0.2-0.1-0.3-0.2c-0.1,0-0.2-0.1-0.4-0.1c-0.1,0-0.2,0-0.4,0h-0.2V686c0.2,0,0.4-0.1,0.6-0.2c0.2-0.1,0.3-0.2,0.5-0.3
			c0.1-0.1,0.2-0.3,0.3-0.4c0.1-0.2,0.1-0.3,0.1-0.5c0-0.3-0.1-0.6-0.3-0.8c-0.1-0.1-0.2-0.2-0.3-0.2c-0.1-0.1-0.3-0.1-0.4-0.1
			c-0.5,0-1,0.3-1.2,0.8L2205.5,684.1z"/>
		<path class="st18" d="M2205,702.6v0.7h-0.8v1.7h-0.8v-1.7h-2.7v-0.6l2.9-4.2h0.5v4.1L2205,702.6z M2203.3,702.6v-3.1l-2.2,3.1
			H2203.3z"/>
		<path class="st18" d="M2193.6,709.6l-0.4,0.8h-1.9l-0.4,0.9c0.4,0,0.7,0.1,1,0.3c0.3,0.1,0.6,0.3,0.8,0.5c0.2,0.2,0.4,0.4,0.5,0.7
			c0.1,0.3,0.2,0.6,0.2,0.9c0,0.2,0,0.5-0.1,0.7c-0.1,0.4-0.4,0.8-0.8,1.1c-0.2,0.1-0.3,0.2-0.5,0.3c-0.2,0.1-0.4,0.2-0.6,0.2
			c-0.2,0-0.4,0.1-0.5,0.1c-0.2,0-0.3,0-0.5-0.1c-0.1,0-0.2-0.1-0.3-0.1c-0.1,0-0.2-0.1-0.2-0.2c0-0.1-0.1-0.1-0.1-0.2
			c0-0.1,0-0.2,0.1-0.2c0.1-0.1,0.2-0.1,0.3-0.1c0,0,0.1,0,0.1,0c0,0,0.1,0,0.1,0c0,0,0.1,0,0.1,0.1c0,0,0.1,0.1,0.2,0.1
			c0.1,0.1,0.2,0.1,0.3,0.2c0.1,0,0.2,0.1,0.4,0.1c0.2,0,0.4,0,0.5-0.1c0.2-0.1,0.3-0.2,0.4-0.3c0.1-0.1,0.2-0.3,0.3-0.5
			c0.1-0.2,0.1-0.4,0.1-0.6c0-0.2,0-0.4-0.1-0.6c-0.1-0.2-0.2-0.4-0.3-0.5c-0.1-0.2-0.3-0.3-0.4-0.4c-0.2-0.1-0.4-0.2-0.6-0.3
			c-0.4-0.2-0.9-0.2-1.4-0.2l1.2-2.5L2193.6,709.6z"/>
		<path class="st18" d="M2178.3,713.5v0.2c-0.2,0-0.4,0-0.6,0.1c-0.2,0-0.3,0.1-0.5,0.2c-0.1,0.1-0.3,0.1-0.4,0.2
			c-0.1,0.1-0.3,0.2-0.4,0.3c-0.3,0.2-0.5,0.5-0.6,0.8c-0.2,0.4-0.3,0.7-0.4,1.1c0.4-0.3,0.9-0.5,1.4-0.5c0.2,0,0.4,0,0.6,0.1
			c0.2,0.1,0.4,0.2,0.5,0.4c0.2,0.2,0.3,0.4,0.4,0.6c0.1,0.2,0.1,0.5,0.1,0.8c0,0.5-0.2,1-0.5,1.5c-0.3,0.5-0.9,0.8-1.5,0.8
			c-0.3,0-0.6-0.1-0.9-0.2c-0.2-0.2-0.5-0.4-0.6-0.6c-0.2-0.3-0.3-0.5-0.4-0.8c-0.1-0.3-0.1-0.6-0.1-0.9c0-0.6,0.1-1.1,0.3-1.6
			c0.2-0.5,0.6-1,1-1.4c0.2-0.2,0.4-0.3,0.6-0.5c0.2-0.1,0.4-0.2,0.6-0.3c0.2-0.1,0.4-0.1,0.6-0.2c0.2,0,0.3,0,0.5,0L2178.3,713.5z
			 M2175.4,716.7c-0.1,0.3-0.1,0.7-0.1,1c0,0.2,0,0.4,0.1,0.6c0,0.2,0.1,0.5,0.2,0.7c0.1,0.2,0.2,0.4,0.4,0.5
			c0.2,0.1,0.3,0.2,0.6,0.2c0.1,0,0.3,0,0.4-0.1c0.1-0.1,0.2-0.2,0.3-0.3c0.1-0.1,0.2-0.3,0.2-0.5c0.1-0.2,0.1-0.4,0.1-0.6
			c0-0.2,0-0.5-0.1-0.7c0-0.2-0.1-0.4-0.2-0.6c-0.1-0.2-0.2-0.3-0.4-0.4c-0.2-0.1-0.3-0.2-0.5-0.2c-0.1,0-0.1,0-0.2,0
			c-0.1,0-0.1,0-0.2,0.1c-0.1,0-0.2,0.1-0.3,0.1C2175.6,716.6,2175.5,716.7,2175.4,716.7z"/>
		<path class="st18" d="M2158.6,710.2h3.4v0.2l-2.1,6.3h-0.5l1.9-5.7h-1.7c-0.3,0-0.5,0-0.8,0.1c-0.3,0.2-0.5,0.4-0.6,0.7l-0.1-0.1
			L2158.6,710.2z"/>
		<path class="st18" d="M2148.5,701.8c-0.2-0.2-0.4-0.4-0.6-0.5c-0.1-0.1-0.3-0.3-0.4-0.4c-0.1-0.1-0.1-0.2-0.2-0.4
			c0-0.1,0-0.3,0-0.4c0-0.2,0-0.4,0.1-0.6c0.1-0.2,0.2-0.3,0.4-0.5c0.2-0.1,0.3-0.3,0.6-0.3c0.2-0.1,0.5-0.1,0.7-0.1
			c0.2,0,0.5,0,0.7,0.1c0.2,0.1,0.4,0.2,0.5,0.3c0.1,0.1,0.3,0.3,0.3,0.4c0.1,0.2,0.1,0.3,0.1,0.5c0,0.1,0,0.2-0.1,0.4
			c0,0.1-0.1,0.3-0.2,0.4c-0.1,0.1-0.3,0.3-0.4,0.4c-0.2,0.2-0.4,0.3-0.7,0.5c0.3,0.2,0.5,0.4,0.7,0.6c0.1,0.1,0.3,0.3,0.4,0.4
			c0.1,0.2,0.2,0.3,0.3,0.5c0.1,0.4,0.1,0.8,0,1.1c-0.1,0.2-0.2,0.4-0.4,0.5c-0.2,0.2-0.4,0.3-0.6,0.3c-0.2,0.1-0.5,0.1-0.7,0.1
			c-0.3,0-0.5,0-0.7-0.1c-0.2-0.1-0.4-0.2-0.6-0.3c-0.2-0.1-0.3-0.3-0.4-0.5c-0.1-0.2-0.1-0.4-0.1-0.6c0-0.1,0-0.3,0.1-0.4
			c0-0.1,0.1-0.3,0.2-0.4c0.1-0.2,0.2-0.3,0.4-0.4C2148.1,702.1,2148.3,701.9,2148.5,701.8z M2148.7,702c-0.2,0.2-0.4,0.4-0.6,0.7
			c-0.1,0.3-0.2,0.5-0.2,0.8c0,0.2,0,0.4,0.1,0.5c0.1,0.2,0.1,0.3,0.2,0.4c0.1,0.1,0.2,0.2,0.4,0.3c0.1,0.1,0.3,0.1,0.5,0.1
			c0.2,0,0.3,0,0.5-0.1c0.1,0,0.2-0.1,0.4-0.2c0.2-0.2,0.3-0.4,0.3-0.7c0-0.1,0-0.3-0.1-0.4c-0.1-0.2-0.2-0.3-0.3-0.4
			c-0.1-0.2-0.3-0.3-0.5-0.5C2149.2,702.4,2149,702.2,2148.7,702L2148.7,702z M2149.2,701.3c0.2-0.1,0.3-0.3,0.5-0.5
			c0.1-0.1,0.2-0.2,0.3-0.4c0.1-0.1,0.1-0.2,0.1-0.3c0-0.1,0-0.2,0-0.3c0-0.3-0.1-0.6-0.3-0.8c-0.2-0.2-0.5-0.3-0.8-0.3
			c-0.1,0-0.3,0-0.4,0.1c-0.1,0-0.2,0.1-0.3,0.2c-0.1,0.1-0.2,0.2-0.2,0.3c-0.1,0.1-0.1,0.2-0.1,0.3c0,0.2,0,0.3,0.1,0.5
			c0.1,0.2,0.2,0.3,0.4,0.5L2149.2,701.3z"/>
		<path class="st18" d="M2142.9,689.7v-0.2c0.2,0,0.4,0,0.6-0.1c0.2,0,0.4-0.1,0.5-0.2c0.2-0.1,0.4-0.2,0.5-0.4
			c0.2-0.2,0.3-0.4,0.5-0.6c0.3-0.5,0.6-1,0.7-1.5c-0.4,0.3-0.9,0.4-1.3,0.5c-0.2,0-0.4,0-0.6-0.1c-0.2-0.1-0.4-0.2-0.5-0.4
			c-0.2-0.2-0.3-0.4-0.4-0.6c-0.1-0.3-0.1-0.5-0.1-0.8c0-0.3,0.1-0.6,0.2-0.9c0.1-0.3,0.2-0.5,0.4-0.7c0.2-0.2,0.4-0.4,0.6-0.5
			c0.2-0.1,0.5-0.2,0.8-0.2c0.3,0,0.6,0.1,0.8,0.2c0.2,0.2,0.5,0.4,0.6,0.6c0.2,0.3,0.3,0.5,0.4,0.8c0.1,0.3,0.1,0.6,0.1,1
			c0,0.3,0,0.7-0.1,1c-0.1,0.3-0.2,0.6-0.4,0.9c-0.2,0.3-0.4,0.6-0.6,0.8c-0.2,0.3-0.5,0.5-0.8,0.7c-0.5,0.3-1.1,0.5-1.6,0.5
			L2142.9,689.7z M2145.8,686.5c0-0.2,0.1-0.4,0.1-0.5c0-0.2,0-0.3,0-0.4c0-0.1,0-0.3,0-0.4c0-0.2-0.1-0.3-0.1-0.5
			c0-0.2-0.1-0.3-0.2-0.4c-0.1-0.1-0.1-0.3-0.2-0.4c-0.1-0.1-0.2-0.2-0.3-0.3c-0.1-0.1-0.3-0.1-0.4-0.1c-0.1,0-0.3,0-0.4,0.1
			c-0.1,0.1-0.2,0.2-0.3,0.3c-0.1,0.1-0.2,0.3-0.2,0.5c-0.1,0.2-0.1,0.4-0.1,0.7c0,0.3,0,0.5,0.1,0.8c0,0.2,0.1,0.4,0.2,0.6
			c0.1,0.2,0.2,0.3,0.4,0.4c0.1,0.1,0.3,0.1,0.5,0.1c0.1,0,0.2,0,0.2,0c0.1,0,0.2,0,0.3-0.1c0.1,0,0.2-0.1,0.3-0.1
			C2145.7,686.6,2145.8,686.5,2145.8,686.5z"/>
		<path class="st18" d="M2145.7,668.7l1.5-0.8h0.2v5.4c0,0.2,0,0.4,0,0.7c0,0.1,0.1,0.2,0.2,0.2c0.2,0.1,0.4,0.1,0.6,0.1v0.2h-2.4
			v-0.2c0.2,0,0.4,0,0.6-0.1c0.1,0,0.1-0.1,0.2-0.2c0-0.2,0.1-0.5,0.1-0.7v-3.4c0-0.3,0-0.6,0-0.9c0-0.1-0.1-0.2-0.1-0.2
			c-0.1,0-0.1-0.1-0.2-0.1c-0.2,0-0.3,0.1-0.5,0.1L2145.7,668.7z"/>
		<path class="st18" d="M2149.7,671.3c0-0.5,0.1-0.9,0.2-1.4c0.1-0.4,0.2-0.7,0.5-1.1c0.2-0.3,0.4-0.5,0.7-0.7
			c0.2-0.2,0.5-0.2,0.8-0.2c0.3,0,0.6,0.1,0.8,0.2c0.3,0.2,0.5,0.4,0.6,0.7c0.2,0.3,0.3,0.7,0.4,1c0.1,0.4,0.2,0.9,0.2,1.3
			c0,0.5-0.1,1-0.2,1.5c-0.1,0.4-0.3,0.7-0.5,1c-0.2,0.3-0.4,0.5-0.7,0.6c-0.2,0.1-0.5,0.2-0.8,0.2c-0.3,0-0.5-0.1-0.8-0.2
			c-0.3-0.2-0.5-0.4-0.6-0.7c-0.2-0.3-0.3-0.7-0.4-1C2149.8,672.1,2149.7,671.7,2149.7,671.3z M2150.6,671.4c0,0.4,0,0.7,0.1,1.1
			c0,0.3,0.1,0.6,0.2,0.9c0.1,0.2,0.2,0.4,0.3,0.6c0.1,0.1,0.3,0.2,0.5,0.2c0.2,0,0.3-0.1,0.5-0.2c0.1-0.1,0.2-0.3,0.3-0.4
			c0.1-0.2,0.2-0.4,0.2-0.6c0-0.2,0.1-0.5,0.1-0.7c0-0.2,0-0.5,0-0.7s0-0.4,0-0.6c0-0.4,0-0.7-0.1-1.1c0-0.3-0.1-0.6-0.2-0.9
			c-0.1-0.2-0.2-0.4-0.4-0.6c-0.1-0.1-0.3-0.2-0.5-0.2c-0.2,0-0.4,0.1-0.5,0.3c-0.2,0.2-0.3,0.4-0.4,0.7c-0.1,0.3-0.2,0.7-0.2,1
			C2150.6,670.6,2150.6,671,2150.6,671.4z"/>
		<path class="st18" d="M2157.1,657l1.5-0.8h0.2v5.4c0,0.2,0,0.4,0,0.7c0,0.1,0.1,0.2,0.2,0.2c0.2,0.1,0.4,0.1,0.6,0.1v0.2h-2.4
			v-0.2c0.2,0,0.4,0,0.6-0.1c0.1,0,0.1-0.1,0.2-0.2c0-0.2,0.1-0.5,0.1-0.7v-3.4c0-0.3,0-0.6,0-0.9c0-0.1-0.1-0.2-0.1-0.2
			c-0.1,0-0.1-0.1-0.2-0.1c-0.2,0-0.3,0.1-0.5,0.1L2157.1,657z"/>
		<path class="st18" d="M2161.5,657l1.5-0.8h0.2v5.4c0,0.2,0,0.4,0,0.7c0,0.1,0.1,0.2,0.2,0.2c0.2,0.1,0.4,0.1,0.6,0.1v0.2h-2.4
			v-0.2c0.2,0,0.4,0,0.6-0.1c0.1,0,0.1-0.1,0.2-0.2c0-0.2,0.1-0.5,0.1-0.7v-3.4c0-0.3,0-0.6,0-0.9c0-0.1-0.1-0.2-0.1-0.2
			c-0.1,0-0.1-0.1-0.2-0.1c-0.2,0-0.3,0.1-0.5,0.1L2161.5,657z"/>
		<path class="st19" d="M2178.7,685.4l-11.7-32.1l10,32.8c-0.1,0.1-0.1,0.2-0.2,0.4l-25.2,8.5l25.5-7.1c0.5,0.7,1.5,0.8,2.2,0.2
			c0.7-0.5,0.8-1.5,0.2-2.2C2179.4,685.7,2179.1,685.5,2178.7,685.4z"/>
		<path class="st20" d="M2132.2,741.4c-0.3-0.3-0.6-0.6-0.8-1c-0.3-0.6-0.4-1.2-0.4-1.9c0-0.6,0.2-1.2,0.5-1.7
			c0.3-0.4,0.6-0.7,0.9-1h-26.1c-1.4,0-2.6,1.1-2.6,2.6v0.8c0,1.4,1.1,2.6,2.6,2.6h26.3C2132.5,741.7,2132.3,741.6,2132.2,741.4z"/>
		<path class="st21" d="M2133.3,741.5h-26.9c-1.2,0-2.2-1-2.2-2.2v-0.8c0-1.2,1-2.2,2.2-2.2h26.9v-0.6h-26.9c-1.6,0-2.9,1.3-2.9,2.9
			v0.8c0,1.6,1.3,2.9,2.9,2.9h26.9V741.5z"/>
		<path class="st22" d="M2110.6,735c0.2-0.2,0.4-0.5,0.6-0.8c0.2-0.4,0.3-0.9,0.3-1.4c0-0.5-0.2-0.9-0.4-1.3
			c-0.2-0.3-0.4-0.5-0.7-0.7h20.1c1.1,0,2,0.9,2,2l0,0v0.6c0,1.1-0.9,2-2,2h-20.3C2110.3,735.3,2110.4,735.2,2110.6,735z"/>
		<path class="st4" d="M2131.5,731.1c0.6,0.4,0.9,1,0.9,1.7v0.6c0,0.7-0.4,1.3-0.9,1.7V731.1z"/>
		<path class="st23" d="M2109.7,735.1h20.7c1,0,1.7-0.8,1.7-1.7v-0.6c0-1-0.8-1.7-1.7-1.7h-20.7v-0.5h20.7c1.2,0,2.2,1,2.2,2.2v0.6
			c0,1.2-1,2.2-2.2,2.2h-20.7V735.1z"/>
		<path class="st24" d="M2115.8,724.4c0.2-0.2,0.4-0.4,0.5-0.7c0.2-0.4,0.3-0.8,0.3-1.2c0-0.4-0.1-0.8-0.3-1.1
			c-0.2-0.2-0.4-0.5-0.6-0.6h17.1c0.9,0,1.7,0.7,1.7,1.7v0.5c0,0.9-0.7,1.7-1.7,1.7h-17.2C2115.6,724.6,2115.7,724.5,2115.8,724.4z"
			/>
		<path class="st4" d="M2133.5,721.1c0.5,0.3,0.8,0.8,0.8,1.4v0.5c0,0.6-0.3,1.1-0.8,1.4V721.1z"/>
		<path class="st25" d="M2115.1,724.5h17.6c0.8,0,1.5-0.7,1.5-1.5v-0.5c0-0.8-0.7-1.5-1.5-1.5h-17.6v-0.4h17.6c1,0,1.9,0.8,1.9,1.9
			v0.5c0,1-0.8,1.9-1.9,1.9h-17.6V724.5z"/>
		<path class="st26" d="M2131.2,729.9c-0.3-0.3-0.5-0.6-0.7-0.9c-0.3-0.5-0.4-1-0.4-1.6c0-0.5,0.2-1,0.5-1.4
			c0.2-0.3,0.5-0.6,0.8-0.8H2109c-1.2,0-2.2,1-2.2,2.2v0.7c0,1.2,1,2.2,2.2,2.2h22.6C2131.5,730.2,2131.3,730.1,2131.2,729.9z"/>
		<path class="st4" d="M2107.8,725.5c-0.7,0.4-1.1,1.1-1.1,1.9v0.7c0,0.8,0.4,1.5,1.1,1.9V725.5z"/>
		<path class="st27" d="M2132.2,730H2109c-1.1,0-1.9-0.9-1.9-1.9v-0.7c0-1.1,0.9-1.9,1.9-1.9h23.1v-0.5H2109c-1.4,0-2.5,1.1-2.5,2.5
			v0.7c0,1.4,1.1,2.5,2.5,2.5h23.1V730z"/>
		<path class="st28" d="M2153.4,707.1c-0.3-0.2-0.6-0.3-0.9-0.5c-0.2-0.2-0.5-0.4-0.8-0.5c-0.1-0.1-0.2-0.1-0.3-0.2
			c-0.4-0.1-0.7-0.1-1.1-0.1c-0.3,0-0.6,0.1-0.9,0.3l-0.3,0.1c-0.3,0.2-0.5,0.3-0.8,0.5c-0.4,0.2-0.7,0.4-1,0.7
			c-0.6,0.4-1.2,0.6-1.8,0.8c0.1,0.1,0.1,0.1,0.2,0.2c0.4,0.3,0.8,0.6,1.2,0.9c0.5,0.2,1,0.1,1.5,0c0.2,0,0.4,0,0.6-0.1
			c0.1,0,0.2-0.1,0.3-0.2c0,0,0.1-0.1,0.1-0.1c0.3,0.1,0.7,0.2,1,0.2c0.3,0,0.5,0.1,0.6-0.3c0-0.2-0.1-0.4-0.2-0.5
			c0,0-0.1-0.1-0.1-0.1c-0.1-0.1-0.3-0.1-0.4-0.2v0c0,0,0.1-0.1,0.1-0.1c0.4,0.3,0.8,0.6,1.2,0.7c0.2,0.1,0.5,0.2,0.6-0.1
			c0.1-0.2,0.1-0.4-0.1-0.5c0,0-0.1-0.1-0.1-0.1c-0.2-0.2-0.5-0.4-0.7-0.6c0-0.1,0.1-0.1,0.1-0.1c0.4,0.6,0.9,1,1.6,1.4
			c0.2,0.1,0.5,0.3,0.6,0c0.1-0.2,0.1-0.4,0-0.5c0,0-0.1-0.1-0.1-0.1l-0.1-0.1c0.4,0.1,0.8,0.1,0.8-0.3
			C2154.2,707.4,2153.6,707.2,2153.4,707.1z"/>
		<path class="st28" d="M2151.6,712.5c0-1-0.3-2-0.9-2.8c-0.8-1.1-2.4-0.8-3.6-0.8c-0.7,0-1.5,0.1-2.2,0.2c-0.1,0.1-0.2,0.3-0.3,0.4
			l0,0c0,0-0.1,0.1-0.1,0.1c0,0.1-0.1,0.1-0.1,0.2c-0.1,0.4-0.2,0.7-0.3,1.1c-0.1,0.8-0.3,1.6-0.4,2.3c-0.2,0.9-0.5,1.8-0.9,2.7
			c1.2-0.1,2.3-0.1,3.5,0c-0.1,1.1-1,1.7-1.6,2.5c-0.6,0.8-1.1,1.8-1.4,2.7c-0.6,1.9-1,3.9-1.2,6c-0.1,0.9-0.2,1.7-0.5,2.6
			c-0.4,0.8-0.8,1.5-1.4,2.2c-0.4,0.4-0.9,0.8-1.3,1.2c-0.5,0.4-0.8,0.9-1,1.5c-0.1,0.7-0.1,1.3,0,2c0,0.2-0.7,2.3-0.7,2.3l0.2,0.1
			c0.2-0.4,0.3-0.8,0.6-1.2s1.1-1.8,1.5-1c0.3,0.5,0.1,1.2,0.2,1.8c0.1,0.6,0.4,1.2,0.9,1.6c0.6,0.4,1.2,0.6,1.9,0.6
			c0.3,0,0.7,0,1,0c0.4-0.1,0.4-0.3,0.3-0.6c-0.2-0.4-0.3-0.7-0.6-1c-0.1-0.2-0.2-0.3-0.3-0.5c-1.2-2.7-0.3-5.6,0.9-8.1
			c1.4-2.8,3-5.6,4.5-8.3c0.8-1.4,1.4-3,1.8-4.6C2150.5,715.9,2151.7,714.4,2151.6,712.5z"/>
		<path class="st29" d="M2143.1,739.2c0,0,0-0.1-0.1-0.1c-0.1-0.4-0.3-0.8-0.4-1.2c-0.2-0.3-0.2,0-0.4,0.2c-0.1,0.2-0.2,0.4-0.4,0.5
			c-0.1,0.1-0.6-0.3-0.7-0.4c-0.2-0.2-0.3-0.5-0.5-0.7c-0.3-0.6-0.6-1.2-0.8-1.8c-0.2-0.8-0.4-1.7-0.3-2.5c0-0.3,0.3-1.2-0.2-0.7
			c-0.7,0.6-1.2,1.3-1.5,2.2c-0.1,0.7-0.1,1.3,0,2c0,0.2-0.7,2.3-0.7,2.3l0.2,0.1c0.2-0.4,0.3-0.8,0.6-1.2s1.1-1.8,1.5-1
			c0.3,0.5,0.1,1.2,0.2,1.8c0.1,0.6,0.4,1.2,0.9,1.6c0.6,0.4,1.2,0.6,1.9,0.6c0.3,0,0.7,0,1,0c0.4-0.1,0.4-0.3,0.3-0.6
			C2143.5,739.8,2143.3,739.5,2143.1,739.2z"/>
		<path class="st30" d="M2138.8,701.2c-0.2-0.1-0.4-0.3-0.6-0.4c-0.3-0.1-0.7-0.4-0.7-0.7c-0.1-1-0.2-2-0.4-3
			c-0.1-1.5-0.4-3-0.6-4.5c0-1.2-0.2-2.3-0.4-3.4c-0.3-1.2-1.7-3.4-3.2-2.5c-2,1.2-1.8,4-1.5,5.9c0.4,2.5,1,4.7,1.5,7.1
			c0.2,0.8,0.4,1.6,0.7,2.3c0.4,1.2,1.7,1.9,2.8,2.6c1.6,0.9,3.1,1.9,4.6,3c0.7,0.6,1.5,1.3,2.2,2c0.5,0.5,0.6,0.2,1-0.2
			c0.6-0.8,1.2-1.5,1.9-2.3c0.2-0.3,0.5-0.5,0.8-0.7c0.1-0.1,0.3-0.2,0.3-0.3c0.1-0.2-0.3-0.3-0.4-0.3c-0.3-0.1-0.7-0.2-1-0.4
			c-1.1-0.5-2.1-1.1-3.1-1.8c-0.9-0.6-1.8-1.2-2.7-1.8c-0.3-0.2-0.5-0.3-0.8-0.5C2139,701.3,2138.9,701.2,2138.8,701.2z"/>
		<path class="st31" d="M2150.1,713.5c0-1-0.3-2-0.9-2.8c-0.8-1.1-2.4-0.8-3.6-0.8c-0.7,0-1.5,0.1-2.2,0.2c-0.1,0.1-0.2,0.3-0.3,0.4
			l0,0c0,0-0.1,0.1-0.1,0.1c0,0.1-0.1,0.1-0.1,0.2c-0.1,0.4-0.2,0.7-0.3,1.1c-0.1,0.8-0.3,1.6-0.4,2.3c-0.2,0.9-0.5,1.8-0.9,2.7
			c1.2-0.1,2.3-0.1,3.5,0c-0.1,1.1-1,1.7-1.6,2.5c-0.6,0.8-1.1,1.8-1.4,2.7c-0.6,1.9-1,3.9-1.2,6c-0.1,0.9-0.2,1.7-0.5,2.6
			c-0.4,0.8-0.8,1.5-1.4,2.2c-0.4,0.4-0.9,0.8-1.3,1.2c-0.5,0.4-0.8,0.9-1,1.6c-0.1,0.7-0.1,1.3,0,2c0,0.2-0.7,2.3-0.7,2.3l0.2,0.1
			c0.2-0.4,0.3-0.8,0.6-1.2s1.1-1.8,1.5-1c0.3,0.5,0.1,1.2,0.2,1.8c0.1,0.6,0.4,1.2,0.9,1.6c0.6,0.4,1.2,0.6,1.9,0.6
			c0.3,0,0.7,0,1,0c0.4-0.1,0.4-0.3,0.3-0.6c-0.2-0.4-0.3-0.7-0.6-1c-0.1-0.2-0.2-0.3-0.3-0.5c-1.2-2.7-0.3-5.6,0.9-8.1
			c1.4-2.8,3-5.6,4.5-8.3c0.8-1.4,1.4-3,1.8-4.6C2148.9,716.8,2150.2,715.4,2150.1,713.5z"/>
		<path class="st32" d="M2141.6,740.1c0,0,0-0.1-0.1-0.1c-0.1-0.4-0.3-0.8-0.4-1.2c-0.2-0.3-0.2,0-0.4,0.2c-0.1,0.2-0.2,0.4-0.4,0.5
			c-0.1,0.1-0.6-0.3-0.7-0.4c-0.2-0.2-0.3-0.5-0.5-0.7c-0.3-0.6-0.6-1.2-0.8-1.8c-0.2-0.8-0.4-1.7-0.3-2.5c0-0.3,0.3-1.2-0.2-0.7
			c-0.7,0.6-1.2,1.3-1.5,2.2c-0.1,0.7-0.1,1.3,0,2c0,0.2-0.7,2.3-0.7,2.3l0.2,0.1c0.2-0.4,0.3-0.8,0.6-1.2s1.1-1.8,1.5-1
			c0.3,0.5,0.1,1.2,0.2,1.8c0.1,0.6,0.4,1.2,0.9,1.6c0.6,0.4,1.2,0.6,1.9,0.6c0.3,0,0.7,0,1,0c0.4-0.1,0.4-0.3,0.3-0.6
			C2142,740.8,2141.8,740.4,2141.6,740.1z"/>
		<path class="st29" d="M2129.3,721.1c2.5-0.1,5-0.6,7.3-1.5c1-0.4,1.9-0.9,2.9-1.2c0.6-0.2,1.7-0.5,1.7,0.5c0.2,0,0.5-0.6,0.7-0.8
			c0.5-0.7,0.9-1.6,1.1-2.5c0.2-1.1,0.3-2.2,0.4-3.3c0.1-0.4,0.2-0.8,0.3-1.2c0.1-0.2,0.1-0.4,0.2-0.6c0.1-0.1,0.2-0.3,0.2-0.4
			c0-0.5-1.2-0.3-1.5-0.3c-0.6,0-1.1,0-1.7,0c-1.8,0.1-3.6,0.4-5.4,0.6c-0.6,0.1-1.3,0.1-1.9,0.1c-0.5-0.1-1.1,0-1.6,0.3
			c-0.5,0.4-1.1,0.8-1.7,1.1c-0.8,0.3-1.7,0.5-2.6,0.6c-1.4,0.2-4.1,0.2-3.9-1.7c-1.4,2.5-1.5,5.5-0.3,8.1c0.4,1,1.2,1.7,2.2,2
			C2127,721,2128.1,721.1,2129.3,721.1z"/>
		<path class="st33" d="M2137.7,684.5c-0.6,0.2-1.3,0.2-1.9,0c-2-0.7-4-4-2.4-5.9c-0.4,0.4-1.3,0.3-1.8,0.1
			c-0.5-0.3-0.8-0.8-0.8-1.4c0-0.8,0.4-1.5,1-1.9c0.7-0.6,3.7-2.2,4.2-0.6c0.1,0.5,0,0.9-0.2,1.3c0.4-0.6,1.1-1,1.8-1
			c0.3,0,1.6,0.1,1.6,0.5c0.1-1.1,1.7-0.5,2.3-0.3c0.8,0.3,1.6,0.4,2.1,1.2c0.2,0.5,0.2,1.1-0.2,1.6c0.3-0.3,0.6-0.6,0.9-0.3
			c0.2,0.3,0.4,0.7,0.4,1.1c0.4,3.6-0.4,7.5-1,11c0.1-0.6,0.1-1.1,0-1.7c0-0.6,0-1.2,0-1.8c0-0.6,0-1.1-0.1-1.7c0-0.5-0.1-1-0.2-1.5
			c0,0.6-0.1,1.2-0.2,1.9c0,0.6-0.1,1.3-0.3,1.9c0-0.2,0-0.4-0.1-0.5c-0.2-1.2-0.4-2.5-0.8-3.7c-0.2,0.2-0.5,0.4-0.7,0.6
			c-0.5,0.3-1,0.4-1.5,0.5C2139.1,684.1,2138.4,684.3,2137.7,684.5z"/>
		<path class="st31" d="M2133.9,684.2c0.2-0.2,0.3-0.3,0.5-0.5c0.3-0.4,0.5-0.8,0.8-1.2c0.2,0.3,0.3,0.6,0.3,1
			c0.2-0.3,0.4-0.9,0.3-1.2c-0.1-0.2-0.3-0.2-0.4-0.5c-0.1-0.2-0.1-0.5-0.1-0.7c0-0.5,0.2-1,0.6-1.3c0.2-0.1,0.5-0.1,0.7,0.1
			c0.2,0.1,0.3,0.3,0.5,0.4c0.2,0.3,0,0.7-0.1,1c0.2-0.1,0.4-0.2,0.6-0.4c0,0.3-0.1,0.6-0.2,0.9c0.3-0.3,0.7-0.6,1.1-0.8
			c0.4-0.1,0.9-0.2,1.2-0.5c-0.1,0.3-0.3,0.6-0.5,0.8c0.5-0.3,1.1-0.6,1.6-0.9c0.3-0.2,0.5-0.4,0.7-0.7c0.1-0.1,0.5-0.7,0.5-0.8
			c0.2,0.3,0.4,0.6,0.7,0.8c0.4,0.6,0.1,1.1-0.1,1.7c-0.2,0.7-0.5,1.5-0.9,2.1c-0.4,0.6-0.8,1.2-1.2,1.8c-0.3,0.4-0.9,1.3-1.5,1.3
			c-0.3,0-0.5-0.3-0.7-0.4c-0.2,0-0.5,0.1-0.6,0.3c-0.4,0.4-0.7,0.8-0.9,1.2c-0.2,0.3-0.3,0.7-0.7,0.7c-0.5-0.1-0.7-0.6-1.1-1
			c-0.2-0.3-0.4-0.5-0.7-0.7c-0.3-0.2-0.5-0.4-0.8-0.5c-0.1-0.1-0.3-0.2-0.4-0.3c-0.1-0.1-0.3-0.1-0.4-0.2c-0.3-0.3,0.4-1,0.6-1.2
			C2133.6,684.6,2133.7,684.4,2133.9,684.2z"/>
		<path class="st28" d="M2138.2,685.8c-0.9-0.6-1.5-1.4-1.9-2.4c-0.2-0.4-0.2-0.8-0.2-1.1c-0.4,1.3-0.1,2.6,0.7,3.7
			c0.2,0.3,0.5,0.6,0.8,0.9c0,0,0.1-0.1,0.1-0.1c0.2-0.2,0.4-0.3,0.6-0.3c0.3,0.1,0.4,0.4,0.7,0.4c0.2,0,0.4-0.1,0.5-0.3
			C2139.1,686.3,2138.6,686.1,2138.2,685.8z"/>
		<path class="st34" d="M2137.9,689.3c-0.4-0.2-0.9-0.3-1.2,0c0-0.4,0-0.8-0.1-1.1c-0.1-0.3-0.3-0.6-0.5-0.8
			c-0.8-0.7-1.6-1.3-2.4-1.8c-0.3-0.2-0.6-0.6-1-0.2c-0.3,0.3-0.5,0.5-0.8,0.8c-0.2,0.2-0.4,0.3-0.5,0.5c0.2,0.1,0.3,0.2,0.5,0.3
			c0.2,0.1,0.4,0.3,0.6,0.4c0.1,0,0.5,0.3,0.3,0.2c0.4,0.2,0.9,0.5,1.3,0.7c1.1,0.6,2.4,1.6,2.7,2.8c0.3,1.2,1.3,2,2.5,2.1
			c0.4,0.1,0.7,0.3,1.1,0.4c-0.1-0.8-1.1-3.6-2.3-2.6c0,0,0,0,0,0c0.3-0.4,0.3-1,0.1-1.5C2138,689.4,2137.9,689.4,2137.9,689.3z"/>
		<path class="st35" d="M2139.9,694c-0.7-1-1.7-1.7-2.4-2.7c-0.7-0.8-1.2-1.7-1.9-2.6c-0.3-0.4-0.6-0.8-0.9-1.2
			c-0.6-0.7-1.5-1.2-2.4-1.4c-0.8-0.1-1.5,0.5-2,1.1c-2.5,2.7-1.2,5.9-0.9,9.1c0.2,1.8-0.1,3.6-0.7,5.2c-0.7,1.5-1.5,2.9-2.5,4.2
			c-0.7,1.2-1.6,2.3-2.3,3.5c-0.4,0.6-0.7,1.3-0.7,2.1c0.1,1.7,1.5,2.2,3,2.3c1,0.1,2,0,3-0.3c1.6-0.4,3.1-1.3,4.8-1.6
			c0.2,0,0.5-0.1,0.7-0.1c0.1-0.7,0.1-1.4,0.1-2c0.1-0.9,0.2-1.9,0.3-2.9c0.1-2,0.6-3.9,1.4-5.7c0.5-1,1.2-1.9,2.1-2.6
			c0.9-0.7,1.5-1.6,1.9-2.6C2140.5,695.1,2140.3,694.5,2139.9,694z"/>
		<path class="st36" d="M2162.8,691.3L2162.8,691.3l-4.3,17.4h-17.9v0.1c0,0.6,0.5,1.1,1.1,1.1h15.8c0.6,0,1.1-0.5,1.1-1.1v0l0,0
			c0.6,0.2,1.2-0.2,1.3-0.8l3.8-15.4C2163.7,692,2163.4,691.5,2162.8,691.3L2162.8,691.3z"/>
		<path class="st31" d="M2151.6,706.7c-0.3-0.2-0.6-0.3-0.9-0.5c-0.2-0.2-0.5-0.4-0.8-0.5c-0.1-0.1-0.2-0.1-0.4-0.2
			c-0.4-0.1-0.7-0.1-1.1-0.1c-0.3,0-0.6,0.1-0.9,0.3c-0.3,0.1-0.6,0.3-0.9,0.4c-0.4,0.2-0.8,0.3-1.2,0.4c-0.4,0.1-0.7,0.2-1.1,0.2
			c-0.4,0-0.8-0.1-1.1-0.1c0,0.1-0.1,0.2-0.1,0.3c0,0.1,0,0.3,0,0.4c0,0.2-0.1,0.6,0,0.8c0.1,0.2,0.5,0.3,0.7,0.4
			c0.3,0.1,0.5,0.2,0.8,0.3c0.6,0.2,1.3,0.2,2,0c0.2,0,0.4,0,0.6-0.1c0.1,0,0.2-0.1,0.3-0.2c0,0,0.1-0.1,0.1-0.1
			c0.3,0.1,0.7,0.2,1,0.2c0.3,0,0.5,0.1,0.6-0.3c0-0.2-0.1-0.4-0.2-0.5c0,0-0.1-0.1-0.1-0.1c-0.1-0.1-0.3-0.1-0.4-0.2l0,0
			c0,0,0.1-0.1,0.1-0.1c0.4,0.3,0.8,0.6,1.2,0.7c0.2,0.1,0.5,0.2,0.6-0.1c0.1-0.2,0.1-0.4-0.1-0.5c0,0-0.1-0.1-0.1-0.1
			c-0.2-0.2-0.5-0.4-0.7-0.6c0-0.1,0.1-0.1,0.1-0.1c0.4,0.6,0.9,1,1.6,1.4c0.2,0.1,0.5,0.3,0.6,0c0.1-0.2,0.1-0.4,0-0.5
			c0,0-0.1-0.1-0.1-0.1c0,0,0,0-0.1-0.1c0.4,0.1,0.8,0.1,0.8-0.3C2152.4,707,2151.8,706.9,2151.6,706.7z"/>
		<path class="st37" d="M2136.6,701.6c-0.2-0.1-0.4-0.3-0.6-0.4c-0.3-0.1-0.7-0.4-0.7-0.7c-0.1-1-0.2-2-0.4-3
			c-0.1-1.5-0.4-3-0.6-4.5c0-1.2-0.2-2.3-0.4-3.5c-0.3-1.2-1.7-3.4-3.2-2.5c-2,1.2-1.8,4-1.5,5.9c0.4,2.5,1,4.7,1.5,7.1
			c0.2,0.8,0.4,1.6,0.7,2.4c0.4,1.2,1.7,1.9,2.8,2.6c1.6,0.9,3.1,1.9,4.6,3c0.7,0.6,1.5,1.3,2.2,2c0.5,0.5,0.6,0.2,1-0.2
			c0.6-0.8,1.2-1.5,1.9-2.3c0.2-0.3,0.5-0.5,0.8-0.7c0.1-0.1,0.3-0.2,0.3-0.3c0.1-0.2-0.3-0.3-0.4-0.3c-0.3-0.1-0.7-0.2-1-0.4
			c-1.1-0.5-2.1-1.1-3.2-1.8c-0.9-0.6-1.8-1.2-2.7-1.8c-0.3-0.2-0.5-0.3-0.8-0.5C2136.9,701.8,2136.7,701.7,2136.6,701.6z"/>
		<path class="st30" d="M2139.2,707.1c0,0.2-0.1,0.3-0.3,0.3s-0.3-0.1-0.3-0.3c0-0.2,0.1-0.3,0.3-0.3c0,0,0,0,0,0
			C2139.1,706.8,2139.2,706.9,2139.2,707.1L2139.2,707.1z"/>
		<path class="st30" d="M2140.2,707.9c0,0.2-0.1,0.3-0.3,0.3s-0.3-0.1-0.3-0.3s0.1-0.3,0.3-0.3
			C2140.1,707.6,2140.2,707.7,2140.2,707.9z"/>
		<path class="st30" d="M2141.3,708.8c0,0.2-0.1,0.3-0.3,0.3s-0.3-0.1-0.3-0.3s0.1-0.3,0.3-0.3S2141.3,708.6,2141.3,708.8
			L2141.3,708.8z"/>
		<path class="st30" d="M2129.1,710.1c-0.5,0-1-0.2-1.4-0.5c0.2,0.9,1.2,1.5,2.1,1.3c0.8-0.2,1.3-0.9,1.3-1.7c0-0.1,0-0.2,0-0.3
			C2130.7,709.6,2129.9,710.1,2129.1,710.1z"/>
		<rect x="2204" y="716.9" class="st38" width="0.6" height="17.1"/>
		<rect x="2216.5" y="717" class="st38" width="0.6" height="17.1"/>
		<path class="st39" d="M2213.2,725.5c2-1.5,3.3-4.8,3.3-8.4v-0.7h-11.9v0.7c0,3.6,1.3,6.8,3.3,8.4c-2,1.5-3.3,4.8-3.3,8.4v0.7h11.9
			v-0.7C2216.5,730.2,2215.2,727,2213.2,725.5z"/>
		<path class="st10" d="M2211.8,725.5c2.3-0.9,4-4.3,4-8.4h-10.4c0,4.1,1.7,7.5,4,8.4c-2.3,0.9-4,4.3-4,8.4h10.4
			C2215.8,729.8,2214.1,726.4,2211.8,725.5z"/>
		<path class="st40" d="M2214.4,733c-0.1-0.2-0.2-0.3-0.4-0.4c-0.3-0.3-0.5-0.5-0.8-0.7c-0.4-0.3-0.9-0.6-1.4-0.7
			c-0.2-0.1-0.4-0.1-0.6-0.1c-0.1,0-0.2,0-0.3,0v-5.7c0,0,0.1,0,0.1,0c0.1,0,0.3-0.1,0.4-0.1c0.4-0.1,0.7-0.3,1-0.5
			c0.2-0.1,0.4-0.3,0.6-0.5c0.1-0.1,0.2-0.2,0.3-0.3c0,0,0.2-0.3,0.2-0.3h-5.9c0,0,0.2,0.3,0.3,0.4c0.1,0.1,0.2,0.2,0.3,0.4
			c0.6,0.5,1.3,0.9,2,1v5.8c-1.2,0.1-2.2,0.6-3.1,1.5c-0.2,0.2-0.3,0.3-0.5,0.5c-0.1,0.1-0.3,0.5-0.4,0.5h8.4
			C2214.7,733.4,2214.5,733,2214.4,733z"/>
		<path class="st0" d="M2214,717c0.1,0.5,0.1,0.9,0.1,1.4c0,3.1-1.1,5.8-2.6,7.1c2.1-0.9,3.7-4.1,3.7-7.8c0-0.2,0-0.5,0-0.7
			L2214,717z"/>
		<path class="st0" d="M2214,734c0.1-0.5,0.1-0.9,0.1-1.4c0-3.1-1.1-5.8-2.6-7.1c2.1,0.9,3.7,4.1,3.7,7.8c0,0.2,0,0.5,0,0.7
			L2214,734z"/>
		<path class="st41" d="M2207.1,717c-0.1,0.5-0.1,0.9-0.1,1.4c0,3.1,1.1,5.8,2.8,7.1c-2.3-0.9-3.9-4.1-3.9-7.8c0-0.2,0-0.5,0-0.7
			L2207.1,717z"/>
		<path class="st41" d="M2207.1,734c-0.1-0.5-0.1-0.9-0.1-1.4c0-3.1,1.1-5.8,2.8-7.1c-2.3,0.9-3.9,4.1-3.9,7.8c0,0.2,0,0.5,0,0.7
			L2207.1,734z"/>
		<path class="st23" d="M2217.7,716.8c0,0.3-0.3,0.6-0.6,0.6H2204c-0.3,0-0.6-0.3-0.6-0.6l0,0c0-0.3,0.3-0.6,0.6-0.6h13.2
			C2217.5,716.2,2217.7,716.5,2217.7,716.8z"/>
		<path class="st23" d="M2217.7,734.1c0,0.3-0.3,0.6-0.6,0.6H2204c-0.3,0-0.6-0.3-0.6-0.6l0,0c0-0.3,0.3-0.6,0.6-0.6h13.2
			C2217.5,733.4,2217.7,733.7,2217.7,734.1z"/>
		<path class="st28" d="M2188.9,704.8c0.2-0.1,0.5-0.2,0.8-0.4c0.2-0.1,0.4-0.3,0.7-0.5c0.1-0.1,0.2-0.1,0.3-0.2
			c0.3-0.1,0.7-0.1,1-0.1c0.3,0,0.6,0.1,0.8,0.3c0.7,0.4,1.5,0.6,2.3,0.5c0.3-0.1,1.1-0.4,1.3-0.2c0.2,0.1,0.2,0.8,0.1,1
			c-0.1,0.3-0.3,0.6-0.5,0.7c-0.3,0.3-0.7,0.5-1.1,0.8c-0.4,0.1-0.9,0.1-1.3,0c-0.2,0-0.4,0-0.6-0.1c-0.1,0-0.2-0.1-0.3-0.1
			c0,0-0.1-0.1-0.1-0.1c-0.3,0.1-0.6,0.2-0.9,0.2c-0.2,0-0.4,0-0.5-0.2c0-0.2,0-0.3,0.2-0.4c0,0,0.1,0,0.1-0.1
			c0.1-0.1,0.2-0.1,0.4-0.2v0c0,0-0.1-0.1-0.1-0.1c-0.3,0.3-0.7,0.5-1.1,0.6c-0.2,0.1-0.4,0.2-0.5-0.1c-0.1-0.1,0-0.3,0.1-0.4
			c0,0,0.1-0.1,0.1-0.1c0.2-0.2,0.4-0.4,0.6-0.6c0-0.1-0.1-0.1-0.1-0.1c-0.4,0.5-0.8,0.9-1.4,1.2c-0.2,0.1-0.4,0.2-0.6,0
			c-0.1-0.1-0.1-0.3,0-0.4c0,0,0.1-0.1,0.1-0.1c0,0,0,0,0.1-0.1c-0.3,0.1-0.7,0.1-0.7-0.2C2188.2,705.1,2188.7,704.9,2188.9,704.8z"
			/>
		<path class="st42" d="M2199.9,701.1c0.1-0.1,0.3-0.1,0.4-0.2c0-1.1,0.1-2.3,0.1-3.5c0-0.6,0-1.2-0.1-1.7c-0.4-1.8-0.3-4.4,1.4-5.5
			c0.1,0.8,0,1.6,0,2.4c0.1,0.7,0.2,1.4,0.4,2.1c0.4,1.5,0.6,3,0.8,4.5c0,1.1,0.2,2.1,0.4,3.1c-0.9-0.2-1.8-0.1-2.7,0.3
			c-1,0.6-1.6,1.6-2.6,2.2c-0.6,0.3-4.7,1.9-4.5,0c0.2-0.1,0.3-0.2,0.5-0.2c1.1-0.6,2.1-1.4,3.2-2c0.6-0.3,1.2-0.6,1.8-0.9
			C2199.2,701.5,2199.6,701.2,2199.9,701.1z"/>
		<path class="st43" d="M2194.2,731c0.1-0.2,0.2-0.4,0.2-0.6c0.1-0.3,0.1-0.5,0-0.8c0,0,0.1-0.1,0.1-0.1c0.1-0.1,0.2-0.3,0.2-0.4
			c0.3,0,0.7,0.1,1,0.2c0,0.2,0.1,0.4,0.2,0.6c0.1,0.3,0.1,0.7,0.2,1.1c-0.1,0-0.2,0-0.3,0c-0.3,0-0.5,0.1-0.8,0.1
			c-0.3,0.1-0.6,0.2-0.9,0.2L2194.2,731C2194.2,731.1,2194.2,731.1,2194.2,731z"/>
		<path class="st29" d="M2198.7,732.6L2198.7,732.6c0-0.1,0.1-0.2,0.1-0.3c0-0.1,0.1-0.3,0.1-0.4c0-0.2-0.2-1.8-0.5-1.8
			c-0.2,0-0.4,0.4-0.6,0.5c-0.7,0.3-1.6,0.1-2.4,0.2c-0.3,0.1-0.6,0.3-0.9,0.3c0.3-0.3,0.6-0.9,0.4-1.3c-0.3-0.6-0.9,0.2-1.1,0.5
			c-0.5,0.5-1.1,0.9-1.7,1.1c-0.6,0.2-1.2,0.2-1.8,0.3c-0.2,0-0.7,0-0.8,0.2c-0.2,0.2-0.2,0.5-0.2,0.8c0,0.3,0,0.6,0.3,0.7
			c0.6,0.3,1.4,0.5,2.1,0.4c0.4,0,0.9,0,1.3,0c0.5,0,1.1-0.1,1.5-0.3c0.5-0.2,1-0.5,1.5-0.3c0.1,0.1,0.3,0.2,0.4,0.3
			c0.1,0.1,0.2,0.2,0.4,0.3c0.3,0,0.7,0,1,0c0.3,0,0.6,0,0.9-0.1C2198.8,733.1,2199,732.6,2198.7,732.6z"/>
		<path class="st44" d="M2189.7,708.4c0.9-1.1,2.1-1.1,3.5-1c0.8,0,1.7,0.1,2.5,0.3c0.9,0.1,1.9,0.3,2.8,0.4
			c2.1,0.2,4.1,0.5,6.1,0.9c1.4,0.3,4.2,1.4,5.4,0.1c0.3,1.2,0.4,2.5,0.3,3.8c-0.1,1.2-0.8,2.2-1.8,2.8c-2.4,1.3-5.8-0.1-8.1-0.9
			c-1.1-0.4-2.1-0.8-3.2-1.1c-0.2-0.1-2.8-0.6-2.8-0.5c0.4,1.3,1,2.6,1.4,3.9c0.9,2.8,1.6,5.7,2.1,8.6c0.3,1.4,0.7,2.8,0.9,4.3
			c-0.4-0.1-0.8-0.1-1.3-0.2c-0.5,0-1.1-0.1-1.6-0.2s-1-0.2-1.6-0.2l-0.3,0c-0.1-0.4-0.2-0.8-0.3-1.1c-1.2-5-2.2-10.1-4.1-14.9
			C2189.2,711.8,2188.5,709.8,2189.7,708.4z"/>
		<path class="st43" d="M2200.6,731.8c-0.3,0.2-0.7,0.3-1.1,0.4c-0.4,0-0.7,0-1.1,0.1c-0.4,0-0.8,0.1-1.2,0.2s-0.8,0-1.1,0
			c0-0.1-0.1-0.1-0.1-0.2c0.2-0.3,0.4-0.7,0.4-1.1c0-0.1,0-0.2,0-0.3c0.1-0.1,0.1-0.1,0.2-0.2c0.1-0.1,0.2-0.2,0.2-0.4l0.1,0
			c0.4,0.1,0.8,0.2,1.2,0.2c0.4,0,0.9,0,1.3,0.1c0.4,0,0.7,0.1,1.1,0.1c0,0.2,0.1,0.4,0.1,0.6
			C2200.7,731.5,2200.7,731.6,2200.6,731.8L2200.6,731.8z"/>
		<path class="st32" d="M2200.9,734L2200.9,734c0,0,0.1-0.3,0.2-0.3c0-0.2,0.1-0.3,0.1-0.5c0-0.2-0.3-2-0.5-1.9
			c-0.2,0-0.5,0.4-0.7,0.5c-0.8,0.4-1.7,0.1-2.6,0.2c-0.3,0.1-0.7,0.3-1,0.4c0.3-0.3,0.6-1,0.4-1.4c-0.3-0.6-1,0.2-1.2,0.5
			c-0.5,0.5-1.1,0.9-1.8,1.2c-0.6,0.2-1.3,0.2-1.9,0.3c-0.2,0-0.7,0-0.9,0.2c-0.2,0.2-0.3,0.5-0.3,0.8c0,0.4,0,0.6,0.3,0.8
			c0.7,0.4,1.5,0.5,2.3,0.4c0.5,0,0.9,0,1.4,0c0.6,0,1.1-0.1,1.6-0.4c0.5-0.2,1.1-0.6,1.6-0.3c0.2,0.1,0.3,0.2,0.4,0.3
			c0.1,0.1,0.3,0.3,0.4,0.3c0.4,0,0.7,0,1.1,0c0.3,0,0.7,0,1-0.1C2201,734.6,2201.2,734.1,2200.9,734z"/>
		<path class="st45" d="M2191.3,708.2c1-1.1,2.3-1.2,3.7-1.1c0.9,0,1.8,0.2,2.7,0.3c1,0.1,2,0.3,2.9,0.5c2.2,0.2,4.4,0.5,6.5,0.9
			c1.5,0.4,4.5,1.5,5.8,0.1c0.4,1.3,0.5,2.7,0.3,4.1c-0.1,1.3-0.8,2.4-1.9,3c-2.5,1.3-6.2-0.1-8.6-1c-1.1-0.4-2.3-0.8-3.5-1.2
			c-0.2-0.1-3-0.6-3-0.6c0.4,1.4,1,2.8,1.5,4.2c0.9,3,1.7,6.1,2.3,9.2c0.4,1.5,0.7,3,1,4.6c-0.4-0.1-0.9-0.1-1.4-0.2
			c-0.6-0.1-1.1-0.1-1.7-0.2s-1.1-0.2-1.7-0.2l-0.3,0c-0.1-0.4-0.2-0.8-0.3-1.2c-1.3-5.3-2.4-10.8-4.3-16
			C2190.8,711.9,2190.1,709.7,2191.3,708.2z"/>
		<path class="st46" d="M2180.7,691.1L2180.7,691.1l3.8,15.2h15.7v0c0,0.5-0.4,1-0.9,1h-13.9c-0.5,0-0.9-0.5-0.9-1v0v0l0,0
			c-0.5,0.1-1-0.2-1.2-0.7l-3.3-13.5C2179.9,691.7,2180.2,691.2,2180.7,691.1z"/>
		<path class="st47" d="M2204.9,694.3c0.3-0.7,0.6-1.5,0.8-2.2c0.2-0.8-0.9-0.8-1.4-0.8c-0.4,0.1-0.7,0.1-1.1,0.1
			c-0.4-0.1-0.7,0-1,0.3c-0.2,0.2-0.1,0.8-0.1,1.1c0.1,0.7,0.3,1.4,0.8,2c0.2,0.3,0.3,0.6,0.5,0.9c0.2,0.3,0.4,0.6,0.6,0.9
			c0.1-0.1,0.1-0.2,0.2-0.3C2204.4,695.7,2204.6,695,2204.9,694.3z"/>
		<path class="st48" d="M2203.3,695.8c-0.1-0.1-0.1-0.2-0.1-0.4c-0.1-0.2-0.1-0.4,0-0.6c0-0.3,0-0.6,0-0.9c0-0.2,0-0.5,0-0.7
			c0.1,0.1,0.2,0.1,0.3,0.1c0.1,0,0.2-0.1,0.3-0.1c0.1,0.3,0.3,0.7,0.5,1c0.1,0.2,0.4,0.5,0.3,0.8c-0.2,0.6-0.5,1.3-0.7,1.9
			c-0.2-0.3-0.4-0.6-0.5-0.9C2203.4,695.9,2203.3,695.8,2203.3,695.8z"/>
		<path class="st49" d="M2200.9,693.1c-0.1-1.1,0-2.1,0.5-3.1c0.3-0.7,0.8-1.3,1.5-1.7c0.2-0.1,0.4-0.1,0.6-0.2
			c-0.2,0.4-0.4,0.8-0.5,1.2c-0.2,0.5-0.4,1-0.5,1.6c0,0.5,0,1,0,1.4c0.1,0.7,0.3,1.4,0.6,2c0.1,0.3,0.3,0.6,0.4,0.9
			c0.2,0.3,0.3,0.6,0.3,1c0.4-0.9,0.8-1.8,1-2.8c0.2-0.7,0.3-1.6,0.6-2.3c0.2-0.6,0.4-1.3,0.5-1.9c0.1-0.5,0.2-1,0.3-1.4
			c0-0.3-0.1-0.6,0.1-0.9c0.4-0.7,1,0.1,1.5,0.4c0.7,0.4,1.4,0.8,2.1,1.2c1.3,0.8,2.1,2.1,2.4,3.6c0.1,0.7,0.1,1.4,0.1,2.1
			c0,0.9,0.2,1.8,0.2,2.8c0,2.3,0.1,4.6,0.1,6.9c0,1.8,1,3.4,1.6,5c0.4,1,1.3,4-0.2,4.6c-0.2,0-0.4,0.1-0.6,0
			c-0.1-0.1-0.1-0.2-0.1-0.3c0-0.1-0.1-0.2-0.2-0.3c-0.2-0.2-0.4-0.4-0.7-0.5c-1.6-1-3.2-1.9-4.9-2.7c-0.8-0.4-1.7-0.7-2.6-1
			c-0.8-0.1-1.5-0.3-2.3-0.5c-0.5-0.9-0.3-2.3-0.3-3.3c0-1.2-0.1-2.3-0.2-3.5c-0.1-1-0.4-1.9-0.4-2.8c-0.1-1-0.2-1.9-0.4-2.9
			C2201,694.7,2200.9,693.9,2200.9,693.1z"/>
		<path class="st50" d="M2202.1,692.4C2202.1,692.4,2202.1,692.5,2202.1,692.4c-0.2-0.2-0.2-0.5-0.2-0.8c0,0,0-0.1,0-0.1
			c0.1-0.4,0.2-0.8,0.3-1.1c0.1-0.3,0.2-0.6,0.3-0.8c0,0.3,0.3,0.5,0.5,0.7c0.3,0.3,0.5,0.7,0.7,1.1c0.1,0.4,0.1,0.9,0,1.3
			c-0.1,0-0.1,0-0.2,0c-0.1,0-0.2,0-0.3,0.1c-0.2-0.2-0.4-0.5-0.7-0.5C2202.3,692.1,2202.2,692.2,2202.1,692.4z"/>
		<path class="st51" d="M2195.9,682.2c0.1,0.1,0.2,0.3,0.2,0.5c0.4,1.9,2.2,4.5,4.2,4.8c0.9,0,1.8-0.1,2.7-0.2
			c0.8-0.1,1.6-0.5,2.3-1c0.5-1.5-1.1-2.1-1.4-3.3c-0.2-1.1,0.2-2.4-0.2-3.4c-0.5-0.7-1.2-1.3-2.1-1.5c-1.9-0.6-4,0.1-5.7,1
			c-0.3,0.2-0.7,0.2-1,0.2c-0.4,0-0.9,0-1.3,0c-0.2,0.9,1.2,2.4,1.9,2.8C2195.6,682,2195.8,682.1,2195.9,682.2z"/>
		<path class="st28" d="M2198.5,688.3L2198.5,688.3c0-0.6,1.4-0.7,1.8-1c0.5-0.4,0.9-1,1-1.7c0-0.4-0.2-0.7,0.1-1
			c0.1-0.2,0.5-0.7,0.8-0.6c0.2,0,0.3,0.3,0.4,0.4c0.3,0.4,0.7,0.7,1.1,1c0.2,0.1,0.3,0.1,0.5,0.2c0.1,0,0.3,0.1,0.4,0.1
			c0.4,0.1,0.7,0.2,1.1,0.4c0.2,0.1,0.5,0.2,0.7,0.3c0.1,0,0.1,0.1,0.1,0.1c0.1,0.1,0,0.1,0,0.2c0,0.1,0,0.3,0,0.4s0,0.3,0,0.4
			s0,0.3,0,0.4c0,0.1-0.1,0.3-0.2,0.4c-0.1,0.3-0.2,0.7-0.3,1.1c-0.3,0.5-0.6,1-1.1,1.5c-0.4,0.4-0.7,1.4-1.2,0.7
			c-0.4-0.4-0.5-1-0.9-1.4s-0.9-0.8-1.3-1.2c-0.4-0.4-0.9-0.6-1.4-0.6C2199.5,688.4,2199,688.4,2198.5,688.3z"/>
		<path class="st52" d="M2203.4,692.6c0-0.1,0-0.2,0-0.2c0.2-0.9,0.5-1.8,1-2.6c0.4-0.8,0.7-1.6,0.9-2.4c0.1-0.2,0.1-0.3,0.2-0.5
			c0.1-0.1,0.1-0.2,0.1-0.3c0-0.1,0.1-0.3,0.1-0.4c0-0.1-0.2-0.1-0.3-0.2c0,0,0.1-0.1,0.2-0.1c0.1,0,0.1,0,0.2,0c0,0,0.1,0,0.1,0
			c0.1,0,0.1,0,0.2,0s0.1,0,0.2,0s0.1,0,0.2,0.1c0.1,0,0.1,0,0.2,0.1c0.1,0.1,0.2,0.1,0.2,0.2c0,0.1,0.1,0.2,0.1,0.3
			c0,0.2,0,0.5,0,0.7c-0.1,0.5-0.2,1-0.4,1.5c-0.3,1.2-0.7,2.3-1.2,3.4c-0.3-0.2-0.5-0.3-0.7-0.4c-0.7-0.4-1,0.2-1.1,0.8
			C2203.7,692.7,2203.6,692.6,2203.4,692.6z"/>
		<path class="st31" d="M2202.4,684.4c0.1-0.4,0.1-0.8-0.1-1.1c-0.2-0.5-0.8-1.2-1.4-1.1c-0.3,0-0.6,0.3-0.6,0.6
			c-0.1,0.3,0,0.7,0.2,0.9c-0.6,0.1-1.1-0.4-1.4-0.9c-0.4-0.6,0.1-0.9,0.3-1.5c0.1-0.2,0.1-0.5-0.1-0.6c-0.2-0.1-0.5,0.1-0.8,0.2
			c-0.5,0.2-0.9,0.3-1.4,0.4c-0.3,0.1-0.5,0.1-0.8,0.1c-0.2,0-0.6-0.2-0.7-0.1c-0.3,0.2-0.1,1.1-0.1,1.4c0,0.8,0.1,1.5,0.3,2.3
			c0.3,1.2,0.8,2.4,1.5,3.5c0.4,0.6,1.3,0.1,1.8,0.1c0.6,0,1.3-0.2,1.8-0.6c0.5-0.3,0.9-0.8,1.1-1.3c0.1-0.7,0-1.3-0.2-1.9
			C2202,684.9,2202.3,684.8,2202.4,684.4z"/>
		<path class="st53" d="M2203.7,692.5L2203.7,692.5c0.2,0.1,0.4,0.3,0.4,0.5c0,0.2,0,0.5-0.1,0.7c-0.1,0.2-0.2,0.3-0.4,0.2
			c-0.2-0.1-0.4-0.4-0.5-0.6c-0.1-0.3-0.1-0.5,0-0.8C2203.2,692.3,2203.5,692.3,2203.7,692.5z"/>
		<path class="st31" d="M2190.5,704.6c0.2-0.1,0.5-0.2,0.8-0.4c0.2-0.1,0.4-0.3,0.7-0.5c0.1-0.1,0.2-0.1,0.3-0.2
			c0.3-0.1,0.7-0.1,1-0.1c0.3,0,0.6,0.1,0.8,0.3c0.3,0.1,0.5,0.3,0.8,0.4c0.4,0.1,0.7,0.3,1.1,0.3c0.3,0.1,0.6,0.2,1,0.2
			c0.3,0,0.7-0.1,1-0.1c0,0.1,0.1,0.2,0.1,0.3c0,0.1,0,0.2,0,0.3c0,0.2,0.1,0.5,0,0.7c-0.1,0.2-0.4,0.3-0.6,0.3
			c-0.2,0.1-0.5,0.2-0.7,0.3c-0.6,0.2-1.2,0.2-1.7,0c-0.2,0-0.4,0-0.6-0.1c-0.1,0-0.2-0.1-0.3-0.1c0,0-0.1-0.1-0.1-0.1
			c-0.3,0.1-0.6,0.2-0.9,0.2c-0.2,0-0.4,0-0.5-0.2c0-0.2,0-0.3,0.2-0.4c0,0,0.1,0,0.1-0.1c0.1-0.1,0.2-0.1,0.4-0.2l0,0
			c0,0-0.1-0.1-0.1-0.1c-0.3,0.3-0.7,0.5-1.1,0.7c-0.2,0.1-0.4,0.2-0.5-0.1c-0.1-0.1,0-0.3,0.1-0.4c0,0,0.1-0.1,0.1-0.1
			c0.2-0.2,0.4-0.4,0.6-0.6c0-0.1-0.1-0.1-0.1-0.1c-0.4,0.5-0.8,0.9-1.4,1.2c-0.2,0.1-0.4,0.2-0.6,0c-0.1-0.1-0.1-0.3,0-0.4
			c0,0,0.1-0.1,0.1-0.1c0,0,0,0,0.1-0.1c-0.3,0.1-0.7,0.1-0.7-0.2C2189.8,704.8,2190.3,704.7,2190.5,704.6z"/>
		<path class="st54" d="M2204.1,700.7c0.8-0.5,2-1.2,2.3-0.3c-0.1-0.5-0.2-1-0.2-1.5c-0.1-0.7,0-1.5-0.1-2.3
			c-0.2-1.3-0.2-2.6,0.2-3.8c0.4-1.6,1.2-5,3.6-3.4c1.3,0.8,1.6,2.5,1.7,4c0,1.8-0.1,3.6-0.2,5.4c0,1,0,2-0.1,3
			c-0.1,1.4-1.6,1.9-2.8,2.5c-0.9,0.5-1.9,0.8-2.9,1.1c-0.9,0.2-1.7,0.4-2.6,0.7c-0.8,0.3-1.6,0.5-2.4,0.5c-0.3,0.1-0.5,0-0.8-0.1
			c-0.2-0.1-0.4-0.5-0.5-0.5s-0.5,0.2-0.7,0.2c-0.2,0.1-0.5,0.1-0.7,0.1c-0.3,0.1-0.3,0.2-0.5-0.1c-0.1-0.2-0.2-0.4-0.2-0.6
			c-0.1-0.4-0.2-0.7-0.3-1.1c-0.1-0.6,0.2-0.6,0.6-0.7c0.4-0.1,0.8-0.3,1.2-0.4c0-0.5,0-0.7,0.4-1.1c0.4-0.3,0.8-0.5,1.2-0.6
			c0.6-0.3,1.3-0.5,1.9-0.7c0.4-0.1,0.7,0.2,1.1,0.1C2203.6,701,2203.9,700.9,2204.1,700.7z"/>
		<path class="st48" d="M2250.3,701h-21.2v1.4h1.3v13.8h0.9v-13.8h17.2v13.8h0.9v-13.8h1L2250.3,701z"/>
		<path class="st32" d="M2243.8,676.5c0,0.2-0.1,0.5-0.1,0.7c-0.1,0.5-0.4,1-0.7,1.4c-0.4,0.8-1.1,1.6-1.8,2.2
			c-0.3,0.2-0.6,0.3-0.9,0.5c-0.3,0.2-0.7,0.2-1,0.1c-0.6-0.4-1-0.9-1.4-1.4c-0.6-0.7-1.1-1.5-1.3-2.4c-0.3-0.9-0.3-1.9-0.1-2.8
			c0.1-0.3,0.3-0.6,0.5-0.9c0.4-0.5,1-1,1.6-1.4c0.6-0.4,1.3-0.6,2-0.7c0.4,0,0.6-0.1,0.9,0.2c0.2,0.3,0.3,0.7,0.2,1
			c0.3-0.3,0.5-0.4,0.9-0.2c0.3,0.3,0.6,0.6,0.7,1C2243.8,674.6,2244,675.6,2243.8,676.5z"/>
		<path class="st31" d="M2231.5,687.7h-0.6c-0.1,0.2-0.2,0.4-0.3,0.5c-0.4,0.7-0.8,1.4-1.2,2.1c-0.3,0.6-0.6,1.1-0.9,1.8
			c-0.1,0.2-0.2,0.5-0.2,0.7c0,0.3,0.1,0.3,0.3,0.5c0.3,0.4,0.6,0.9,0.8,1.4c0.3,0.6,0.7,1.1,1.1,1.6c0.3,0.3,0.7,0.6,1,0.8V687.7z"
			/>
		<path class="st31" d="M2248.6,687.7h0.6c0.1,0.2,0.2,0.4,0.3,0.5c0.4,0.7,0.8,1.4,1.2,2.1c0.3,0.6,0.6,1.1,0.9,1.8
			c0.1,0.2,0.2,0.5,0.2,0.7c0,0.3-0.1,0.3-0.3,0.5c-0.3,0.4-0.6,0.9-0.8,1.4c-0.3,0.6-0.7,1.1-1.1,1.6c-0.3,0.3-0.7,0.6-1,0.8
			L2248.6,687.7z"/>
		<path class="st55" d="M2247.9,699.7h-15.4c0,0-0.1,0-0.1,0c-1.7,1-1.5,4,0,5.1c1.2,0.8,2.8,0.8,4,0c0.7-0.5,1.4-1,2.1-1.6
			c0.7-0.6,1.3-1.2,1.9-1.8c0.9,1.7,2.9,2.7,4.6,3.4c0.8,0.5,1.8,0.5,2.6,0c0.9-0.7,1.4-1.8,1.4-3c0-0.6-0.1-1.1-0.4-1.6
			C2248.3,700.1,2248.1,699.9,2247.9,699.7z"/>
		<path class="st44" d="M2232.1,717.4c-0.1,0.5-0.3,0.9-0.5,1.4c-0.2,0.4-0.4,0.8-0.5,1.2c-0.1,0.3-0.3,0.7-0.2,1
			c0.2,0.3,0.4,0.5,0.8,0.5c0.3,0,0.6,0,0.8,0c0.2-0.1,0.5-0.2,0.7-0.3c0.1-0.1,0.3-0.1,0.4-0.2c0.1-0.1,0.2-0.2,0.2-0.3
			c0.1-0.1,0.1-0.1,0.2-0.2c0.1-0.2,0.2-0.3,0.3-0.5c0.1-0.2,0.2-0.3,0.2-0.5c0-0.2,0-0.4,0.1-0.6c0.1-0.2,0.2-0.3,0.4-0.4
			c0.1-0.1,0.3-0.1,0.4-0.1c0.1,0,0.2-0.1,0.3-0.1c0.2-0.1,0.1-0.5,0.2-0.7c0,0,0-0.1,0-0.1L2232.1,717.4z"/>
		<path class="st56" d="M2235.9,717.9C2235.9,717.8,2235.9,717.8,2235.9,717.9c-0.1,0-0.2,0.1-0.3,0.2c-0.1,0.1-0.2,0.2-0.4,0.2
			c-0.2,0.1-0.4,0.2-0.5,0.4c0,0.1-0.1,0.2-0.1,0.4c0,0.1-0.1,0.3-0.1,0.4c-0.2,0.4-0.4,0.8-0.7,1.2c-0.4,0.4-1,0.6-1.5,0.6
			c-0.3,0-0.7,0-1-0.1c-0.1-0.1-0.2-0.2-0.3-0.3c0,0-0.1-0.1-0.1-0.2c-0.1,0.2,0,0.5,0.1,0.7c0.1,0.1,0.2,0.2,0.3,0.3
			c0.3,0.1,0.6,0.2,1,0.1c0.6,0,1.1-0.2,1.5-0.6c0.3-0.3,0.6-0.7,0.7-1.1c0.1-0.2,0.2-0.4,0.2-0.6c0-0.2,0-0.3,0-0.5
			c0-0.1,0.1-0.1,0.3-0.2c0.1,0,0.3-0.1,0.4-0.1s0.3-0.1,0.4-0.1c0.1,0,0.1,0,0.1-0.1c0-0.1,0-0.1,0-0.2
			C2236,718.1,2235.9,718,2235.9,717.9z"/>
		<path class="st57" d="M2236.2,709c0-1.4,0-2.8-0.1-4.2c0-1.5,0.6-5.2-2.4-5.1c-1.5,0-2.9,0.5-3.1,1.8c0,0.9,0,1.8,0.2,2.7
			c0,1.6,0.1,3.2,0.3,4.8c0.3,2.2,0.5,4.5,0.5,6.7c0,0.5,0,0.9,0.1,1.4c0,0.3,0,0.6,0,0.9h4.4c0-0.2,0.1-0.3,0.1-0.5
			c0.1-1.8,0.1-3.7-0.1-5.5C2236.1,711,2236.2,710,2236.2,709z"/>
		<path class="st44" d="M2247.6,717.3c0.1,0.5,0.3,0.9,0.5,1.4c0.2,0.4,0.4,0.8,0.5,1.2c0.1,0.3,0.3,0.7,0.2,1
			c-0.2,0.3-0.4,0.5-0.8,0.5c-0.3,0-0.6,0-0.8,0c-0.2-0.1-0.5-0.2-0.7-0.3c-0.1-0.1-0.3-0.1-0.4-0.2c-0.1-0.1-0.2-0.2-0.2-0.3
			c-0.1-0.1-0.1-0.1-0.2-0.2c-0.1-0.2-0.2-0.3-0.3-0.5c-0.1-0.2-0.2-0.3-0.2-0.5c0-0.2,0-0.4-0.1-0.6c-0.1-0.2-0.2-0.3-0.4-0.4
			c-0.1-0.1-0.3-0.1-0.4-0.1c-0.1,0-0.2-0.1-0.3-0.1c-0.2-0.1-0.2-0.5-0.2-0.7c0,0,0-0.1,0-0.1L2247.6,717.3z"/>
		<path class="st56" d="M2243.8,717.7C2243.8,717.7,2243.8,717.7,2243.8,717.7c0.1,0,0.2,0.1,0.3,0.2c0.1,0.1,0.2,0.2,0.3,0.2
			c0.2,0.1,0.4,0.2,0.5,0.4c0,0.1,0.1,0.2,0.1,0.4c0,0.1,0.1,0.3,0.1,0.4c0.2,0.4,0.4,0.8,0.7,1.1c0.4,0.4,1,0.6,1.5,0.6
			c0.3,0,0.7,0,1-0.1c0.1-0.1,0.2-0.2,0.3-0.3c0-0.1,0.1-0.1,0.1-0.2c0.1,0.2,0,0.5-0.1,0.7c-0.1,0.1-0.2,0.2-0.3,0.3
			c-0.3,0.1-0.6,0.2-1,0.1c-0.6,0-1.1-0.2-1.5-0.6c-0.3-0.3-0.6-0.7-0.7-1.2c-0.1-0.2-0.2-0.4-0.2-0.6c0-0.2,0-0.3,0-0.5
			c0-0.1-0.1-0.1-0.3-0.2c-0.1,0-0.3-0.1-0.4-0.1c-0.1,0-0.3-0.1-0.4-0.1c-0.1,0-0.1,0-0.1-0.1c0-0.1,0-0.1,0-0.2
			C2243.7,717.9,2243.8,717.8,2243.8,717.7z"/>
		<path class="st57" d="M2243.5,708.8c0-1.4,0-2.8,0.1-4.2c0-1.5-0.6-5.2,2.4-5.1c1.5,0,2.9,0.5,3.1,1.8c0,0.9,0,1.8-0.2,2.7
			c0,1.6-0.1,3.2-0.3,4.8c-0.3,2.2-0.5,4.5-0.5,6.7c0,0.5,0,0.9-0.1,1.4c0,0.3,0,0.6,0,0.9h-4.4c0-0.1,0-0.2-0.1-0.5
			c-0.1-1.8-0.1-3.7,0.1-5.5C2243.6,710.8,2243.5,709.9,2243.5,708.8z"/>
		<path class="st58" d="M2232.3,688.2c0,0.2,0.1,0.4,0.1,0.5h15.3c0-0.4,0.1-0.7,0.1-1.1c0.1-0.5,0.1-1.1,0.1-1.7
			c0-0.2-0.1-0.3-0.1-0.5c0-0.3,0-0.5,0-0.8c0-0.3,0-0.6-0.2-0.8c0,0,0,0,0,0c-0.8-0.6-1.6-1.1-2.5-1.4c-0.5-0.2-1-0.4-1.5-0.6
			c-0.2-0.1-0.5-0.1-0.7-0.2c-1-0.2-2-0.3-3-0.1c-1.2,0-2.5,0.2-3.6,0.7c-0.4,0.2-0.7,0.4-1.1,0.6c-0.4,0.2-0.9,0.4-1.3,0.7
			c-0.4,0.3-0.9,0.6-1.3,1c-0.7,0.7-0.4,1.5-0.4,2.4C2232.1,687.3,2232.2,687.7,2232.3,688.2z"/>
		<path class="st59" d="M2249,688.8l0.3-0.2c0.3-0.1,0.6-0.3,0.9-0.4c-0.3-0.5-0.5-1.1-0.8-1.6c-0.3-0.6-0.7-1.1-1.1-1.6
			c-0.1-0.2-0.6-1.1-0.8-1.1c-0.2,0-0.4,0.4-0.5,0.5c-0.4,0.7-0.7,1.4-1,2.1c-0.3,0.7-0.5,1.5-0.6,2.3L2249,688.8z"/>
		<path class="st60" d="M2247.8,689.4C2247.9,689.4,2248.2,689.2,2247.8,689.4L2247.8,689.4z"/>
		<path class="st59" d="M2234.4,688.8c0-0.1,0-0.3,0-0.4c0-0.3-0.1-0.7-0.3-1c-0.3-0.7-0.6-1.4-1-2c-0.1-0.2-0.2-0.3-0.3-0.5
			c-0.1-0.1-0.2-0.2-0.3-0.3c-0.2-0.1-0.4,0.1-0.5,0.3c-0.1,0.2-0.2,0.5-0.4,0.7c-0.3,0.6-0.7,1.2-1,1.8c-0.1,0.3-0.3,0.5-0.4,0.8
			c0.5,0.2,1,0.4,1.5,0.6L2234.4,688.8z"/>
		<path class="st61" d="M2237.5,703.5L2237.5,703.5"/>
		<path class="st43" d="M2231.7,687.6h16.6c0.4,0,0.8,0.4,0.8,0.8v10.8c0,0.4-0.4,0.8-0.8,0.8h-16.6c-0.4,0-0.8-0.4-0.8-0.8
			c0,0,0,0,0,0v-10.8C2230.9,688,2231.2,687.6,2231.7,687.6z"/>
		<path class="st62" d="M2240.7,693.8c0,0.4-0.3,0.7-0.7,0.7c-0.4,0-0.7-0.3-0.7-0.7c0-0.4,0.3-0.7,0.7-0.7c0,0,0,0,0,0
			C2240.4,693.1,2240.7,693.4,2240.7,693.8z"/>
		<path class="st59" d="M2241.9,682.9c-1,0.2-2,0.2-3.1,0.2c-0.3,0-0.6,0-0.8,0c-0.6,0-1.2-0.3-1.7-0.7c-0.2-0.2-0.3-0.4-0.4-0.6
			c0.3-0.2,0.6-0.3,0.9-0.3c1.1-0.3,2.1-0.4,3.2-0.5c0.4,0,0.9,0,1.3,0.1c0.4,0,0.8,0.1,1.1,0.1c0.5,0,1,0.1,1.5,0.4
			c0.1,0.4-0.3,0.6-0.5,0.8C2243,682.7,2242.5,682.9,2241.9,682.9z"/>
		<path class="st31" d="M2242.6,682c-0.2,0-0.4-0.1-0.5-0.1c0,0,0-0.1,0-0.1c0-0.5,0-1.1,0-1.6V679c-0.3,0.3-0.6,0.5-1,0.7
			c-0.5,0.3-1.1,0.3-1.6,0.2c-0.6-0.2-1.1-0.7-1.4-1.2c0,0.5,0.1,0.9,0.1,1.4c0,0.7,0,1.3,0,2c-0.1,0-0.3,0.1-0.4,0.2
			c-0.2,0.1-0.4,0.2-0.6,0.2c-0.1,0-0.2,0.1-0.4,0.2c0,0-0.1,0.1-0.1,0.1c0.1,0.1,0.2,0.1,0.3,0.2c0.1,0.1,0.1,0.1,0.2,0.2
			c0.2,0.1,0.3,0.2,0.4,0.4c0.3,0.3,0.5,0.6,0.7,0.8c0.7,0.7,1.3,1.4,1.8,2.2c0.5-0.7,1-1.4,1.5-2c0.5-0.6,0.9-1.2,1.4-1.8
			c0.1-0.1,0.1-0.2,0.2-0.2c0.1,0,0.1-0.1,0.2-0.1c-0.2-0.1-0.3-0.1-0.5-0.2C2242.8,682.1,2242.7,682.1,2242.6,682z"/>
		<path class="st28" d="M2237.1,683.1c0.2,0.1,0.3,0.2,0.4,0.4c0.1,0.1,0.2,0.3,0.3,0.4l0.1,0c0.3,0,0.6,0,0.8,0
			c0.2,0,0.4-0.1,0.5-0.1c0.1,0,0.5-0.2,0.6-0.2c0.2-0.1,0.4-0.2,0.6-0.3c0.1-0.1,0.3-0.2,0.3-0.3c0.1-0.1,0.2-0.2,0.3-0.4
			c0,0,0.1-0.1,0.1-0.2c0.1-0.1,0.2-0.3,0.3-0.5c0.1-0.2,0.2-0.4,0.3-0.5c0-0.1,0.1-0.1,0.1-0.2c0-0.1,0.1-0.2,0.1-0.3
			c0-0.2,0-0.4,0-0.7V679c-0.3,0.3-0.6,0.5-1,0.7c-0.5,0.3-1.1,0.3-1.6,0.2c-0.6-0.2-1.1-0.7-1.4-1.2c0,0.5,0.1,0.9,0.1,1.4
			c0,0.7,0,1.3,0,2c-0.1,0-0.3,0.1-0.4,0.2c-0.2,0.1-0.4,0.2-0.6,0.2c-0.1,0-0.2,0.1-0.4,0.2c0,0-0.1,0.1-0.1,0.1
			c0.1,0.1,0.2,0.1,0.3,0.2C2237,682.9,2237,683,2237.1,683.1z"/>
		<path class="st31" d="M2243.3,676.5c0-0.1-0.1-0.2-0.2-0.2c-0.1,0.1-0.2,0.2-0.2,0.4c0,0.3-0.1,0.5-0.1,0.8
			c-0.1,0-0.2-0.1-0.3-0.1c0.1-0.6,0.1-1.1,0.1-1.7c-0.1,0.2-0.1,0.4-0.2,0.6c0-0.3-0.1-0.6-0.2-0.8c-0.1-0.1-0.1-0.2-0.2-0.3
			c-0.1-0.1-0.2-0.2-0.3-0.3c0.1,0.2,0.2,0.4,0.2,0.6c0,0.1,0,0.2,0,0.4c0,0.1,0,0.3,0.1,0.3c-0.3-0.3-0.6-0.5-0.9-0.8
			c0.2,0.2,0.7,0.7,0.7,1.1c0,0.1-0.5,0.1-0.6,0.1c-0.2,0-0.4,0-0.6,0c-0.4,0-0.8-0.1-1.1-0.2c-0.3-0.1-0.5-0.3-0.8-0.5
			c-0.2-0.2-0.5-0.4-0.5-0.7c0,0.3,0,0.6,0,0.9c-0.1,0.3-0.2,0.5-0.4,0.7c0-0.3,0-0.5,0-0.8c-0.1,0.2-0.1,0.5-0.1,0.7
			c0,0.2,0,0.4,0.1,0.7c-0.1,0-0.2,0.1-0.3,0.1c-0.1-0.3-0.1-0.5-0.1-0.8c0-0.2-0.1-0.3-0.2-0.4c-0.1-0.1-0.2,0.1-0.2,0.2
			c0,0.2-0.1,0.4,0,0.6c0,0.2,0.1,0.4,0.1,0.6c0,0.2,0.1,0.4,0.2,0.5c0.1,0.1,0.2,0,0.2-0.1c0,0.2,0,0.5,0.1,0.7
			c0.2,0.7,0.5,1.3,1,1.9c0.8,0.9,2.3,1,3.2,0.2c0.1-0.1,0.1-0.1,0.2-0.2c0.4-0.6,0.8-1.2,1-1.9c0.1-0.2,0.1-0.5,0.1-0.7
			c0,0.1,0.1,0.2,0.2,0.1c0.1-0.1,0.2-0.4,0.2-0.5c0.1-0.2,0.1-0.4,0.1-0.6C2243.3,676.9,2243.3,676.7,2243.3,676.5z"/>
	</g>
</g>
</svg>
