<?xml version="1.0" encoding="utf-8"?>
<!-- Generator: Adobe Illustrator 25.2.1, SVG Export Plug-In . SVG Version: 6.00 Build 0)  -->
<svg version="1.1" id="Layer_1" xmlns="http://www.w3.org/2000/svg" xmlns:xlink="http://www.w3.org/1999/xlink" x="0px" y="0px"
	 viewBox="0 0 208 295" style="enable-background:new 0 0 208 295;" xml:space="preserve">
<style type="text/css">
	.st0{fill:#FFFFFF;}
	.st1{fill:#00165E;}
	.st2{fill:#EC4115;}
	.st3{enable-background:new    ;}
	.st4{clip-path:url(#SVGID_2_);}
	.st5{fill:#F2CED0;}
	.st6{fill:#F9E9E3;}
	.st7{fill:#ECA3B3;}
	.st8{clip-path:url(#SVGID_4_);}
	.st9{opacity:0.55;}
	.st10{clip-path:url(#SVGID_6_);}
	.st11{fill:#ED8CA5;}
	.st12{clip-path:url(#SVGID_8_);}
	.st13{clip-path:url(#SVGID_10_);}
	.st14{fill:#152A83;}
	.st15{fill:#F7C09C;}
	.st16{clip-path:url(#SVGID_12_);}
	.st17{fill:#1E2E35;}
	.st18{fill:#D8CCE2;}
	.st19{fill:#838AC9;}
	.st20{fill:#EBEBEB;}
	.st21{fill:#7083D2;}
	.st22{fill:#F7D0BD;}
	.st23{fill:#8B93D7;}
	.st24{fill:#D8DFEC;}
	.st25{fill:#18297F;}
	.st26{fill:#142A82;}
	.st27{fill:#EDEAEF;}
	.st28{fill:#DDDDE8;}
	.st29{fill:#A6A6A6;}
	.st30{fill:#C7C7C7;}
	.st31{fill:#95A7F8;}
	.st32{fill:#10205B;}
	.st33{fill:#6F82D6;}
	.st34{fill:#4362A8;}
</style>
<g transform="translate(-8264 -2725)">
	<rect x="8264" y="2725" class="st0" width="208" height="295"/>
	<g transform="translate(8294 2799.717)">
		<g transform="translate(0 0)">
			<rect x="14.1" y="13.2" class="st1" width="3.6" height="11.6"/>
			<path class="st1" d="M31.1,15.8h3.4v9h3.6v-9h3.5v-2.6H31.1V15.8z"/>
			<path class="st1" d="M47.6,20.3h4.8v-2.5h-4.8v-2h5.4v-2.6H44v11.6h8.9v-2.6h-5.4L47.6,20.3z"/>
			<path class="st1" d="M7.9,13.2L3.8,19l4.1,5.8h3.9L7.7,19l4.1-5.8H7.9z"/>
			<path class="st1" d="M3.5,13.2H0v11.6h3.5V13.2z"/>
			<path class="st1" d="M59.7,13.2h-4.4v11.6h3.5v-9.3h0.9c1.3,0,1.7,0.6,1.7,1.4c0,1-0.3,1.6-1.7,1.6h-0.9l1.3,2.4
				c4.5-0.1,4.9-2.8,4.9-4C65,15.7,64.5,13.2,59.7,13.2z"/>
			<path class="st2" d="M0,3.3v3.1C21.4,2,43.6,2,65,6.3V3.3C43.6-1.1,21.4-1.1,0,3.3z"/>
			<path class="st1" d="M25.9,17.8c-1.7-0.6-2.4-0.8-2.4-1.4c0-0.5,0.6-0.9,1.7-0.9c1.2,0,2.4,0.2,3.6,0.7v-2.6
				c-1.1-0.4-2.3-0.6-3.5-0.6c-3.4,0-5.4,1.6-5.4,3.6c0,1.7,1.5,2.8,3.8,3.5c1.5,0.4,2.1,0.8,2.1,1.3c0,0.6-0.6,1-1.8,1
				c-1.3,0-2.7-0.2-3.9-0.7v2.6c1.2,0.4,2.4,0.6,3.7,0.6c3.9,0,5.7-1.7,5.7-3.7C29.4,19.7,28.3,18.5,25.9,17.8z"/>
		</g>
	</g>
	<g class="st3">
		<path d="M8314.9,2848.3v2.1h-19.6v-2.1h8.6v-5h2.3v5H8314.9z M8300.9,2842.4c-1.6,0.8-3.3,1.3-5.1,1.4v-2.1
			c1.4-0.1,2.7-0.5,3.8-1.1c1.2-0.6,2.2-1.4,3-2.4s1.4-2.2,1.7-3.6h-8v-2.1h17.5v2.1h-7c-0.2,1-0.5,1.9-0.9,2.7l8.6,4.8l-1.1,1.8
			l-8.6-4.8C8303.8,2840.5,8302.5,2841.6,8300.9,2842.4z"/>
		<path d="M8323.9,2840.5l6.2,8.4l-1.8,1.3l-5.1-7c-0.7,2.2-1.6,3.9-2.8,5.1s-2.5,1.9-4,2v-2.3c1.3-0.2,2.4-1,3.3-2.4
			c0.9-1.4,1.6-3.3,2-5.6c0.5-2.3,0.7-4.9,0.7-7.7l2.3,0.1C8324.7,2835.4,8324.4,2838.2,8323.9,2840.5z M8336.8,2841.9h-2.8v9.5
			h-2.3v-19.6h2.3v8h2.8V2841.9z"/>
		<path d="M8340.9,2843h-2.7v-2.7h2.7V2843z"/>
		<path d="M8354.1,2842c-1.1,0.1-2.3,0.2-3.7,0.2h-6.8v-1.9h2.3v-6.2h-2.2v-1.9h12.5v1.9h-2.3v6.1c1.2-0.1,2.1-0.3,2.8-0.6v1.9
			C8356.1,2841.7,8355.2,2841.9,8354.1,2842z M8359.8,2844.6c1.5,0.6,2.3,1.6,2.3,2.9c0,1.3-0.8,2.3-2.3,2.9
			c-1.5,0.6-3.6,0.9-6.2,0.9s-4.6-0.3-6.2-0.9c-1.5-0.6-2.3-1.6-2.3-2.9c0-1.3,0.8-2.3,2.3-2.9s3.6-0.9,6.2-0.9
			S8358.3,2844,8359.8,2844.6z M8358,2849c1.1-0.3,1.7-0.8,1.7-1.5c0-0.7-0.6-1.2-1.7-1.5c-1.1-0.3-2.6-0.5-4.4-0.5
			s-3.3,0.2-4.4,0.5c-1.1,0.3-1.7,0.8-1.7,1.5c0,0.7,0.6,1.2,1.7,1.5c1.1,0.3,2.6,0.5,4.4,0.5S8356.9,2849.4,8358,2849z
			 M8348.1,2840.3h2.4c0.5,0,0.9,0,1.2,0v-6.2h-3.6V2840.3z M8359.7,2839.8h-2.9v-1.9h2.9v-2.2h-2.9v-1.9h2.9v-2.1h2.3v11.3h-2.3
			V2839.8z"/>
		<path d="M8365.2,2832.5h10.7v4.7c0,2.6-0.4,4.9-1.3,6.8c-0.9,2-2.1,3.5-3.7,4.5c-1.6,1.1-3.5,1.6-5.7,1.6v-2.2
			c1.8,0,3.3-0.4,4.5-1.3c1.2-0.9,2.2-2.1,2.9-3.7c0.7-1.6,1-3.5,1-5.7v-2.7h-8.4V2832.5z M8385,2841.9h-2.8v9.5h-2.3v-19.6h2.3v8
			h2.8V2841.9z"/>
	</g>
	<g class="st3">
		<path d="M8315.4,2850.9h-20.6v-3.1h8.6v-5h3.3v5h8.7V2850.9z M8295.8,2849.9h18.6v-1.1h-8.7v-5h-1.3v5h-8.6V2849.9z
			 M8313.5,2844.6l-8.6-4.8c-1,1.3-2.3,2.3-3.8,3.1l0,0c-1.6,0.8-3.4,1.3-5.3,1.4l-0.5,0v-3.1l0.5,0c1.3-0.1,2.5-0.5,3.6-1
			c1.1-0.5,2-1.3,2.8-2.3c0.6-0.8,1.1-1.8,1.4-2.8h-7.9v-3.1h18.5v3.1h-7.1c-0.2,0.7-0.4,1.4-0.6,2l8.6,4.8L8313.5,2844.6z
			 M8304.6,2838.5l8.5,4.8l0.6-1l-8.5-4.7l0.2-0.4c0.4-0.8,0.7-1.7,0.8-2.6l0.1-0.4h7v-1.1h-16.5v1.1h8.2l-0.1,0.6
			c-0.3,1.4-0.9,2.7-1.8,3.8c-0.9,1.1-1.9,1.9-3.1,2.6c-1.1,0.5-2.3,0.9-3.5,1.1v1.1c1.6-0.2,3-0.6,4.4-1.3l0,0
			c1.5-0.8,2.7-1.8,3.7-3.1L8304.6,2838.5z"/>
		<path d="M8334.5,2851.9h-3.3v-20.6h3.3v8h2.8v3.2h-2.8V2851.9z M8332.2,2850.9h1.3v-9.5h2.8v-1.2h-2.8v-8h-1.3V2850.9z
			 M8328.2,2850.9l-4.8-6.6c-0.7,1.8-1.6,3.3-2.6,4.3c-1.2,1.3-2.7,2-4.4,2.1l-0.5,0v-3.3l0.4-0.1c1.1-0.2,2.1-0.9,2.9-2.2
			c0.9-1.4,1.5-3.2,2-5.4c0.5-2.3,0.7-4.8,0.7-7.6l0-0.5l3.3,0.1l0,0.5c0,3-0.3,5.7-0.7,8l6.4,8.6L8328.2,2850.9z M8316.9,2848.3
			v1.3c1.2-0.2,2.2-0.8,3.2-1.8c1.1-1.2,2-2.8,2.7-4.9l0.3-0.9l5.3,7.4l1-0.7l-6-8.1l0-0.2c0.5-2.2,0.7-4.7,0.8-7.6l-1.3-0.1
			c0,2.6-0.3,5.1-0.7,7.2c-0.5,2.3-1.2,4.3-2.1,5.8C8319.2,2847.1,8318.1,2848,8316.9,2848.3z"/>
		<path d="M8341.4,2843.5h-3.7v-3.7h3.7V2843.5z M8338.7,2842.5h1.7v-1.7h-1.7V2842.5z"/>
		<path d="M8353.6,2851.9c-2.6,0-4.7-0.3-6.3-1c-1.8-0.7-2.6-1.8-2.6-3.4c0-1.5,0.9-2.7,2.6-3.4c1.6-0.6,3.7-1,6.3-1
			c2.6,0,4.7,0.3,6.3,1l0,0c1.8,0.7,2.6,1.8,2.6,3.4c0,1.5-0.9,2.7-2.6,3.4C8358.4,2851.6,8356.3,2851.9,8353.6,2851.9z
			 M8353.6,2844.2c-2.5,0-4.5,0.3-6,0.9c-1.4,0.5-2,1.3-2,2.4c0,1.1,0.7,1.9,2,2.4c1.5,0.6,3.5,0.9,6,0.9c2.5,0,4.5-0.3,6-0.9
			c1.4-0.5,2-1.3,2-2.4c0-1.1-0.7-1.9-2-2.4C8358.1,2844.5,8356.1,2844.2,8353.6,2844.2z M8353.6,2850.1c-1.8,0-3.4-0.2-4.5-0.5
			c-1.4-0.4-2-1.1-2-2c0-0.9,0.7-1.6,2-2c1.2-0.4,2.7-0.5,4.5-0.5s3.4,0.2,4.5,0.5c1.4,0.4,2,1.1,2,2c0,0.9-0.7,1.6-2,2
			C8357,2849.9,8355.5,2850.1,8353.6,2850.1z M8353.6,2846.1c-1.7,0-3.2,0.2-4.2,0.5c-0.9,0.3-1.3,0.6-1.3,1c0,0.4,0.4,0.8,1.3,1
			c1.1,0.3,2.5,0.5,4.2,0.5s3.2-0.2,4.2-0.5c0.9-0.3,1.3-0.6,1.3-1c0-0.4-0.4-0.8-1.3-1C8356.8,2846.2,8355.4,2846.1,8353.6,2846.1z
			 M8362.5,2843.6h-3.3v-3.3h-2v1.5l-0.3,0.1c-0.7,0.2-1.6,0.4-2.7,0.6c-1.1,0.1-2.4,0.2-3.8,0.2h-7.3v-2.9h2.3v-5.2h-2.2v-2.9h13.5
			v1.7h2.5v-2.1h3.3V2843.6z M8360.2,2842.6h1.3v-10.3h-1.3v2.1h-2.9v0.9h2.9v3.2h-2.9v0.9h2.9V2842.6z M8344.1,2841.7h6.3
			c1.4,0,2.6-0.1,3.7-0.2h0c0.9-0.1,1.6-0.2,2.2-0.4v-0.8c-0.6,0.2-1.4,0.3-2.2,0.4l-0.6,0.1v-7.1h2.3v-0.9h-11.5v0.9h2.2v7.2h-2.3
			V2841.7z M8354.4,2834.6v5c0.8-0.1,1.4-0.2,1.9-0.4v-1.8h2.9v-1.2h-2.9v-1.6H8354.4z M8350.5,2840.8h-2.9v-7.2h4.6v7.2l-0.5,0
			C8351.5,2840.8,8351.1,2840.8,8350.5,2840.8z M8348.6,2839.8h1.9c0.3,0,0.5,0,0.7,0v-5.2h-2.6V2839.8z"/>
		<path d="M8382.7,2851.9h-3.3v-20.6h3.3v8h2.8v3.2h-2.8V2851.9z M8380.5,2850.9h1.3v-9.5h2.8v-1.2h-2.8v-8h-1.3V2850.9z
			 M8365.2,2850.7h-0.5v-3.2h0.5c1.6,0,3.1-0.4,4.2-1.2c1.2-0.8,2.1-2,2.7-3.5c0.6-1.5,1-3.4,1-5.5v-2.2h-8.4v-3.1h11.7v5.2
			c0,2.6-0.4,5-1.3,7c-0.9,2-2.2,3.6-3.9,4.8C8369.5,2850.1,8367.4,2850.7,8365.2,2850.7z M8365.7,2848.5v1.2
			c1.9-0.1,3.5-0.6,4.9-1.5c1.5-1,2.7-2.5,3.5-4.3c0.8-1.9,1.2-4.1,1.2-6.6v-4.2h-9.7v1.1h8.4v3.2c0,2.2-0.3,4.2-1,5.9
			c-0.7,1.7-1.7,3-3,4C8368.8,2848,8367.3,2848.4,8365.7,2848.5z"/>
	</g>
	<g transform="translate(8332.207 2882.804)">
		<g>
			<defs>
				<rect id="SVGID_1_" x="0" y="0" width="122" height="114.3"/>
			</defs>
			<clipPath id="SVGID_2_">
				<use xlink:href="#SVGID_1_"  style="overflow:visible;"/>
			</clipPath>
			<g class="st4">
				<path class="st5" d="M38.7,112.9h-2l14.1-56.5h5L38.7,112.9z"/>
				<path class="st5" d="M59.6,112.9h-2l-0.5-56.5h5L59.6,112.9z"/>
				<path class="st5" d="M77.9,112.9h2L68.8,56.4h-5L77.9,112.9z"/>
				<rect x="44.4" y="88.7" class="st5" width="29.3" height="1.1"/>
				<rect x="20.3" y="1.1" class="st6" width="79.9" height="58.8"/>
				<rect x="17.4" y="0" class="st7" width="85.8" height="3.1"/>
				<rect x="17.4" y="58.2" class="st7" width="85.8" height="1.8"/>
				<g transform="translate(0 0)">
					<g>
						<defs>
							<rect id="SVGID_3_" x="0" y="0" width="122" height="114.3"/>
						</defs>
						<clipPath id="SVGID_4_">
							<use xlink:href="#SVGID_3_"  style="overflow:visible;"/>
						</clipPath>
						<g class="st8">
							<g transform="translate(45.001 10.455)" class="st9">
								<g>
									<defs>
										<rect id="SVGID_5_" x="0" y="0" width="30.5" height="0.7"/>
									</defs>
									<clipPath id="SVGID_6_">
										<use xlink:href="#SVGID_5_"  style="overflow:visible;"/>
									</clipPath>
									<g class="st10">
										<rect x="0" y="0" class="st11" width="30.5" height="0.7"/>
									</g>
								</g>
							</g>
							<g transform="translate(50.21 11.862)" class="st9">
								<g>
									<defs>
										<rect id="SVGID_7_" x="0" y="0" width="20" height="0.7"/>
									</defs>
									<clipPath id="SVGID_8_">
										<use xlink:href="#SVGID_7_"  style="overflow:visible;"/>
									</clipPath>
									<g class="st12">
										<rect x="0" y="0" class="st11" width="20" height="0.7"/>
									</g>
								</g>
							</g>
							<g transform="translate(50.21 6.937)" class="st9">
								<g>
									<defs>
										<rect id="SVGID_9_" x="0" y="0" width="20" height="1.8"/>
									</defs>
									<clipPath id="SVGID_10_">
										<use xlink:href="#SVGID_9_"  style="overflow:visible;"/>
									</clipPath>
									<g class="st13">
										<rect x="0" y="0" class="st11" width="20" height="1.8"/>
									</g>
								</g>
							</g>
						</g>
					</g>
				</g>
				<rect x="40.8" y="42.2" class="st0" width="4" height="7.9"/>
				<rect x="48.2" y="36.2" class="st0" width="4" height="13.9"/>
				<rect x="55.6" y="34.8" class="st0" width="4" height="15.3"/>
				<rect x="63" y="30.9" class="st0" width="4" height="19.2"/>
				<rect x="70.4" y="22.5" class="st0" width="4" height="27.6"/>
				<rect x="77.8" y="19.1" class="st0" width="4" height="31"/>
				<rect x="40.8" y="51.9" class="st14" width="4" height="0.4"/>
				<rect x="48.2" y="51.9" class="st14" width="4" height="0.4"/>
				<rect x="55.6" y="51.9" class="st14" width="4" height="0.4"/>
				<rect x="63" y="51.9" class="st14" width="4" height="0.4"/>
				<rect x="70.4" y="51.9" class="st14" width="4" height="0.4"/>
				<rect x="77.8" y="51.9" class="st14" width="4" height="0.4"/>
				<rect x="39.1" y="48.1" class="st15" width="45.5" height="0.1"/>
				<rect x="39.1" y="45.9" class="st15" width="45.5" height="0.1"/>
				<rect x="39.1" y="43.8" class="st15" width="45.5" height="0.1"/>
				<rect x="39.1" y="41.6" class="st15" width="45.5" height="0.1"/>
				<rect x="39.1" y="39.4" class="st15" width="45.5" height="0.1"/>
				<rect x="39.1" y="37.3" class="st15" width="45.5" height="0.1"/>
				<rect x="39.1" y="35.1" class="st15" width="45.5" height="0.1"/>
				<rect x="39.1" y="32.9" class="st15" width="45.5" height="0.1"/>
				<rect x="39.1" y="30.8" class="st15" width="45.5" height="0.1"/>
				<rect x="39.1" y="28.6" class="st15" width="45.5" height="0.1"/>
				<rect x="39.1" y="26.4" class="st15" width="45.5" height="0.1"/>
				<rect x="39.1" y="24.3" class="st15" width="45.5" height="0.1"/>
				<rect x="39.1" y="22.1" class="st15" width="45.5" height="0.1"/>
				<rect x="39.1" y="19.9" class="st15" width="45.5" height="0.1"/>
				<rect x="39.1" y="17.8" class="st15" width="45.5" height="0.1"/>
				<rect x="41.2" y="17.8" class="st15" width="0.1" height="32.3"/>
				<rect x="43.4" y="17.8" class="st15" width="0.1" height="32.3"/>
				<rect x="45.5" y="17.8" class="st15" width="0.1" height="32.3"/>
				<rect x="47.7" y="17.8" class="st15" width="0.1" height="32.3"/>
				<rect x="49.9" y="17.8" class="st15" width="0.1" height="32.3"/>
				<rect x="52" y="17.8" class="st15" width="0.1" height="32.3"/>
				<rect x="54.2" y="17.8" class="st15" width="0.1" height="32.3"/>
				<rect x="56.4" y="17.8" class="st15" width="0.1" height="32.3"/>
				<rect x="58.6" y="17.8" class="st15" width="0.1" height="32.3"/>
				<rect x="60.7" y="17.8" class="st15" width="0.1" height="32.3"/>
				<rect x="62.9" y="17.8" class="st15" width="0.1" height="32.3"/>
				<rect x="65.1" y="17.8" class="st15" width="0.1" height="32.3"/>
				<rect x="67.2" y="17.8" class="st15" width="0.1" height="32.3"/>
				<rect x="69.4" y="17.8" class="st15" width="0.1" height="32.3"/>
				<rect x="71.6" y="17.8" class="st15" width="0.1" height="32.3"/>
				<rect x="73.7" y="17.8" class="st15" width="0.1" height="32.3"/>
				<rect x="75.9" y="17.8" class="st15" width="0.1" height="32.3"/>
				<rect x="78" y="17.8" class="st15" width="0.1" height="32.3"/>
				<rect x="80.2" y="17.8" class="st15" width="0.1" height="32.3"/>
				<rect x="82.4" y="17.8" class="st15" width="0.1" height="32.3"/>
				<rect x="84.6" y="17.8" class="st15" width="0.1" height="32.3"/>
				<g transform="translate(0 0)">
					<g>
						<defs>
							<rect id="SVGID_11_" x="0" y="0" width="122" height="114.3"/>
						</defs>
						<clipPath id="SVGID_12_">
							<use xlink:href="#SVGID_11_"  style="overflow:visible;"/>
						</clipPath>
						<g class="st16">
							<path class="st17" d="M40.8,41.9l0-0.2c4.5-0.9,9-2.4,13.2-4.3c4.5-2,8.7-4.4,12.7-7.2c5-3.5,9.5-7.6,13.5-12.2l0.1,0.1
								c-4,4.6-8.6,8.7-13.6,12.2c-4,2.8-8.3,5.2-12.8,7.2C49.8,39.5,45.4,41,40.8,41.9"/>
							<path class="st17" d="M80.6,18.4l0.2-0.9l-0.9,0.3L80.6,18.4z"/>
							<path class="st14" d="M85.7,50.1H39.2c-0.1,0-0.1,0-0.1-0.1V16.7c0-0.1,0-0.1,0.1-0.1c0.1,0,0.1,0,0.1,0.1v33.2h46.4
								c0.1,0,0.1,0,0.1,0.1S85.8,50.1,85.7,50.1C85.7,50.1,85.7,50.1,85.7,50.1"/>
							<rect x="88.4" y="12.9" class="st18" width="9.9" height="11.7"/>
							<path class="st19" d="M93.7,13.7c0,0.2-0.2,0.4-0.4,0.4c-0.2,0-0.4-0.2-0.4-0.4c0-0.2,0.2-0.4,0.4-0.4c0,0,0,0,0,0
								C93.6,13.3,93.7,13.5,93.7,13.7C93.7,13.7,93.7,13.7,93.7,13.7"/>
							<path class="st20" d="M90.3,15.2c1-0.1,2-0.1,3-0.1c1,0,2,0,3,0.1c-1,0.1-2,0.1-3,0.1C92.3,15.3,91.3,15.3,90.3,15.2"/>
							<path class="st20" d="M90.3,16.2c0.5-0.1,1.1-0.1,1.6-0.1c0.5,0,1.1,0,1.6,0.1c-0.5,0.1-1.1,0.1-1.6,0.1
								C91.4,16.3,90.9,16.2,90.3,16.2"/>
							<path class="st20" d="M90.3,17.1C91,17,91.7,17,92.4,17s1.4,0,2.1,0.1c-0.7,0.1-1.4,0.1-2.1,0.1S91,17.2,90.3,17.1"/>
							<path class="st20" d="M90.3,18c0.9-0.1,1.7-0.1,2.6-0.1s1.7,0,2.6,0.1c-0.9,0.1-1.7,0.1-2.6,0.1S91.2,18.1,90.3,18"/>
							<path class="st20" d="M90.3,18.9c0.8-0.1,1.5-0.1,2.3-0.1s1.5,0,2.3,0.1C94.1,19,93.3,19,92.6,19S91.1,19,90.3,18.9"/>
							<path class="st20" d="M90.3,19.9c1-0.1,1.9-0.1,2.9-0.1c1,0,1.9,0,2.9,0.1c-1,0.1-1.9,0.1-2.9,0.1
								C92.3,20,91.3,19.9,90.3,19.9"/>
							<path class="st20" d="M90.3,20.8c0.6-0.1,1.2-0.1,1.9-0.1c0.6,0,1.3,0,1.9,0.1c-0.6,0.1-1.2,0.1-1.9,0.1
								C91.6,20.9,91,20.9,90.3,20.8"/>
							<path class="st20" d="M90.3,21.7c1-0.1,2-0.1,3-0.1c1,0,2,0,3,0.1c-1,0.1-2,0.1-3,0.1C92.3,21.8,91.3,21.8,90.3,21.7"/>
							<path class="st20" d="M90.3,22.6c1-0.1,2-0.1,3-0.1c1,0,2,0,3,0.1c-1,0.1-2,0.1-3,0.1C92.3,22.7,91.3,22.7,90.3,22.6"/>
							<rect x="22.8" y="26.1" class="st0" width="11.7" height="13.8"/>
							<path class="st19" d="M29,28c0,0.2-0.2,0.4-0.4,0.4s-0.4-0.2-0.4-0.4c0-0.2,0.2-0.4,0.4-0.4C28.8,27.6,29,27.8,29,28
								C29,28,29,28,29,28"/>
							<path class="st20" d="M24.4,29.6c0.4-0.1,0.9-0.1,1.3-0.1c0.4,0,0.9,0,1.3,0.1c-0.4,0.1-0.9,0.1-1.3,0.1
								C25.3,29.7,24.8,29.6,24.4,29.6"/>
							<path class="st20" d="M24.4,30.6c0.6-0.1,1.1-0.1,1.7-0.1c0.6,0,1.1,0,1.7,0.1c-0.6,0.1-1.1,0.1-1.7,0.1
								C25.5,30.7,25,30.7,24.4,30.6"/>
							<path class="st20" d="M24.4,31.6c0.5-0.1,1-0.1,1.6-0.1c0.5,0,1,0,1.6,0.1c-0.5,0.1-1,0.1-1.6,0.1
								C25.4,31.7,24.9,31.7,24.4,31.6"/>
							<path class="st20" d="M24.4,32.7c0.5-0.1,1-0.1,1.6-0.1c0.5,0,1,0,1.6,0.1c-0.5,0.1-1,0.1-1.6,0.1
								C25.4,32.8,24.9,32.8,24.4,32.7"/>
							<path class="st20" d="M24.4,33.7c0.4-0.1,0.9-0.1,1.4-0.1c0.5,0,0.9,0,1.4,0.1c-0.4,0.1-0.9,0.1-1.4,0.1
								C25.3,33.8,24.9,33.8,24.4,33.7"/>
							<path class="st20" d="M24.4,34.8c0.6-0.1,1.2-0.1,1.7-0.1c0.6,0,1.2,0,1.7,0.1c-0.6,0.1-1.2,0.1-1.7,0.1
								C25.6,34.9,25,34.8,24.4,34.8"/>
							<path class="st20" d="M24.4,35.8c0.5-0.1,1-0.1,1.4-0.1c0.5,0,1,0,1.4,0.1c-0.5,0.1-1,0.1-1.4,0.1
								C25.4,35.9,24.9,35.9,24.4,35.8"/>
							<path class="st20" d="M24.4,36.9c0.6-0.1,1.2-0.1,1.8-0.1c0.6,0,1.2,0,1.8,0.1c-0.6,0.1-1.2,0.1-1.8,0.1
								C25.6,37,25,36.9,24.4,36.9"/>
							<path class="st20" d="M24.4,37.9c0.6-0.1,1.2-0.1,1.8-0.1c0.6,0,1.2,0,1.8,0.1C27.4,38,26.8,38,26.2,38
								C25.6,38,25,38,24.4,37.9"/>
							<path class="st20" d="M29.5,29.6c0.6-0.1,1.1-0.1,1.7-0.1c0.6,0,1.1,0,1.7,0.1c-0.6,0.1-1.1,0.1-1.7,0.1
								C30.6,29.7,30.1,29.6,29.5,29.6"/>
							<path class="st20" d="M29.5,30.6c0.4-0.1,0.7-0.1,1.1-0.1c0.4,0,0.7,0,1.1,0.1c-0.4,0.1-0.7,0.1-1.1,0.1
								C30.3,30.7,29.9,30.7,29.5,30.6"/>
							<path class="st20" d="M29.5,31.6c0.5-0.1,1.1-0.1,1.6-0.1c0.5,0,1.1,0,1.6,0.1c-0.5,0.1-1.1,0.1-1.6,0.1
								C30.6,31.7,30,31.7,29.5,31.6"/>
							<path class="st20" d="M29.5,32.7c0.5-0.1,1-0.1,1.6-0.1c0.5,0,1,0,1.6,0.1c-0.5,0.1-1,0.1-1.6,0.1
								C30.6,32.8,30,32.8,29.5,32.7"/>
							<path class="st20" d="M29.5,33.7c0.6-0.1,1.1-0.1,1.7-0.1c0.6,0,1.1,0,1.7,0.1c-0.6,0.1-1.1,0.1-1.7,0.1
								C30.6,33.8,30.1,33.8,29.5,33.7"/>
							<path class="st20" d="M29.5,34.8c0.4-0.1,0.9-0.1,1.4-0.1c0.5,0,0.9,0,1.4,0.1c-0.4,0.1-0.9,0.1-1.4,0.1
								C30.4,34.9,30,34.8,29.5,34.8"/>
							<path class="st20" d="M29.5,35.8c0.5-0.1,1.1-0.1,1.6-0.1c0.5,0,1.1,0,1.6,0.1c-0.5,0.1-1.1,0.1-1.6,0.1
								C30.6,35.9,30,35.9,29.5,35.8"/>
							<path class="st20" d="M29.5,36.9c0.4-0.1,0.8-0.1,1.2-0.1c0.4,0,0.8,0,1.2,0.1c-0.4,0.1-0.8,0.1-1.2,0.1
								C30.3,37,29.9,36.9,29.5,36.9"/>
							<path class="st20" d="M29.5,37.9c0.4-0.1,0.8-0.1,1.2-0.1c0.4,0,0.8,0,1.2,0.1C31.5,38,31.1,38,30.7,38
								C30.3,38,29.9,38,29.5,37.9"/>
							<rect x="84.4" y="7.7" class="st21" width="5.9" height="5.9"/>
							<path class="st19" d="M87.7,8.3c0,0.2-0.2,0.4-0.4,0.4c-0.2,0-0.4-0.2-0.4-0.4C87,8.1,87.2,8,87.3,8c0,0,0,0,0,0
								C87.5,8,87.7,8.1,87.7,8.3"/>
							<path class="st21" d="M92.4,105l-0.9,3.7c-1.5,0.2-3.1,0.5-4.5,1c-0.2,0.1-0.3,0.3-0.2,0.5c0,0.1,0.1,0.2,0.3,0.2l5.9,1.6
								c0.4,0.1,0.8-0.1,0.9-0.5c0,0,0,0,0,0l1.5-5.5L92.4,105z"/>
							<path class="st21" d="M108.4,107.3l0.6,3.7c-1.3,0.8-2.6,1.6-3.8,2.6c-0.1,0.2-0.1,0.4,0,0.6c0.1,0.1,0.2,0.1,0.3,0.1l6-0.8
								c0.4-0.1,0.7-0.4,0.6-0.8c0,0,0,0,0,0l-0.8-5.7L108.4,107.3z"/>
							<path class="st22" d="M101.5,29.6L101.5,29.6c0.9,0.3,1.3,1.2,1,2c0,0,0,0,0,0c-0.3,0.9-1.3,1.3-2.2,1l0,0
								c-0.9-0.3-1.3-1.2-1-2c0,0,0,0,0,0C99.7,29.7,100.6,29.3,101.5,29.6"/>
							<path class="st22" d="M101.4,31.4l2.6-1.8c0.2-0.1,0.5-0.1,0.6,0.1c0.1,0.2,0.1,0.5-0.1,0.6c0,0,0,0,0,0l-2.6,1.8
								c-0.2,0.1-0.5,0.1-0.6-0.1C101.1,31.8,101.2,31.6,101.4,31.4C101.4,31.4,101.4,31.4,101.4,31.4"/>
							<path class="st22" d="M100,32.3l3.1-0.8c0.2-0.1,0.5,0.1,0.5,0.3c0.1,0.2-0.1,0.5-0.3,0.5c0,0,0,0,0,0l-3.1,0.8
								c-0.2,0.1-0.5-0.1-0.5-0.3C99.6,32.6,99.8,32.3,100,32.3C100,32.3,100,32.3,100,32.3"/>
							<path class="st22" d="M101.2,30.6l2.4-2.1c0.2-0.2,0.5-0.2,0.6,0c0.2,0.2,0.2,0.4,0,0.6c0,0,0,0,0,0l-2.3,2.1
								c-0.2,0.2-0.5,0.2-0.6,0C101,31,101,30.7,101.2,30.6C101.2,30.6,101.2,30.6,101.2,30.6"/>
							<path class="st22" d="M100.5,30.2l2.1-2.4c0.2-0.2,0.4-0.2,0.6-0.1c0.2,0.1,0.2,0.4,0.1,0.6c0,0,0,0,0,0l-2.1,2.4
								c-0.2,0.2-0.4,0.2-0.6,0.1C100.4,30.7,100.3,30.4,100.5,30.2C100.5,30.2,100.5,30.2,100.5,30.2"/>
							<path class="st22" d="M99.3,30.5l1.8-2.6c0.1-0.2,0.4-0.2,0.6-0.1c0.2,0.1,0.2,0.4,0.1,0.6c0,0,0,0,0,0L100,31
								c-0.1,0.2-0.4,0.2-0.6,0.1C99.2,31,99.1,30.7,99.3,30.5C99.3,30.5,99.3,30.5,99.3,30.5"/>
							<path class="st23" d="M94,108.7c-0.9-0.2-1.9-0.4-2.8-0.6l8-40.3l9.1-0.5l-13.6,41.6C94.5,108.8,94.3,108.8,94,108.7"/>
							<path class="st24" d="M108,110.2C108,110.1,108,110.1,108,110.2l-3.9-32.4l-0.5-4.5l-0.5-4.4l8.1-1.1c1,2.6,1.4,5.3,1.1,8.1
								c0,0.1,0,0.3,0,0.4l-0.3,2.2l0.3,31.8C112.2,110.2,109.3,110.2,108,110.2"/>
							<path class="st25" d="M116.5,51.1c0-0.4,0.1-0.8,0.2-1.2c0.4-3.6-1.5-6.5-5.1-6.5l-7.1-0.7c-0.8-0.1-1.7-0.3-2.4-0.6h0
								l-8.1-4.6l6.7-4.3l-1.5-1.8L89.8,35l-0.1,0.1c-1.3,0.9-1.7,2.6-0.9,4c0.2,0.3,0.5,0.6,0.8,0.8l9.2,6.6l-0.6,21.7l14.3,1.7
								L116.5,51.1z"/>
							<path class="st26" d="M104.2,35.3c-0.2,2.2,1.4,4.1,3.5,4.3c2.1,0.2,4-1.3,4.3-3.3c0-0.3,0-0.7,0-1c-0.3-1.7-1.7-3.1-3.4-3.3
								C106.4,31.7,104.4,33.2,104.2,35.3"/>
							<path class="st22" d="M106.5,44.5l0.3,0c0.7,0.1,1.4-0.4,1.5-1.2c0,0,0,0,0,0l0.4-3.5c0-0.2-0.1-0.3-0.3-0.4c0,0,0,0,0,0
								l-2.4-0.3c-0.2,0-0.3,0.1-0.4,0.3l-0.4,3.5C105.2,43.7,105.8,44.4,106.5,44.5C106.5,44.5,106.5,44.5,106.5,44.5"/>
							<path class="st7" d="M103.8,37c0,0.5,0.5,0.9,1,0.9s0.9-0.5,0.9-1c0-0.5-0.4-0.8-0.8-0.9C104.3,36,103.8,36.4,103.8,37"/>
							<path class="st7" d="M108.4,40l-3,2.5l0.3-2.7L108.4,40z"/>
							<path class="st22" d="M106.3,40.5l1.5,0.2c0.8,0.1,1.6-0.5,1.7-1.3c0,0,0,0,0,0l0.7-5.5c0-0.1,0-0.1-0.1-0.1l-4.7-0.6
								c-0.1,0-0.1,0-0.1,0.1l-0.6,5.1C104.5,39.5,105.2,40.4,106.3,40.5"/>
							<path class="st22" d="M109,37.6c0,0.5,0.5,0.9,1,0.9s0.9-0.5,0.9-1c0-0.5-0.4-0.8-0.8-0.9C109.5,36.6,109,37.1,109,37.6"/>
							<path class="st26" d="M105.9,33.6c-0.1,0.7-0.7,1.2-1.5,1.1c-0.7-0.1-1.2-0.7-1.1-1.5c0.1-0.7,0.7-1.2,1.5-1.1c0,0,0,0,0,0
								C105.4,32.3,106,32.9,105.9,33.6"/>
							<path class="st26" d="M111.3,34.9c-0.1,0.9-0.9,1.5-1.7,1.4c-0.9-0.1-1.5-0.9-1.4-1.7c0.1-0.9,0.9-1.5,1.7-1.4c0,0,0,0,0,0
								C110.8,33.2,111.4,34,111.3,34.9"/>
							<path class="st26" d="M108.8,33.2c-0.1,1.1-1.1,1.8-2.2,1.7c-1.1-0.1-1.8-1.1-1.7-2.2c0.1-1.1,1.1-1.8,2.2-1.7c0,0,0,0,0,0
								C108.2,31.2,108.9,32.1,108.8,33.2"/>
							
								<rect x="103.8" y="52.7" transform="matrix(0.9845 -0.1752 0.1752 0.9845 -8.667 19.9642)" class="st27" width="9.9" height="12.8"/>
							<path class="st22" d="M105.9,63.3l-0.5,0.1c-0.9,0.2-1.7-0.4-1.9-1.3l-0.1-0.3c-0.2-0.9,0.4-1.7,1.3-1.9c0,0,0,0,0,0l0.5-0.1
								c0.9-0.2,1.7,0.4,1.9,1.3l0.1,0.3C107.3,62.3,106.7,63.2,105.9,63.3C105.9,63.3,105.9,63.3,105.9,63.3"/>
							<path class="st22" d="M106.5,60.7l-0.1,0.1c-0.1,0.1-0.4,0.2-0.5,0l-1.5-1.3c-0.1-0.1-0.2-0.4,0-0.5l0.1-0.1
								c0.1-0.1,0.4-0.2,0.5,0l1.5,1.3C106.6,60.3,106.6,60.5,106.5,60.7"/>
							<path class="st25" d="M121.6,56.6l-5.5-10.7l-4.5,2.4l5.1,8.5l-10.4,3.2l0.6,2.6l12.5-1.9C122,59.9,122.5,58.4,121.6,56.6"/>
							<rect x="5.8" y="84.8" class="st27" width="21.5" height="28.2"/>
							<rect x="4.7" y="83.7" class="st28" width="23.5" height="1.1"/>
							<rect x="28.3" y="83.7" class="st20" width="7.4" height="1.1"/>
							<rect x="27.2" y="84.8" class="st28" width="7.3" height="28.2"/>
							<rect x="8.1" y="89.1" class="st29" width="16.8" height="9.4"/>
							<rect x="10.5" y="86.7" class="st30" width="12.8" height="9.2"/>
							<path class="st30" d="M15,85.7h-4.5v1h4.8L15,85.7z"/>
							<path class="st29" d="M23.2,95.9H10.4l-1-8.5h12.8L23.2,95.9z"/>
							<path class="st29" d="M13.9,86.6H9.3l0.1,0.9h4.8L13.9,86.6z"/>
							<rect x="0" y="89.1" class="st27" width="16.8" height="9.4"/>
							<rect x="6" y="91.8" class="st30" width="3.3" height="1.9"/>
							<path class="st30" d="M10.3,93.6H7V92h3.3V93.6z M7,93.6h3.3V92H7V93.6z"/>
							<rect x="16.8" y="90.5" class="st28" width="8" height="8"/>
							<path class="st30" d="M24.9,110.5H8.1c0,0,0,0,0,0V101c0,0,0,0,0,0h16.8c0,0,0,0,0,0L24.9,110.5
								C24.9,110.5,24.9,110.5,24.9,110.5 M8.1,110.4h16.7V101H8.1V110.4z"/>
							<rect x="14.1" y="103.8" class="st30" width="3.3" height="1.9"/>
							<path class="st30" d="M18.4,105.5h-3.3v-1.6h3.3V105.5z M15.1,105.5h3.3v-1.6h-3.3V105.5z"/>
							<path class="st31" d="M46.2,86.7l1.5,3.1c1.4-0.1,2.8-0.1,4.2,0c0.2,0,0.3,0.2,0.3,0.4c0,0.1-0.1,0.2-0.2,0.2L47.2,93
								c-0.3,0.2-0.7,0-0.9-0.3c0,0,0,0,0,0l-2.4-4.6L46.2,86.7z"/>
							<path class="st31" d="M38.1,98.2l0,3.4c1.3,0.5,2.6,1.1,3.8,1.8c0.2,0.1,0.2,0.3,0.1,0.5c-0.1,0.1-0.2,0.1-0.3,0.1l-5.5,0.2
								c-0.4,0-0.7-0.3-0.7-0.6c0,0,0,0,0,0l-0.2-5.2L38.1,98.2z"/>
							<path class="st32" d="M17.2,78.2l-0.7-3.3l3.5-1.5l2.1,2.2l10.2-4.7c3.9-1.9,5.2-1.6,7.3,2.1l0.5,0.9l7.6,15l-2.9,1.5
								L35.1,76c-3.9,2.2-7,4.4-9.5,5.6c-1.5,0.7-3.6,1.6-5.5,0.8C18.4,81.6,17.4,80,17.2,78.2"/>
							<path class="st25" d="M16.3,73.1L16.3,73.1L26.7,72l0.7,4.5l5.5,0.5c4.5,0.2,5.6,1,5.8,5.5v1c-0.1,5.9-0.2,11.7-0.3,17.6H35
								c-0.7-6-1.3-11.6-2-17.7c-4.7,0.1-8.6,0.3-11.5,0.2c-1.7-0.1-3.4-0.2-4.8-1.9c-0.4-0.6-0.7-1.2-0.8-1.9
								c-0.2-0.9-0.2-1.8,0-2.6C16.3,75.8,16.4,74.4,16.3,73.1"/>
							<path class="st22" d="M45,49.6l-0.2,0c-1,0.1-2-0.6-2.1-1.6l0-0.2c-0.1-1,0.6-2,1.6-2.1l0.2,0c1-0.1,2,0.6,2.1,1.6l0,0.2
								C46.8,48.5,46.1,49.4,45,49.6"/>
							<path class="st33" d="M42.5,47.5c-1.4,1.1-4.7,3.8-6.7,5.4c-1.7,1.2-1.5,1.1-3.6,1.3c-2.9,0.2-7.7,0.3-9.3,0.4l2.8,4.3
								c2-0.1,6.7-1,10.4-1.6c1-0.2,1.1-0.5,1.6-1c1.1-1,6.3-6.7,6.3-6.7L42.5,47.5z"/>
							<path class="st22" d="M47.6,44.5l-3.1,2.2c-0.2,0.2-0.5,0.1-0.7-0.1l0,0c-0.2-0.2-0.2-0.6,0-0.8l3.2-2.2
								c0.2-0.2,0.5-0.1,0.7,0.1l0,0C47.9,44,47.8,44.4,47.6,44.5"/>
							<path class="st33" d="M22.8,54.4l-5.9,1.1c-1.2,0.3-2.3,1.1-2.9,2.3c-0.5,1-0.5,2.2-0.1,3.2l2.5,14.2l10.8-0.1L28,58.4
								c0-3.2-0.1-0.9-2.2-2.6C24.9,55.1,23.9,54.6,22.8,54.4"/>
							<path class="st33" d="M30,72.9L29.9,75l-12.5-1.4l-2.5-11.7l5.5,8.8L30,72.9z"/>
							<path class="st26" d="M18,51.1c0.2,0.8,0.9,1.3,1.7,1.1c0.8-0.2,1.3-0.9,1.1-1.7c-0.2-0.8-0.9-1.3-1.7-1.1c0,0,0,0,0,0
								C18.4,49.6,17.9,50.4,18,51.1"/>
							<path class="st26" d="M16.8,51.9c0.2,0.8,0.9,1.3,1.7,1.1c0.8-0.2,1.3-0.9,1.1-1.7c-0.2-0.8-0.9-1.3-1.7-1.1c0,0,0,0,0,0
								C17.2,50.3,16.7,51.1,16.8,51.9"/>
							<path class="st26" d="M21.4,50.7c0.2,0.8,0.9,1.3,1.7,1.1c0.8-0.2,1.3-0.9,1.1-1.7c-0.2-0.8-0.9-1.3-1.7-1.1c0,0,0,0,0,0
								C21.7,49.2,21.2,49.9,21.4,50.7"/>
							<path class="st26" d="M22.2,51.2c0.2,0.8,0.9,1.3,1.7,1.1c0.8-0.2,1.3-0.9,1.1-1.7c-0.2-0.8-0.9-1.3-1.7-1.1c0,0,0,0,0,0
								C22.5,49.7,22,50.5,22.2,51.2"/>
							<path class="st26" d="M24.5,47c0.3,2.1-1.3,4.1-3.4,4.3S17,50.1,16.7,48l0,0c0-0.3,0-0.7,0-1c0.3-1.7,1.7-3.1,3.4-3.3
								C22.3,43.4,24.2,44.9,24.5,47"/>
							<path class="st22" d="M21.8,56l-0.2,0c-0.7,0.1-1.3-0.4-1.4-1.1l-0.4-3.4l2.8-0.3l0.4,3.4C23,55.3,22.5,55.9,21.8,56"/>
							<path class="st7" d="M24.3,48.6c0,0.5-0.4,0.8-0.9,0.8c-0.5,0-0.8-0.4-0.8-0.9c0-0.4,0.3-0.8,0.8-0.8
								C23.9,47.7,24.3,48.1,24.3,48.6"/>
							<path class="st7" d="M20.1,51.6l2.8,2.3l-0.3-2.5L20.1,51.6z"/>
							<path class="st22" d="M22.2,51.8L20.5,52c-0.7,0.1-1.3-0.4-1.4-1.1l-0.5-4.6l4.5-0.5l0.4,4.2C23.7,50.9,23.1,51.7,22.2,51.8"
								/>
							<path class="st22" d="M19.5,49.1c0,0.5-0.4,0.8-0.9,0.8c-0.5,0-0.8-0.4-0.8-0.9c0-0.4,0.3-0.8,0.8-0.8
								C19.1,48.2,19.5,48.6,19.5,49.1"/>
							<path class="st26" d="M22.3,45.1l0.6-0.1c0.4,0,0.7,0.2,0.8,0.6c0,0,0,0,0,0l0.2,1.6c-0.7,0.1-1.4-0.5-1.5-1.2L22.3,45.1z"/>
							<path class="st26" d="M19,45.9L18.4,46c-0.4,0-0.7,0.4-0.6,0.8c0,0,0,0,0,0l0.2,1.6c0.7-0.1,1.3-0.7,1.2-1.5c0,0,0,0,0,0
								L19,45.9z"/>
							<path class="st26" d="M24.3,45.3c0.1,0.9-0.6,1.7-1.5,1.8c-0.9,0.1-1.7-0.6-1.8-1.5c-0.1-0.9,0.6-1.7,1.5-1.8c0,0,0,0,0,0
								C23.4,43.7,24.2,44.4,24.3,45.3C24.3,45.3,24.3,45.3,24.3,45.3"/>
							<path class="st34" d="M27.1,74.7L27.1,74.7L19,73.9c-0.2,0-0.3,0-0.5-0.1c-0.8-0.2-1.4-0.9-1.6-1.8l-2.8-10.4
								c0,0,0-0.1,0-0.1c0,0,0.1,0,0.1,0l0,0L17.1,72c0.1,0.8,0.7,1.4,1.5,1.7c0.2,0,0.3,0.1,0.5,0.1l8.1,0.8
								C27.2,74.6,27.2,74.6,27.1,74.7C27.2,74.7,27.2,74.7,27.1,74.7L27.1,74.7"/>
							<path class="st7" d="M30.5,77.1l-3.2-12.8l9.4-2.6l2.9,12.7"/>
							<path class="st22" d="M31.1,75.2l-0.2,0c-0.8,0.2-1.5-0.3-1.6-1.1l-0.1-0.6c-0.2-0.8,0.3-1.5,1.1-1.6c0,0,0,0,0,0l0.2,0
								c0.8-0.2,1.5,0.3,1.6,1.1l0.1,0.6C32.3,74.3,31.8,75.1,31.1,75.2C31.1,75.2,31.1,75.2,31.1,75.2"/>
							<path class="st34" d="M27.1,72.2L27.1,72.2l-6.6-1.7c0,0,0,0,0,0l-1.9-10.6c0,0,0-0.1,0-0.1c0,0,0.1,0,0.1,0l0,0l1.9,10.5
								l6.6,1.7C27.2,72.1,27.2,72.1,27.1,72.2C27.2,72.1,27.1,72.2,27.1,72.2"/>
							<path class="st22" d="M29.7,73.8L29.7,73.8c-0.2,0.1-0.5-0.1-0.5-0.3l-0.5-1.7c-0.1-0.2,0.1-0.4,0.3-0.5l0,0
								c0.2-0.1,0.4,0.1,0.5,0.3l0.5,1.7C30,73.5,29.9,73.7,29.7,73.8"/>
						</g>
					</g>
				</g>
			</g>
		</g>
	</g>
</g>
</svg>
